<svg xmlns="http://www.w3.org/2000/svg" viewBox="0 0 562 584"><path fill="#9327d7" stroke="#9327d7" d="M0 63.787v64l6.25 2.539A1321426.031 1321426.031 0 0 1 149 188.234c95.281 38.658 143.909 58.359 208.24 84.369 25.707 10.393 46.745 19.172 46.75 19.508.006.336-2.577 1.6-5.74 2.809-3.162 1.208-48.275 19.46-100.25 40.56-107.554 43.662-193.135 78.367-255.25 103.51L0 456.295v63.852C0 555.266.151 584 .335 584c.458 0 27.283-10.785 62.165-24.995 15.95-6.497 37.55-15.271 48-19.498 10.45-4.226 63.775-25.833 118.5-48.014 54.725-22.181 137.975-55.914 185-74.961 47.025-19.048 99.563-40.334 116.75-47.301L562 356.562l-.02-64.531-.021-64.531-69.729-28.199A184219.354 184219.354 0 0 1 347 140.482a684167.745 684167.745 0 0 0-141-57.165C119.17 48.128 54.783 22.018 26 10.325 13.075 5.075 1.938.555 1.25.282.258-.112 0 12.988 0 63.787" fill-rule="evenodd"/><path fill="#9f04f7" stroke="#9f04f7" d="M0 64.056v63.056l4.25 1.84c2.338 1.011 33.95 13.865 70.25 28.564 36.3 14.698 110.1 44.607 164 66.463 53.9 21.856 113.413 45.978 132.25 53.604 18.837 7.626 34.25 14.124 34.25 14.44 0 .317-4.613 2.445-10.25 4.73A760992.63 760992.63 0 0 0 54 434.958L.5 456.672l-.257 63.164C.076 560.764.331 583 .969 583c.888 0 70.425-27.991 154.227-62.082a73641.677 73641.677 0 0 1 94.5-38.304c90.7-36.698 146.628-59.361 234.304-94.942l77.5-31.453.257-63.982.258-63.983-14.758-6.041c-8.116-3.323-31.407-12.779-51.757-21.014-20.35-8.234-95.5-38.69-167-67.678S171.275 69.779 138 56.29a292690.372 292690.372 0 0 1-98.398-39.908C18.758 7.922 1.321 1 .852 1 .383 1 0 29.375 0 64.056" fill-rule="evenodd"/><path fill="#6d04af" stroke="#6d04af" d="M373.97 305.538A683678.57 683678.57 0 0 0 278 344.492c-34.925 14.178-71.402 28.98-81.06 32.893l-17.561 7.115 20.674 51c11.37 28.05 21.297 52.437 22.06 54.194l1.387 3.194 16-6.522c8.8-3.587 51.55-20.909 95-38.494s103.3-41.816 133-53.847c29.7-12.031 62.704-25.396 73.341-29.7 10.638-4.304 19.356-8.275 19.374-8.825.017-.55-6.436-3.623-14.342-6.828-53.6-21.734-124.667-50.471-131.403-53.134l-8.029-3.174-32.471 13.174" fill-rule="evenodd"/></svg>