<?xml version="1.0" standalone="no"?>
<!DOCTYPE svg PUBLIC "-//W3C//DTD SVG 20010904//EN"
 "http://www.w3.org/TR/2001/REC-SVG-20010904/DTD/svg10.dtd">
<svg version="1.0" xmlns="http://www.w3.org/2000/svg"
 width="300.000000pt" height="150.000000pt" viewBox="0 0 300.000000 150.000000"
 preserveAspectRatio="xMidYMid meet">
<metadata>
Created by potrace 1.10, written by Peter Selinger 2001-2011
</metadata>
<g transform="translate(0.000000,150.000000) scale(0.100000,-0.100000)"
fill="#000000" stroke="none">
<path d="M1708 1041 c4 -38 5 -39 73 -62 62 -21 88 -39 58 -39 -7 0 -38 -9
-69 -21 -54 -20 -58 -23 -63 -57 -2 -21 -3 -38 -2 -39 1 -2 55 19 121 45 119
48 119 48 119 82 0 34 0 34 -119 82 -66 26 -120 48 -121 48 0 0 1 -17 3 -39z
m180 -67 c27 -8 29 -30 3 -44 -30 -16 -36 -12 -36 20 0 33 0 32 33 24z"/>
<path d="M1823 784 c-27 -11 -33 -20 -33 -44 0 -24 -4 -30 -17 -28 -14 2 -18
-4 -17 -27 0 -22 5 -29 17 -27 15 3 17 -9 17 -91 0 -120 13 -140 86 -141 48
-1 49 0 52 31 3 28 0 32 -25 35 -28 3 -28 3 -31 86 l-3 84 28 -4 c25 -3 28 0
28 27 0 27 -3 30 -27 28 -27 -2 -28 0 -28 43 0 48 -1 49 -47 28z m26 -88 c9
-10 8 -16 -4 -26 -19 -16 -41 1 -32 24 8 20 21 20 36 2z"/>
<path d="M308 705 c-28 -16 -48 -44 -48 -67 0 -19 71 -11 85 9 7 9 23 13 40
11 24 -2 31 -8 33 -29 3 -26 1 -27 -59 -31 -52 -4 -66 -9 -86 -32 -25 -30 -30
-81 -10 -107 32 -42 99 -51 141 -18 24 19 26 19 26 2 0 -14 8 -18 35 -19 l35
-1 0 118 c0 109 -2 120 -23 145 -20 23 -33 28 -83 31 -40 2 -68 -2 -86 -12z
m112 -179 c0 -13 -6 -29 -14 -35 -21 -18 -70 -10 -74 12 -7 35 6 47 48 47 35
0 40 -3 40 -24z"/>
<path d="M613 701 c-43 -27 -63 -69 -63 -134 0 -98 71 -160 165 -143 43 8 95
56 95 87 0 30 -57 26 -82 -6 -24 -31 -62 -32 -82 -3 -21 29 -20 107 0 136 21
30 65 26 79 -5 8 -18 18 -23 48 -23 38 0 39 1 32 28 -11 48 -48 75 -107 79
-41 3 -60 -1 -85 -16z"/>
<path d="M913 700 c-43 -26 -63 -68 -63 -132 0 -114 92 -177 195 -134 32 14
65 59 65 88 0 24 -67 9 -85 -18 -19 -29 -55 -31 -78 -6 -22 24 -23 110 -1 140
21 30 65 26 79 -5 8 -18 18 -23 47 -23 42 0 45 7 23 50 -30 58 -120 78 -182
40z"/>
<path d="M1225 710 c-11 -4 -31 -20 -45 -35 -21 -22 -25 -38 -28 -100 -4 -71
-3 -74 30 -110 27 -30 43 -38 81 -42 55 -6 99 9 127 45 30 37 26 52 -15 52
-24 0 -37 -6 -45 -20 -21 -40 -100 -14 -100 33 0 15 13 17 94 17 l94 0 -5 43
c-9 64 -19 85 -55 107 -34 21 -97 26 -133 10z m95 -60 c36 -36 26 -50 -35 -50
-42 0 -55 3 -55 15 0 19 36 55 55 55 8 0 24 -9 35 -20z"/>
<path d="M1470 718 c0 -2 -1 -67 -3 -146 l-2 -142 41 0 41 0 -5 88 c-5 99 4
128 43 138 46 11 55 -8 55 -122 l0 -104 41 0 41 0 -4 126 c-3 118 -4 127 -27
145 -35 29 -96 25 -126 -7 l-25 -27 0 27 c0 23 -4 26 -35 26 -19 0 -35 -1 -35
-2z"/>
<path d="M1971 618 c0 -57 5 -119 12 -138 21 -61 98 -80 142 -35 23 22 25 23
25 5 0 -17 7 -20 40 -20 l40 0 0 145 0 145 -40 0 -40 0 0 -103 c0 -90 -3 -106
-20 -122 -13 -12 -27 -15 -45 -11 -28 7 -27 2 -25 144 l1 92 -45 0 -46 0 1
-102z"/>
<path d="M2290 575 l0 -145 40 0 40 0 0 88 c0 99 12 122 63 122 25 0 27 3 27
40 0 34 -3 40 -21 40 -12 0 -34 -14 -50 -31 l-29 -31 6 31 c6 31 6 31 -35 31
l-41 0 0 -145z"/>
<path d="M2549 705 c-82 -45 -92 -210 -15 -260 62 -41 163 -26 197 29 26 42
25 46 -19 46 -26 0 -41 -6 -50 -20 -17 -28 -66 -27 -86 2 -31 43 -23 48 79 48
l95 0 0 36 c0 49 -24 96 -59 117 -35 20 -106 22 -142 2z m103 -52 c10 -9 18
-24 18 -35 0 -15 -8 -18 -56 -18 -53 0 -55 1 -49 23 14 45 55 59 87 30z"/>
</g>
</svg>
