<?xml version="1.0" standalone="no"?>
<!DOCTYPE svg PUBLIC "-//W3C//DTD SVG 20010904//EN"
 "http://www.w3.org/TR/2001/REC-SVG-20010904/DTD/svg10.dtd">
<svg version="1.0" xmlns="http://www.w3.org/2000/svg"
 width="1686.000000pt" height="1752.000000pt" viewBox="0 0 1686.000000 1752.000000"
 preserveAspectRatio="xMidYMid meet">
<metadata>
Created by potrace 1.10, written by Peter Selinger 2001-2011
</metadata>
<g transform="translate(0.000000,1752.000000) scale(0.100000,-0.100000)"
fill="#000000" stroke="none">
<path d="M0 17461 c0 -10 6 -24 14 -30 23 -19 109 -62 166 -83 30 -11 64 -28
75 -38 11 -10 38 -20 59 -23 22 -4 62 -17 90 -31 28 -14 72 -32 99 -41 26 -9
53 -22 60 -29 7 -7 30 -16 51 -20 21 -4 55 -17 75 -30 20 -12 62 -28 94 -36
56 -13 82 -30 59 -38 -29 -9 -8 -22 36 -22 35 0 56 -6 72 -20 13 -11 34 -20
47 -20 13 0 37 -7 52 -15 38 -19 112 -45 132 -45 9 0 40 -13 70 -29 30 -15 70
-32 89 -36 19 -4 53 -17 75 -30 22 -12 65 -30 95 -40 59 -19 75 -29 75 -48 1
-11 6 -12 33 -5 13 3 97 -24 112 -36 8 -7 39 -20 69 -30 30 -9 69 -28 87 -41
19 -15 46 -25 66 -25 42 0 84 -22 80 -42 -2 -12 11 -17 54 -22 32 -4 80 -18
108 -33 28 -14 67 -34 86 -43 20 -10 58 -21 85 -25 28 -4 58 -14 67 -22 9 -8
49 -25 90 -38 56 -18 74 -28 76 -43 3 -17 9 -20 36 -15 20 3 36 1 40 -6 4 -6
16 -11 28 -11 12 0 22 -8 25 -20 4 -15 11 -19 24 -15 21 7 135 -29 159 -49 8
-8 27 -16 42 -20 14 -3 47 -15 74 -26 43 -19 45 -22 29 -34 -16 -12 -11 -13
41 -12 58 0 154 -30 127 -41 -28 -10 -11 -23 30 -23 23 0 58 -8 77 -19 19 -10
53 -24 75 -31 22 -7 54 -20 70 -30 17 -10 52 -21 79 -25 34 -5 58 -15 77 -34
17 -17 38 -28 56 -28 15 0 60 -14 98 -30 39 -17 85 -34 103 -38 18 -4 37 -15
43 -26 5 -11 14 -17 19 -14 5 3 11 1 14 -4 3 -4 23 -11 44 -15 21 -3 55 -16
74 -29 19 -13 52 -27 74 -31 21 -4 52 -15 69 -24 16 -9 64 -28 105 -42 59 -21
74 -31 72 -45 -3 -14 1 -16 18 -12 13 3 75 -15 158 -48 75 -29 156 -58 179
-65 23 -7 54 -26 69 -42 20 -23 31 -28 50 -24 28 7 114 -26 114 -43 0 -6 13
-11 29 -11 16 0 50 -9 75 -20 35 -15 44 -23 39 -36 -5 -15 -1 -16 31 -11 51 8
134 -26 116 -48 -14 -17 0 -21 17 -4 8 8 25 7 62 -6 28 -9 53 -21 57 -26 7
-13 72 -39 95 -39 34 0 70 -22 64 -41 -6 -19 27 -32 61 -23 11 3 44 -7 74 -22
30 -15 104 -44 163 -65 59 -21 113 -42 120 -47 7 -6 32 -15 57 -22 25 -6 61
-20 80 -30 19 -10 58 -26 87 -35 29 -9 67 -27 86 -39 18 -13 52 -26 74 -29 23
-4 67 -20 100 -36 32 -15 78 -34 102 -42 24 -7 49 -18 55 -25 7 -6 28 -15 47
-19 54 -12 89 -33 83 -50 -5 -12 3 -15 38 -15 24 0 52 -6 63 -13 11 -8 40 -21
65 -31 25 -10 59 -24 75 -31 17 -7 53 -18 80 -25 51 -12 115 -45 115 -60 0 -4
8 -6 18 -3 10 2 56 -11 103 -30 46 -19 99 -38 117 -42 27 -6 67 -45 45 -45 -4
0 -2 -5 5 -12 8 -8 15 -8 25 0 16 14 69 1 132 -32 24 -13 59 -26 79 -30 19 -4
48 -17 63 -30 15 -13 46 -26 68 -30 51 -10 96 -33 92 -49 -1 -8 14 -13 43 -15
25 -1 72 -15 105 -31 92 -45 156 -70 198 -77 21 -4 45 -14 54 -22 9 -9 50 -28
92 -43 217 -78 233 -86 226 -110 -7 -21 5 -25 22 -8 10 10 97 -5 118 -22 16
-12 178 -79 191 -79 7 0 14 -7 18 -15 3 -8 17 -15 31 -15 32 0 104 -31 88 -37
-7 -3 -13 -9 -13 -15 0 -7 15 -8 39 -4 30 4 44 1 64 -14 14 -11 30 -20 35 -20
6 0 48 -15 94 -34 45 -18 106 -38 133 -45 28 -6 59 -22 70 -34 13 -13 34 -23
56 -24 19 -1 62 -15 94 -31 33 -16 74 -32 90 -36 17 -4 37 -14 45 -21 8 -7 35
-19 60 -25 24 -7 65 -23 91 -35 25 -13 75 -33 110 -45 35 -11 71 -30 81 -41 9
-11 29 -19 47 -19 17 0 39 -4 49 -9 9 -5 25 -12 34 -15 10 -3 15 -11 12 -19
-4 -10 8 -16 44 -20 27 -3 92 -26 143 -50 52 -24 112 -47 134 -50 21 -4 51
-15 66 -26 14 -11 45 -25 69 -31 24 -6 68 -23 99 -37 31 -14 74 -31 96 -38 22
-7 78 -30 125 -50 47 -21 117 -48 155 -62 41 -14 79 -34 90 -48 15 -19 31 -25
58 -25 43 0 92 -22 100 -45 4 -9 19 -15 39 -15 18 0 47 -7 63 -16 17 -9 54
-25 84 -35 30 -10 59 -23 66 -29 6 -5 39 -16 72 -24 76 -17 86 -23 80 -47 -6
-23 11 -36 19 -15 8 21 52 12 140 -30 39 -19 76 -34 83 -34 6 0 31 -10 54 -22
40 -21 41 -22 17 -28 -17 -4 -21 -8 -12 -14 7 -4 19 -3 27 4 18 15 116 -13
140 -40 10 -11 28 -20 39 -20 39 0 95 -21 125 -45 16 -14 42 -25 57 -25 29 -1
111 -39 86 -40 -7 0 -10 -5 -7 -10 4 -6 21 -8 39 -5 23 5 38 1 58 -14 14 -12
31 -21 37 -21 6 0 50 -15 98 -34 49 -18 106 -39 128 -46 22 -7 56 -23 75 -35
19 -12 52 -24 72 -28 22 -3 48 -17 62 -31 15 -17 34 -26 52 -26 41 0 76 -26
69 -51 -4 -10 -2 -19 4 -19 6 0 18 -14 26 -31 13 -24 14 -37 6 -61 -6 -17 -8
-34 -6 -39 3 -4 6 -602 6 -1329 0 -1270 0 -1323 18 -1373 38 -103 39 -98 -16
-92 -59 7 -186 47 -271 86 -35 16 -66 29 -69 29 -3 0 -19 7 -36 15 -32 14
-104 43 -187 74 -25 10 -71 30 -102 44 -31 15 -62 27 -68 27 -6 0 -35 11 -63
24 -29 14 -70 31 -92 39 -59 21 -292 115 -350 141 -27 13 -61 26 -75 30 -14 4
-34 11 -45 16 -31 14 -201 84 -306 125 -52 20 -127 52 -167 71 -41 19 -81 34
-90 34 -10 0 -36 11 -59 24 -23 13 -56 27 -74 31 -17 4 -53 18 -79 31 -26 13
-51 24 -55 24 -4 0 -21 7 -38 15 -18 8 -74 30 -126 50 -51 19 -98 38 -105 42
-6 4 -31 15 -56 24 -88 32 -186 72 -245 100 -11 5 -45 18 -75 28 -74 26 -201
80 -214 90 -6 5 -38 16 -71 26 -33 9 -67 23 -75 30 -8 7 -28 17 -45 21 -16 4
-51 18 -76 31 -26 13 -52 23 -59 23 -7 0 -26 6 -43 14 -18 8 -68 29 -111 47
-43 18 -86 40 -95 51 -19 22 -28 23 -47 3 -9 -8 -25 -15 -37 -15 -12 0 -33 -6
-47 -13 -14 -7 -50 -21 -80 -32 -53 -17 -75 -26 -157 -61 -21 -9 -54 -23 -73
-31 -19 -8 -48 -21 -63 -29 -16 -8 -35 -14 -44 -14 -8 0 -27 -6 -41 -14 -15
-8 -47 -22 -72 -31 -25 -10 -73 -30 -107 -46 -35 -16 -69 -29 -77 -29 -8 0
-27 -6 -43 -14 -39 -19 -88 -40 -153 -65 -78 -31 -101 -41 -133 -57 -16 -8
-37 -14 -47 -14 -9 0 -23 -7 -30 -15 -7 -8 -22 -15 -34 -15 -12 0 -30 -6 -41
-14 -11 -7 -48 -23 -83 -35 -34 -11 -70 -25 -80 -30 -42 -20 -187 -80 -287
-118 -22 -9 -55 -22 -72 -29 -18 -8 -48 -20 -65 -28 -18 -7 -53 -21 -78 -31
-57 -22 -107 -43 -143 -61 -16 -8 -35 -14 -42 -14 -7 0 -26 -6 -42 -14 -38
-18 -88 -40 -143 -61 -25 -9 -58 -23 -75 -30 -27 -11 -70 -29 -235 -95 -30
-12 -59 -26 -65 -31 -5 -5 -17 -9 -26 -9 -9 0 -44 -13 -77 -30 -34 -16 -68
-30 -76 -30 -8 0 -27 -6 -43 -14 -15 -7 -45 -21 -66 -30 -20 -8 -52 -22 -70
-29 -17 -8 -50 -21 -72 -30 -111 -42 -156 -60 -227 -91 -90 -40 -184 -76 -198
-76 -9 0 -20 -4 -25 -9 -6 -5 -35 -19 -65 -31 -30 -12 -68 -28 -85 -35 -16 -7
-50 -21 -75 -30 -25 -10 -60 -24 -77 -31 -18 -8 -48 -20 -65 -28 -18 -7 -53
-21 -78 -31 -25 -9 -58 -23 -73 -31 -16 -8 -37 -14 -47 -14 -9 0 -23 -7 -30
-15 -7 -8 -21 -15 -30 -15 -10 0 -31 -6 -47 -14 -38 -18 -88 -40 -143 -61 -44
-17 -78 -30 -143 -58 -17 -8 -52 -22 -77 -32 -25 -9 -58 -23 -75 -30 -16 -7
-50 -20 -75 -30 -25 -10 -60 -24 -77 -31 -18 -8 -48 -20 -65 -28 -18 -7 -53
-21 -78 -31 -25 -9 -58 -23 -73 -31 -16 -8 -35 -14 -42 -14 -7 0 -40 -14 -73
-30 -34 -16 -66 -30 -72 -30 -7 0 -24 -6 -38 -14 -15 -8 -47 -21 -72 -31 -25
-9 -58 -23 -75 -30 -16 -7 -55 -23 -85 -34 -30 -12 -66 -27 -80 -33 -142 -62
-234 -98 -247 -98 -8 0 -27 -6 -41 -14 -15 -7 -44 -21 -64 -30 -21 -9 -53 -22
-70 -30 -18 -8 -60 -24 -93 -37 -33 -13 -64 -27 -70 -31 -5 -4 -19 -8 -31 -8
-12 0 -27 -7 -34 -15 -7 -8 -21 -15 -31 -15 -10 0 -47 -13 -81 -29 -110 -51
-210 -91 -228 -91 -10 0 -23 -7 -30 -15 -7 -8 -18 -15 -26 -15 -7 0 -30 -7
-51 -16 -21 -9 -54 -23 -73 -31 -19 -8 -48 -21 -63 -29 -16 -8 -35 -14 -42
-14 -7 0 -27 -7 -44 -15 -17 -8 -45 -22 -62 -30 -17 -8 -35 -15 -41 -15 -9 0
-27 -7 -113 -45 -16 -7 -66 -27 -110 -45 -44 -18 -111 -45 -149 -61 -38 -16
-77 -29 -87 -29 -10 0 -21 -4 -24 -10 -7 -12 -93 -50 -112 -50 -8 0 -28 -7
-44 -15 -16 -8 -42 -22 -58 -30 -16 -8 -37 -15 -46 -15 -9 0 -29 -7 -43 -14
-27 -15 -43 -22 -152 -66 -30 -12 -59 -26 -65 -31 -5 -5 -18 -9 -28 -9 -10 0
-31 -6 -45 -13 -15 -8 -42 -21 -60 -30 -19 -9 -40 -17 -48 -17 -8 0 -43 -13
-77 -30 -35 -17 -69 -30 -75 -30 -6 0 -25 -8 -44 -17 -18 -9 -45 -22 -60 -30
-14 -7 -31 -13 -38 -13 -13 0 -65 -21 -113 -46 -16 -8 -37 -14 -47 -14 -9 0
-23 -7 -30 -15 -7 -8 -21 -15 -31 -15 -10 0 -20 -4 -24 -9 -3 -5 -20 -13 -38
-16 -17 -4 -43 -13 -57 -20 -14 -7 -45 -20 -70 -30 -46 -17 -80 -31 -140 -58
-108 -47 -185 -77 -200 -77 -10 0 -23 -7 -30 -15 -7 -8 -22 -15 -34 -15 -12 0
-26 -4 -31 -9 -9 -8 -71 -34 -160 -68 -68 -25 -149 -60 -210 -89 -37 -18 -45
-43 -20 -64 8 -7 15 -19 15 -26 0 -8 5 -14 10 -14 6 0 10 9 10 19 0 25 24 33
79 26 41 -5 44 -5 28 8 -9 8 -17 17 -17 20 0 3 23 13 52 23 39 13 56 14 69 6
19 -12 49 -6 49 8 0 5 -6 10 -12 13 -24 8 51 37 95 37 37 0 45 3 43 17 0 11 7
19 21 21 12 2 27 10 33 18 7 8 22 14 33 14 11 0 54 17 95 37 61 30 77 34 93
25 30 -19 71 -15 68 6 -3 33 1 40 32 52 24 10 35 10 54 0 35 -19 75 -6 75 25
0 27 25 45 62 45 13 0 55 12 93 26 39 14 87 30 108 36 30 8 35 13 26 24 -10
12 0 14 57 14 61 1 67 2 50 15 -10 7 -15 18 -12 24 12 20 84 32 122 22 36 -10
64 -6 64 10 0 5 -12 9 -27 9 l-28 0 33 20 c44 27 85 35 110 21 28 -15 57 -4
41 16 -21 25 14 48 71 47 35 0 50 4 50 13 0 23 89 56 135 50 38 -6 42 -4 52
23 13 36 83 61 114 42 27 -17 79 -15 79 3 0 8 -7 15 -16 15 -9 0 -14 7 -12 18
2 13 18 19 63 25 33 5 78 17 100 27 22 10 66 26 98 36 33 10 57 23 57 32 0 8
7 11 18 9 9 -3 37 -2 62 3 38 6 41 9 23 15 -13 4 -23 11 -23 16 0 16 26 23 94
23 58 1 71 4 71 17 0 34 27 51 74 48 64 -2 71 -1 71 16 0 10 10 15 28 15 21 0
24 2 12 10 -27 18 10 31 68 25 57 -7 82 4 82 36 0 24 31 32 88 24 40 -5 51 -3
66 13 17 19 17 21 0 30 -16 9 -15 10 5 17 12 3 40 4 61 0 43 -7 85 15 85 45 0
10 18 18 60 26 33 5 82 20 108 32 27 12 54 22 61 22 7 0 24 10 37 23 20 17 34
21 71 19 52 -3 90 11 82 32 -9 23 22 37 78 34 46 -3 53 -1 53 15 0 27 42 46
100 47 47 0 51 2 62 31 11 29 15 31 47 25 42 -8 86 2 86 19 0 23 31 39 83 40
66 3 124 30 107 50 -18 21 62 41 101 25 24 -10 33 -10 55 4 19 13 23 21 15 30
-15 18 -3 26 36 26 19 0 55 11 81 25 26 14 54 25 62 25 8 0 37 11 64 25 27 14
61 25 75 25 49 0 71 11 68 34 -2 18 3 21 31 18 34 -2 92 21 92 38 0 6 11 10
24 10 13 0 29 6 35 14 7 8 33 14 63 15 43 1 56 5 75 27 17 20 32 27 67 28 26
1 53 9 64 19 10 9 26 17 34 17 9 0 21 7 28 15 7 8 22 15 34 15 12 0 27 5 33
11 8 8 13 8 17 0 12 -19 24 -12 31 19 4 16 10 31 13 31 4 1 33 3 65 4 60 3 92
19 83 42 -5 13 29 27 55 22 8 -2 30 5 49 16 48 25 185 74 240 86 26 5 52 18
61 30 11 15 22 19 37 15 11 -4 23 -2 27 4 3 5 15 10 25 10 10 0 23 6 27 13 12
20 62 48 73 42 17 -11 94 16 131 45 26 20 46 28 73 27 27 -1 42 5 54 20 10 12
33 24 52 28 63 12 105 29 131 52 18 17 37 23 70 23 46 0 89 21 89 45 0 14 50
35 86 35 13 0 25 4 28 9 3 4 40 21 83 36 43 15 82 32 88 36 5 5 28 9 51 9 25
0 51 7 65 18 13 10 49 26 79 36 30 10 60 23 65 30 6 6 30 18 55 26 25 7 49 17
55 22 5 4 17 8 27 8 10 0 18 4 18 10 0 13 66 40 97 40 21 0 70 24 83 41 3 4
25 10 50 14 25 4 54 15 65 24 21 19 52 31 122 50 23 6 50 19 59 29 16 16 129
61 166 66 9 1 32 9 50 18 55 27 111 46 149 53 25 4 38 12 42 25 4 16 14 20 50
20 25 0 49 5 52 10 3 6 13 10 21 10 8 0 31 11 52 23 20 13 53 27 73 31 21 3
42 13 48 20 7 8 42 22 79 32 39 10 79 28 95 43 19 17 39 25 66 26 25 1 51 10
73 27 18 14 57 30 87 37 29 6 67 23 83 36 16 14 39 25 50 25 12 0 53 15 92 34
39 18 82 37 96 41 50 13 135 49 152 64 10 8 18 20 18 26 0 43 168 22 280 -35
19 -9 51 -21 70 -25 19 -4 46 -13 60 -20 68 -37 199 -95 211 -95 8 0 28 -8 44
-18 17 -10 41 -21 55 -24 28 -7 226 -89 280 -117 19 -10 49 -20 65 -24 17 -3
69 -24 117 -46 48 -23 91 -41 95 -41 5 0 31 -12 58 -25 28 -14 58 -25 68 -25
10 0 27 -5 39 -11 20 -11 107 -44 198 -76 25 -9 59 -26 75 -38 17 -12 44 -26
60 -29 17 -4 58 -21 91 -37 34 -16 68 -29 75 -29 8 0 28 -8 44 -18 17 -10 59
-28 95 -41 36 -12 77 -29 92 -37 15 -8 62 -26 105 -40 43 -15 89 -35 102 -45
13 -11 32 -19 43 -19 10 0 40 -11 66 -24 26 -13 72 -31 102 -41 30 -10 60 -21
65 -25 6 -4 42 -17 80 -29 39 -13 102 -41 141 -62 39 -21 79 -39 88 -39 10 0
74 -25 144 -56 70 -31 150 -63 177 -71 28 -9 55 -19 60 -23 6 -4 39 -20 75
-35 107 -45 149 -86 103 -101 -10 -3 -50 -21 -90 -40 -39 -19 -85 -34 -101
-34 -16 0 -37 -9 -47 -20 -10 -11 -34 -22 -54 -26 -20 -3 -67 -21 -106 -38
-38 -18 -85 -36 -103 -39 -19 -4 -47 -18 -64 -32 -16 -14 -42 -25 -57 -25 -16
0 -52 -13 -82 -28 -30 -16 -68 -32 -85 -35 -18 -3 -48 -17 -68 -31 -21 -14
-57 -28 -82 -32 -26 -4 -59 -18 -80 -35 -20 -16 -42 -29 -48 -29 -7 0 -54 -17
-106 -39 -52 -21 -126 -49 -165 -61 -38 -13 -81 -32 -94 -42 -13 -10 -34 -18
-47 -18 -31 0 -75 -17 -99 -39 -11 -10 -33 -21 -50 -24 -16 -2 -55 -15 -85
-27 -30 -12 -77 -28 -105 -36 -27 -8 -54 -20 -60 -27 -13 -16 -61 -37 -86 -37
-11 0 -37 -9 -57 -20 -64 -33 -128 -60 -144 -60 -9 0 -20 -9 -23 -21 -4 -12
-12 -18 -21 -15 -8 3 -22 1 -32 -4 -9 -5 -57 -26 -107 -46 -49 -20 -106 -44
-125 -54 -19 -10 -53 -21 -75 -25 -22 -4 -46 -15 -53 -24 -7 -9 -23 -17 -35
-18 -54 -5 -93 -17 -125 -40 -20 -13 -47 -26 -61 -29 -14 -3 -44 -14 -66 -24
-22 -11 -66 -28 -99 -39 -32 -10 -61 -23 -65 -28 -10 -16 -43 -30 -87 -36 -22
-4 -61 -17 -86 -31 -24 -13 -60 -27 -79 -30 -46 -10 -99 -38 -99 -53 0 -7 -19
-17 -42 -23 -63 -17 -119 -36 -153 -53 -57 -29 -106 -47 -124 -47 -10 0 -30
-9 -44 -20 -14 -11 -33 -20 -44 -20 -10 0 -31 -7 -47 -15 -15 -8 -33 -15 -40
-15 -6 0 -38 -14 -70 -30 -32 -17 -67 -30 -76 -30 -9 0 -33 -11 -52 -24 -19
-13 -56 -26 -82 -30 -25 -4 -54 -15 -64 -25 -20 -21 -74 -41 -109 -41 -13 0
-26 -7 -30 -15 -7 -19 -55 -40 -112 -50 -32 -5 -45 -13 -51 -31 -6 -14 -20
-26 -37 -29 -69 -13 -120 -27 -153 -42 -63 -27 -74 -31 -142 -54 -39 -12 -68
-27 -68 -35 0 -14 -41 -27 -119 -39 -24 -4 -59 -18 -79 -31 -19 -13 -49 -24
-66 -24 -36 0 -61 -13 -52 -28 3 -5 -7 -12 -22 -15 -104 -21 -117 -26 -141
-56 -24 -28 -31 -31 -83 -31 -45 0 -58 -3 -58 -15 0 -8 -7 -15 -15 -15 -8 0
-15 -6 -15 -14 0 -10 -18 -15 -61 -18 -59 -4 -82 -18 -73 -43 3 -8 -11 -15
-43 -19 -26 -3 -104 -29 -173 -56 -68 -28 -136 -50 -150 -50 -31 0 -55 -14
-47 -27 4 -6 -27 -18 -71 -28 -42 -10 -85 -26 -94 -36 -17 -18 -77 -39 -109
-39 -9 0 -22 -7 -29 -15 -7 -8 -19 -15 -26 -15 -8 0 -22 -4 -32 -9 -9 -6 -29
-12 -44 -16 -16 -3 -28 -12 -28 -20 0 -9 -9 -15 -21 -15 -11 0 -33 -6 -47 -14
-15 -8 -49 -18 -77 -23 -38 -6 -52 -14 -60 -30 -8 -20 -17 -23 -62 -23 -35 0
-57 -5 -68 -17 -16 -15 -16 -17 0 -26 14 -8 15 -11 4 -18 -8 -5 -26 -9 -40 -9
-33 0 -191 -50 -244 -78 -22 -11 -64 -23 -92 -27 -29 -4 -53 -11 -53 -16 0 -5
7 -9 15 -9 26 0 16 -18 -16 -29 -17 -6 -49 -8 -71 -5 -34 6 -40 4 -45 -15 -8
-30 -54 -52 -92 -45 -41 8 -84 -3 -78 -20 10 -24 -28 -49 -62 -41 -39 8 -74
-2 -67 -21 8 -20 -34 -41 -45 -23 -6 11 -11 11 -21 1 -6 -6 -24 -12 -39 -12
-41 0 -58 -10 -75 -42 -13 -25 -20 -29 -52 -27 -99 5 -135 -7 -115 -40 16 -26
5 -32 -55 -35 -26 -2 -66 -12 -89 -24 -23 -12 -47 -22 -52 -22 -6 0 -34 -11
-63 -24 -29 -13 -72 -26 -96 -29 -49 -6 -63 -14 -43 -26 24 -15 1 -32 -42 -31
-78 1 -86 0 -114 -11 -19 -7 -23 -13 -15 -18 7 -4 10 -14 7 -23 -4 -11 -22
-14 -70 -14 -63 1 -90 -8 -67 -23 9 -6 8 -11 -5 -23 -12 -11 -40 -16 -87 -17
-78 -1 -92 -7 -75 -27 21 -26 -6 -39 -79 -39 -67 0 -67 0 -64 -27 3 -34 -20
-42 -99 -33 -51 6 -60 5 -66 -10 -4 -11 0 -23 11 -30 24 -18 6 -27 -60 -31
-70 -4 -247 -72 -239 -92 4 -11 -3 -12 -35 -7 -52 9 -86 -1 -69 -21 20 -25 -6
-39 -74 -41 -34 -1 -66 -2 -70 -2 -4 -1 -7 -8 -5 -17 2 -9 -12 -24 -34 -37
-32 -19 -40 -20 -58 -9 -24 14 -63 7 -57 -11 2 -7 -6 -19 -17 -28 -26 -20
-109 -41 -116 -29 -13 20 -35 14 -35 -10 0 -16 -8 -28 -25 -36 -51 -24 -85
-30 -113 -20 -34 13 -56 -10 -29 -30 14 -10 13 -12 -7 -19 -12 -4 -44 -4 -71
0 -67 9 -125 -23 -68 -38 34 -9 16 -18 -68 -34 -43 -8 -94 -22 -113 -32 -20
-10 -53 -21 -73 -25 -42 -8 -57 -23 -37 -38 9 -6 -4 -8 -41 -4 -60 6 -97 -6
-70 -24 13 -8 12 -11 -5 -24 -28 -21 -84 -31 -98 -17 -13 13 -54 15 -62 2 -3
-6 3 -14 12 -20 17 -9 17 -11 -2 -25 -11 -9 -36 -15 -58 -14 -28 1 -41 -3 -52
-19 -19 -27 -104 -56 -139 -47 -19 4 -26 2 -26 -8 0 -8 -20 -24 -45 -36 -37
-18 -56 -21 -100 -16 -37 5 -55 3 -55 -4 0 -6 4 -13 10 -17 19 -12 -2 -33 -46
-45 -35 -10 -47 -10 -59 0 -15 12 -46 7 -44 -7 4 -23 -4 -34 -37 -48 -20 -8
-50 -15 -66 -15 -16 0 -39 -6 -51 -14 -12 -8 -52 -24 -89 -36 -37 -12 -72 -28
-79 -36 -7 -9 -31 -14 -68 -14 -52 -1 -55 -2 -36 -16 20 -15 20 -15 1 -30 -11
-8 -42 -14 -72 -14 -42 0 -53 -3 -57 -19 -3 -13 -23 -25 -63 -37 -33 -10 -70
-25 -83 -34 -23 -14 -59 -28 -211 -80 -36 -13 -72 -27 -80 -31 -67 -38 -91
-48 -125 -54 -22 -4 -63 -20 -91 -36 -28 -16 -59 -29 -67 -29 -9 0 -31 -6 -49
-14 -18 -8 -60 -25 -93 -37 -33 -13 -65 -27 -72 -32 -7 -5 -21 -6 -32 -2 -27
8 -51 -29 -51 -82 0 -45 9 -53 30 -28 7 8 19 15 27 15 8 0 27 6 41 14 15 8 47
21 72 31 46 17 78 30 143 59 21 9 44 16 51 16 8 0 19 7 26 15 7 8 20 15 29 15
9 0 29 7 45 15 15 8 34 15 41 15 8 0 26 6 42 14 40 19 86 39 178 76 44 17 93
38 108 46 16 8 35 14 44 14 8 0 27 6 41 14 35 18 86 40 142 61 44 17 78 31
142 59 18 8 60 24 93 37 33 13 64 27 69 31 6 4 18 8 27 8 9 0 44 14 77 30 34
17 65 30 71 30 5 0 22 6 38 14 15 8 48 22 73 31 55 20 105 42 143 61 16 8 33
14 39 14 6 0 40 14 75 30 34 16 70 30 79 30 9 0 28 6 42 14 38 19 85 39 177
76 44 17 93 38 108 46 16 8 37 14 47 14 9 0 23 7 30 15 7 8 21 15 31 15 11 0
27 4 37 9 39 21 109 51 119 51 6 0 38 14 71 30 34 16 69 30 79 30 11 0 24 5
30 11 11 11 60 31 173 70 19 6 42 16 50 20 8 5 22 12 30 15 8 3 29 12 45 19
17 7 50 21 75 30 55 21 106 42 143 61 16 8 35 14 42 14 7 0 40 13 73 30 34 17
67 30 75 30 7 0 22 7 33 15 10 8 27 15 37 15 11 0 31 6 45 14 15 8 63 28 107
46 96 38 140 57 178 76 16 8 35 14 42 14 7 0 40 13 73 30 34 16 68 30 77 30 9
0 29 6 43 13 15 8 44 21 65 30 20 10 52 23 70 31 17 8 59 25 92 37 33 13 64
27 70 31 5 4 19 8 31 8 12 0 27 7 34 15 7 8 19 15 28 15 8 0 44 13 79 30 34
16 70 30 79 30 9 0 28 6 42 13 35 18 86 40 142 62 25 10 59 23 75 30 17 8 66
28 110 45 44 17 94 37 110 45 17 7 50 20 75 30 47 18 79 31 143 59 21 9 44 16
51 16 8 0 19 7 26 15 7 8 20 15 30 15 10 0 51 14 91 31 41 17 89 38 107 45 17
8 47 20 65 28 17 7 50 20 72 29 108 40 132 50 157 63 14 8 35 14 46 14 12 0
24 4 27 10 6 10 91 50 107 50 11 0 67 23 111 46 16 8 35 14 42 14 7 0 26 7 42
15 27 13 101 46 153 67 14 5 38 16 53 24 16 8 35 14 44 14 8 0 27 6 41 14 15
8 47 21 72 31 56 21 107 43 143 61 16 8 35 14 42 14 7 0 26 6 42 14 37 19 88
40 143 61 44 16 76 29 143 58 17 8 52 22 77 32 25 9 63 25 85 35 22 10 61 25
87 34 26 9 56 20 65 25 18 10 54 25 133 56 25 9 57 23 72 31 14 8 32 14 39 14
6 0 41 14 76 30 34 17 68 30 74 30 6 0 23 6 37 13 15 8 42 21 60 30 19 9 41
17 51 17 9 0 25 6 36 13 11 8 49 24 85 37 36 13 69 27 75 32 5 4 17 8 26 8 9
0 22 7 29 15 7 8 22 15 33 15 11 0 49 14 84 30 34 17 69 30 77 30 8 0 41 13
74 30 34 16 66 30 72 30 7 0 24 6 38 14 15 8 52 24 82 36 76 29 100 40 133 56
16 8 35 14 42 14 7 0 40 13 73 30 34 16 65 30 69 30 11 0 122 46 130 54 3 3
16 6 28 6 13 0 28 7 35 15 7 8 18 15 25 15 13 0 137 50 188 76 16 8 35 14 42
14 7 0 26 6 42 14 44 22 181 79 238 98 17 6 37 15 45 19 16 10 21 12 85 36 22
8 53 21 68 29 16 8 33 14 39 14 5 0 26 7 46 16 21 8 53 22 72 31 19 8 48 21
63 29 16 8 33 14 39 14 11 0 66 23 111 46 16 8 35 14 44 14 8 0 27 6 41 14 39
20 138 62 212 91 25 9 59 23 75 30 17 7 66 27 110 45 44 17 93 38 108 46 16 8
36 14 46 14 9 0 21 4 26 9 9 8 44 23 168 72 51 20 71 28 132 54 17 7 66 27
110 45 44 17 93 38 108 46 16 8 35 14 44 14 8 0 27 6 41 13 35 18 88 41 137
60 99 38 151 60 160 68 5 5 17 9 26 9 9 0 44 14 77 30 34 17 65 30 71 30 6 0
27 7 48 16 77 33 99 42 143 59 55 21 129 53 152 66 10 5 26 9 37 9 10 0 24 7
31 15 7 8 21 15 32 15 11 0 32 6 46 14 44 23 99 46 112 46 7 0 24 6 38 14 39
20 140 63 212 91 25 9 58 23 73 31 16 8 35 14 42 14 7 0 40 14 73 30 34 17 66
30 72 30 6 0 21 5 33 12 26 15 80 36 122 48 17 5 48 15 70 23 l40 15 3 1543
c1 1131 -1 1545 -9 1555 -6 8 -21 14 -33 14 -12 0 -31 7 -42 15 -10 8 -29 15
-41 15 -12 0 -24 4 -27 9 -3 5 -18 12 -33 15 -27 6 -63 21 -126 52 -16 8 -34
14 -42 14 -7 0 -18 7 -25 15 -7 8 -21 15 -32 15 -11 0 -43 11 -71 24 -29 13
-63 27 -77 31 -14 3 -40 13 -57 21 -33 15 -74 32 -135 58 -18 8 -53 22 -78 31
-55 21 -105 43 -143 61 -16 8 -35 14 -42 14 -7 0 -28 8 -47 17 -18 9 -45 22
-60 30 -14 7 -33 13 -41 13 -9 0 -28 6 -44 14 -15 8 -44 21 -63 29 -19 8 -52
22 -73 31 -21 9 -42 16 -48 16 -8 0 -109 44 -161 71 -9 4 -45 18 -79 29 -35
12 -72 28 -83 36 -11 8 -29 14 -39 14 -10 0 -31 6 -45 14 -35 18 -86 40 -142
61 -53 20 -68 27 -134 54 -27 12 -54 21 -61 21 -7 0 -18 7 -25 15 -7 8 -21 15
-30 15 -10 0 -31 6 -47 14 -15 8 -48 22 -73 31 -55 20 -105 42 -143 61 -16 8
-35 14 -42 14 -7 0 -26 6 -42 14 -51 26 -175 76 -188 76 -7 0 -18 7 -25 15 -7
8 -20 15 -30 15 -20 0 -192 70 -262 106 -14 8 -33 14 -41 14 -9 0 -28 6 -44
14 -45 23 -100 46 -111 46 -6 0 -23 6 -39 14 -15 8 -45 21 -65 30 -21 9 -53
22 -70 30 -18 7 -51 20 -73 29 -99 38 -151 60 -159 68 -6 5 -19 9 -29 9 -10 0
-31 6 -45 14 -42 22 -99 46 -110 46 -6 0 -23 6 -39 14 -34 17 -75 35 -173 74
-164 65 -185 74 -194 83 -6 5 -18 9 -27 9 -10 0 -30 6 -46 14 -15 8 -48 22
-73 31 -54 20 -106 42 -142 61 -14 8 -33 14 -41 14 -9 0 -28 6 -44 14 -51 26
-175 76 -188 76 -7 0 -18 7 -25 15 -7 8 -21 15 -30 15 -10 0 -31 6 -47 14 -46
24 -100 46 -112 46 -6 0 -40 14 -74 30 -35 17 -70 30 -78 30 -8 1 -39 14 -69
30 -30 17 -60 30 -67 30 -13 0 -69 23 -115 46 -14 8 -33 14 -41 14 -9 0 -30 8
-49 17 -18 9 -45 22 -60 30 -14 7 -31 13 -38 13 -6 0 -38 14 -72 30 -33 17
-67 30 -75 30 -8 0 -27 6 -41 14 -43 23 -99 46 -111 46 -6 0 -39 13 -74 29
-34 16 -82 37 -107 46 -25 10 -58 23 -75 30 -16 7 -50 21 -75 30 -49 19 -68
27 -176 74 -39 17 -75 31 -81 31 -6 0 -24 6 -40 14 -36 17 -86 39 -143 61 -25
10 -58 23 -75 30 -16 7 -50 21 -75 30 -25 10 -60 24 -77 31 -18 8 -48 20 -65
28 -18 7 -53 21 -78 31 -57 22 -107 43 -143 61 -16 8 -35 14 -42 14 -7 0 -27
7 -44 15 -17 8 -45 22 -62 30 -17 8 -37 15 -45 15 -8 0 -42 14 -76 30 -33 17
-64 30 -68 30 -5 0 -38 14 -73 30 -36 17 -74 30 -84 30 -11 0 -23 4 -28 9 -6
5 -35 19 -65 31 -30 12 -68 28 -85 36 -16 7 -73 30 -125 50 -52 20 -99 40
-105 45 -5 5 -17 9 -26 9 -10 0 -30 6 -46 14 -36 18 -86 39 -143 61 -54 21
-106 43 -142 62 -14 7 -33 13 -41 13 -9 0 -28 6 -44 14 -15 8 -45 21 -65 30
-21 9 -53 22 -70 30 -18 7 -66 28 -107 45 -40 17 -79 31 -86 31 -8 0 -26 6
-42 14 -15 7 -45 21 -65 30 -21 9 -53 22 -70 30 -18 8 -51 21 -73 29 -102 38
-247 99 -297 124 -14 7 -33 13 -41 13 -9 0 -29 7 -46 15 -17 8 -45 22 -62 30
-17 8 -39 15 -49 15 -9 0 -23 7 -30 15 -7 8 -21 15 -31 15 -11 0 -27 4 -37 10
-28 15 -185 80 -194 80 -5 0 -36 14 -70 30 -33 17 -67 30 -75 30 -8 0 -41 14
-75 30 -33 17 -68 30 -78 30 -10 0 -23 7 -30 15 -7 8 -21 15 -30 15 -10 0 -31
6 -47 14 -15 8 -48 22 -73 31 -54 20 -106 42 -142 61 -14 8 -34 14 -44 14 -9
0 -25 6 -33 13 -9 7 -41 21 -71 31 -30 10 -65 25 -77 32 -12 8 -30 14 -39 14
-9 0 -28 6 -42 14 -35 18 -86 40 -142 61 -25 10 -58 23 -75 30 -16 8 -64 27
-105 43 -164 65 -185 74 -194 83 -6 5 -18 9 -27 9 -10 0 -32 8 -51 17 -18 9
-45 22 -60 30 -14 7 -33 13 -42 13 -9 0 -45 14 -79 30 -35 17 -71 30 -79 30
-9 0 -21 7 -28 15 -7 8 -21 15 -30 15 -10 0 -31 6 -47 14 -15 8 -48 22 -73 31
-25 10 -60 24 -77 31 -50 21 -100 43 -135 58 -18 8 -61 24 -96 37 -34 12 -65
26 -68 30 -3 5 -14 9 -24 9 -10 0 -31 6 -47 14 -15 8 -44 21 -63 29 -19 9 -51
23 -72 31 -20 9 -41 16 -46 16 -6 0 -25 8 -44 17 -18 9 -45 22 -60 30 -14 7
-35 13 -46 13 -11 0 -25 7 -32 15 -7 8 -20 15 -30 15 -15 0 -85 27 -200 78
-19 8 -48 21 -65 28 -16 6 -47 19 -68 28 -21 9 -42 16 -48 16 -6 0 -37 14 -71
30 -33 17 -66 30 -73 30 -7 0 -26 6 -42 14 -52 27 -189 76 -211 76 -15 0 -22
-6 -22 -19z"/>
<path d="M7 14493 c-20 -20 17 -73 50 -73 8 0 27 -6 41 -13 15 -8 42 -21 60
-30 19 -9 40 -17 47 -17 7 0 26 -6 42 -14 54 -28 173 -76 187 -76 7 0 19 -7
26 -15 7 -8 21 -15 31 -15 9 0 47 -13 82 -30 36 -16 70 -30 75 -30 16 0 101
-40 107 -50 3 -6 19 -10 34 -10 16 0 34 -7 41 -15 7 -8 20 -15 30 -15 15 0 56
-16 198 -76 52 -22 94 -40 135 -58 21 -9 42 -16 48 -16 6 0 37 -13 71 -30 33
-16 67 -30 75 -30 8 0 27 -6 41 -14 35 -18 86 -40 142 -61 25 -10 59 -23 75
-30 17 -7 50 -21 75 -30 25 -10 57 -23 72 -31 14 -8 31 -14 38 -14 6 0 38 -13
72 -30 33 -16 67 -30 75 -30 8 0 27 -6 41 -14 15 -8 47 -22 72 -31 25 -10 60
-24 77 -32 71 -30 101 -43 178 -73 44 -18 95 -38 113 -46 18 -8 39 -14 46 -14
8 0 19 -7 26 -15 7 -8 21 -15 30 -15 10 0 31 -6 47 -14 46 -24 100 -46 112
-46 6 0 40 -13 74 -30 35 -16 69 -30 75 -30 6 0 25 -8 44 -17 59 -29 66 -33
130 -54 35 -12 70 -28 79 -35 8 -8 27 -14 41 -14 14 0 31 -6 37 -14 6 -8 22
-16 34 -19 34 -8 106 -36 162 -63 29 -13 57 -24 63 -24 6 0 23 -7 39 -15 15
-8 64 -28 108 -45 81 -31 126 -51 178 -76 16 -8 35 -14 42 -14 7 0 26 -6 42
-14 15 -8 48 -22 73 -31 25 -10 61 -24 80 -33 19 -8 49 -20 65 -27 17 -6 46
-19 65 -27 19 -9 58 -24 85 -33 28 -10 59 -24 70 -32 11 -7 27 -13 36 -13 10
0 30 -6 46 -14 37 -19 81 -38 178 -76 44 -18 94 -38 110 -45 17 -7 50 -21 75
-30 25 -10 60 -24 78 -31 17 -8 49 -21 70 -30 20 -9 50 -22 65 -30 16 -8 37
-14 47 -14 10 0 22 -4 25 -10 3 -5 25 -15 48 -21 23 -6 67 -22 97 -36 70 -32
105 -47 155 -66 99 -38 151 -60 160 -68 5 -5 17 -9 26 -9 10 0 30 -6 46 -14
36 -18 87 -40 143 -61 25 -10 57 -23 72 -31 14 -8 33 -14 41 -14 9 0 28 -6 44
-14 32 -16 55 -26 133 -57 30 -11 71 -28 90 -37 69 -31 96 -42 188 -77 51 -19
101 -39 110 -44 34 -18 165 -71 174 -71 5 0 39 -13 75 -30 35 -16 70 -30 77
-30 8 0 19 -7 26 -15 7 -8 19 -15 28 -15 14 0 124 -40 209 -77 18 -7 48 -20
68 -29 189 -81 248 -104 265 -104 10 0 23 -7 30 -15 7 -8 18 -15 26 -15 7 0
30 -7 51 -16 64 -28 96 -41 143 -59 54 -21 106 -43 142 -62 14 -7 33 -13 42
-13 9 0 43 -13 76 -30 33 -16 68 -30 78 -30 11 0 25 -7 32 -15 7 -8 18 -15 26
-15 7 0 28 -6 46 -14 18 -8 53 -22 78 -31 25 -10 60 -24 77 -32 18 -7 49 -20
68 -28 19 -8 50 -21 68 -29 17 -8 60 -25 95 -37 34 -12 65 -26 68 -30 3 -5 14
-9 24 -9 10 0 31 -6 47 -14 15 -8 44 -21 63 -29 19 -9 51 -23 72 -31 20 -9 41
-16 46 -16 6 0 25 -7 44 -16 77 -38 90 -44 108 -44 9 0 23 -7 30 -15 7 -8 21
-15 32 -15 10 0 46 -13 80 -30 33 -16 66 -30 73 -30 7 0 28 -8 47 -17 18 -9
45 -22 60 -30 14 -7 33 -13 41 -13 9 0 28 -6 44 -14 15 -7 46 -21 68 -31 22
-9 53 -23 68 -31 16 -8 37 -14 47 -14 10 0 21 -4 24 -9 3 -5 38 -19 78 -32 40
-12 77 -26 82 -31 13 -11 96 -10 96 0 0 16 -153 105 -196 114 -24 5 -59 20
-78 33 -20 13 -55 29 -78 36 -52 13 -69 26 -61 45 4 11 -5 14 -39 14 -30 0
-65 10 -104 29 -32 17 -102 44 -154 61 -52 18 -99 36 -105 40 -13 10 -139 60
-152 60 -6 0 -22 9 -36 20 -14 11 -29 19 -34 18 -19 -5 -79 16 -90 32 -7 10
-32 20 -55 24 -24 4 -70 19 -103 35 -33 15 -87 37 -120 48 -44 15 -59 24 -57
36 2 14 -5 17 -36 17 -61 0 -104 18 -97 41 4 12 1 19 -7 20 -7 0 -32 2 -55 4
-23 2 -52 10 -65 19 -12 9 -28 16 -35 16 -7 0 -41 13 -75 29 -35 16 -80 32
-100 35 -21 4 -63 20 -94 36 -31 17 -63 30 -73 30 -9 0 -34 10 -56 23 -22 13
-73 33 -113 46 -46 14 -76 30 -83 43 -8 15 -17 18 -36 13 -17 -4 -40 2 -72 18
-25 13 -75 34 -111 47 -36 12 -72 28 -80 35 -8 7 -39 20 -69 29 -30 9 -61 22
-70 30 -16 14 -138 63 -296 120 -49 17 -96 35 -103 39 -6 5 -44 19 -82 32 -39
13 -83 33 -98 43 -15 10 -45 22 -66 25 -21 3 -56 18 -77 32 -21 14 -49 25 -61
25 -34 0 -93 35 -90 53 2 12 -5 14 -35 10 -30 -4 -52 2 -106 31 -37 20 -79 36
-92 36 -14 0 -39 13 -57 30 -21 20 -41 30 -62 30 -17 0 -41 7 -52 15 -18 12
-89 40 -254 97 -98 34 -196 79 -210 97 -11 12 -29 18 -57 18 -25 0 -62 12 -99
31 -32 16 -80 35 -106 42 -26 7 -53 18 -59 26 -6 7 -27 18 -47 24 -69 21 -112
43 -112 58 0 9 -6 12 -16 8 -17 -7 -91 11 -111 27 -7 5 -11 14 -10 20 1 6 -22
14 -52 19 -30 5 -59 12 -65 17 -6 5 -42 21 -81 36 -38 14 -74 30 -79 35 -6 6
-24 10 -41 10 -28 0 -72 19 -135 55 -14 8 -37 15 -52 15 -14 0 -41 12 -58 27
-20 16 -51 29 -82 34 -28 5 -65 19 -83 34 -19 14 -44 25 -57 25 -13 0 -54 16
-93 35 -38 19 -79 35 -91 35 -12 0 -38 12 -59 26 -21 14 -55 28 -74 31 -48 8
-91 30 -91 48 0 11 -11 15 -39 15 -22 0 -44 6 -51 15 -7 8 -17 15 -24 15 -6 0
-49 15 -96 34 -47 18 -107 38 -135 45 -27 7 -57 18 -65 25 -8 8 -26 17 -40 20
-29 8 -69 25 -90 37 -8 5 -22 12 -30 15 -8 3 -24 10 -35 14 -11 5 -37 14 -58
20 -21 7 -43 20 -50 31 -8 13 -23 19 -47 19 -19 0 -60 12 -90 26 -30 14 -77
34 -105 44 -27 10 -76 30 -108 44 -32 14 -66 26 -76 26 -24 0 -47 26 -29 33
25 8 1 18 -48 18 -27 1 -56 7 -64 13 -19 16 -160 71 -220 86 -25 7 -59 20 -76
31 -17 10 -62 28 -100 40 -38 11 -76 29 -86 40 -9 10 -28 19 -43 19 -35 0
-111 35 -119 56 -4 11 -13 14 -30 10 -31 -8 -74 8 -108 41 -18 17 -32 23 -47
18 -13 -4 -44 5 -86 25 -36 17 -88 38 -115 46 -52 15 -58 22 -38 42 9 9 -2 12
-49 12 -34 0 -64 4 -68 9 -8 15 -100 54 -200 86 -49 16 -97 34 -105 41 -8 6
-41 19 -74 28 -32 10 -69 29 -83 42 -16 16 -33 24 -45 21 -20 -6 -82 16 -108
37 -8 7 -40 18 -71 25 -65 14 -108 39 -88 52 23 14 3 20 -25 8 -20 -9 -32 -9
-51 -1 -29 13 -58 15 -68 5z"/>
</g>
</svg>
