<svg xmlns="http://www.w3.org/2000/svg" viewBox="0 0 200 200"><path d="M125 54.554c-37.742 8.098-74.486 38.827-78.509 65.658-1.566 10.444 4.682 21.298 15.717 27.304l5.284 2.877-3.78-4.416c-5.122-5.984-8.535-13.342-9.307-20.064C51.09 97.053 94.481 60.684 139.5 54.59l10-1.354-9-.039c-4.95-.021-11.925.59-15.5 1.357m25.813.129c.721.289 1.584.253 1.916-.079.332-.332-.258-.568-1.312-.525-1.165.048-1.402.285-.604.604M126.5 72.093c-21.614.841-32.03 2.395-36.75 5.483-4.815 3.149-4.728 3.349 1 2.278 26.903-5.031 67.308-6.114 88.104-2.363 1.455.263.621-.202-1.854-1.033-11.707-3.931-27.221-5.272-50.5-4.365m-74 12.973C11.001 99.026.941 114.384 25.268 126.635c7.054 3.552 10.142 3.99 5.172.734-1.503-.985-4.017-3.564-5.587-5.73-8.599-11.871 1.546-23.846 27.255-32.171C59.99 86.915 69.625 81.071 66 81.042c-.825-.007-6.9 1.804-13.5 4.024m71.858 4.626c-1.784.349-2.255 1.368-2.82 6.113-.374 3.132-1.537 11.32-2.585 18.195s-2.113 13.963-2.366 15.75c-.458 3.227-.431 3.25 3.764 3.25h4.226l2.757-19.75c1.516-10.862 2.97-20.763 3.231-22 .492-2.338-.699-2.637-6.207-1.558m15.698.252c-.991.627-2.305 6.812-4.192 19.735-3.644 24.949-3.72 23.321 1.091 23.321 3.684 0 3.991-.222 4.492-3.25 1.07-6.463 5.553-38.404 5.553-39.562 0-1.395-4.855-1.565-6.944-.244m15.397 2.488c-3.016 4.603.512 8.131 5.115 5.115 3.568-2.338 3.099-6.912-.755-7.357-1.981-.229-3.128.361-4.36 2.242m-60.203.257c-1.237.247-2.25.777-2.25 1.177s-4.662 9.132-10.359 19.404c-5.698 10.273-10.123 18.914-9.834 19.204 2.384 2.383 6.328.257 9.303-5.015l3.128-5.542 7.051.292c7.668.317 7.384.066 9.143 8.041.538 2.442 1.055 2.75 4.618 2.75 5.509 0 5.51-.034.173-21.5-5.062-20.364-4.87-20.034-10.973-18.811m79.723 6.962c-6.537 4.365-10.52 9.349-7.473 9.349 1.812 0 1.852 1.277.345 11.178-1.559 10.24-.158 12.822 6.956 12.822 5.009 0 9.199-2.084 9.199-4.576 0-1.062-.687-1.29-2.513-.831-5.212 1.308-6.644-3.097-4.404-13.544 1.067-4.977 1.136-5.049 4.839-5.049 3.037 0 3.975-.479 4.896-2.5 1.125-2.47 1.083-2.5-3.464-2.5-4.582 0-4.601-.014-4.004-3 .696-3.482-.59-3.878-4.377-1.349m-83.409 9.222c-4.402 8.742-4.499 8.127 1.269 8.127 6.212 0 6.153.1 4.512-7.728-1.81-8.637-1.639-8.625-5.781-.399m62.519-3.946c-.89.564-1.863 4.367-2.617 10.235-.659 5.136-1.524 11.25-1.92 13.588l-.722 4.25h3.529c1.941 0 3.821-.473 4.179-1.051.52-.842 4.357-24.318 4.445-27.199.032-1.046-5.173-.912-6.894.177m-72.117 38.632c-1.749 3.058-2.918 5.822-2.597 6.143.321.322.868-.155 1.214-1.059.83-2.161 4.322-2.1 6.129.107 1.29 1.577 1.375 1.416.86-1.625-.315-1.856-.572-4.669-.572-6.25 0-4.3-1.493-3.504-5.034 2.684m10.013-1.309c-.604 2.338-1.327 5.037-1.606 6-.279.963-.058 1.75.492 1.75s1.223-.787 1.495-1.75c.962-3.408 1.808-10.25 1.266-10.25-.302 0-1.043 1.912-1.647 4.25m4.649-.5c-.345 2.063-.919 4.875-1.275 6.25-.359 1.385-.264 2.144.214 1.702.748-.692 3.264-8.824 3.389-10.952.153-2.605-1.814-.069-2.328 3m78.09-3.067c-.266.45-.794 2.392-1.175 4.317-.381 1.925-.914 4.287-1.185 5.25-.271.963-.088 1.75.407 1.75.496 0 1.376-2.588 1.957-5.75 1.017-5.536 1.016-7.293-.004-5.567m3.782.317c-.34.55.084 1 .941 1 1.771 0 1.869.958.64 6.25-.479 2.063-.495 3.75-.037 3.75s1.146-2.083 1.528-4.628c.497-3.318 1.222-4.767 2.561-5.117 1.027-.269 1.867-.886 1.867-1.372 0-1.221-6.738-1.117-7.5.117m-94.893 3.582c-.96 2.502-.721 3.418.893 3.418.933 0 1.5-.944 1.5-2.5 0-2.793-1.459-3.353-2.393-.918m21.91 3.656c.593 4.787.443 5.84-.903 6.357-.888.34-1.614 1.043-1.614 1.562 0 .567.632.589 1.585.055 1.877-1.05 8.926-13.212 7.658-13.212-.48 0-1.703 1.688-2.718 3.75l-1.846 3.75-.723-3.301c-1.241-5.659-2.184-4.979-1.439 1.039m10.315-4.017c-2.526 1.982-3.131 5.337-1.295 7.174 3.068 3.067 6.757.263 6.267-4.762-.335-3.438-2.393-4.436-4.972-2.412m8.775.361c-.334.87-.607 2.92-.607 4.555 0 5.043 6.136 3.686 7.234-1.6.836-4.024.25-6.192-.792-2.93-2.466 7.717-5.954 9.447-4.826 2.393.646-4.041.108-5.33-1.009-2.418m15.964-.011c-2.102 2.103-2.042 7.034.096 7.855.917.352 2.155.143 2.75-.465.781-.795.708-1.014-.26-.782-2.583.618-3.762-2.853-1.731-5.097 1.013-1.119 2.231-1.794 2.708-1.499.476.294.866.058.866-.524 0-1.583-2.639-1.277-4.429.512m7.38.52c-2.099 3.923-.833 7.451 2.542 7.083 3.598-.392 3.143.148 3.936-4.674.641-3.902.583-4.005-2.373-4.209-2.149-.148-3.342.375-4.105 1.8m10.739-1.341c-1.048 1.838-1.797 8.701-.846 7.75 1.111-1.111 2.698-8.5 1.826-8.5-.303 0-.744.338-.98.75m2.827.222c-.366.593-.07.954.659.803.959-.199 1.247.828 1.044 3.725-.226 3.244-.073 3.664.814 2.224.602-.976.953-2.966.78-4.422-.334-2.814-2.188-4.124-3.297-2.33m-12.01 2.377c-1.773 2.705-1.34 4.651 1.033 4.651 1.777 0 3.077-4.783 1.68-6.18-.712-.712-1.557-.235-2.713 1.529m-34.115 1.224c-.902 3.595 1.239 5.609 3.175 2.986 2.087-2.827 1.817-5.559-.548-5.559-1.294 0-2.205.892-2.627 2.573" fill-rule="evenodd"/></svg>