<?xml version="1.0" standalone="no"?>
<!DOCTYPE svg PUBLIC "-//W3C//DTD SVG 20010904//EN"
 "http://www.w3.org/TR/2001/REC-SVG-20010904/DTD/svg10.dtd">
<svg version="1.0" xmlns="http://www.w3.org/2000/svg"
 width="200.000000pt" height="200.000000pt" viewBox="0 0 200.000000 200.000000"
 preserveAspectRatio="xMidYMid meet">
<metadata>
Created by potrace 1.10, written by Peter Selinger 2001-2011
</metadata>
<g transform="translate(0.000000,200.000000) scale(0.100000,-0.100000)"
fill="#000000" stroke="none">
<path d="M1330 1470 c-317 -32 -696 -282 -828 -549 -32 -65 -36 -83 -37 -150
0 -88 20 -134 82 -192 36 -34 121 -89 137 -89 5 0 -17 27 -47 60 -55 59 -78
109 -92 195 -13 86 40 222 124 318 104 119 212 200 371 278 174 85 298 114
453 107 91 -5 98 -4 62 7 -54 16 -146 22 -225 15z"/>
<path d="M1185 1280 c-171 -13 -255 -30 -297 -57 -21 -14 -36 -28 -34 -30 3
-3 27 0 55 6 82 17 294 39 451 46 153 7 341 -5 445 -30 75 -17 82 -12 16 10
-158 52 -406 74 -636 55z"/>
<path d="M525 1151 c-320 -109 -449 -217 -390 -330 16 -33 84 -79 170 -116
l60 -25 -40 32 c-90 74 -116 122 -100 185 18 73 115 142 280 199 69 24 121 49
147 71 22 18 34 33 26 33 -7 -1 -76 -22 -153 -49z m-331 -249 c-4 -13 -11 -19
-18 -15 -8 5 -8 3 0 -8 7 -8 8 -22 4 -34 -6 -16 -9 -17 -13 -5 -14 41 -15 62
-1 67 8 3 14 12 14 21 0 10 3 13 10 6 5 -5 7 -19 4 -32z"/>
<path d="M1238 1103 c-10 -2 -18 -9 -18 -14 0 -5 -13 -99 -30 -209 -16 -110
-30 -203 -30 -208 0 -4 20 -6 45 -4 25 2 45 8 45 12 0 4 14 101 30 215 17 114
30 209 30 211 0 5 -50 3 -72 -3z"/>
<path d="M1395 1102 c-6 -4 -24 -103 -41 -219 l-30 -213 48 0 c46 0 48 1 48
29 0 16 11 107 25 202 32 221 32 209 -7 209 -18 0 -38 -4 -43 -8z m33 -79 c2
-20 -1 -24 -9 -16 -7 7 -9 19 -6 27 9 23 12 20 15 -11z m-16 -95 c-2 -24 -7
-46 -11 -50 -7 -8 -3 55 4 80 8 23 11 12 7 -30z m-31 -201 c-13 -13 -15 31 -3
60 5 14 8 10 10 -16 2 -18 -1 -38 -7 -44z"/>
<path d="M1556 1085 c-29 -29 -14 -75 24 -75 25 0 52 35 48 62 -4 29 -48 37
-72 13z"/>
<path d="M944 1072 c-9 -6 -224 -387 -224 -397 0 -3 17 -5 38 -5 35 0 39 3 66
55 l29 56 71 -3 71 -3 10 -50 11 -50 47 -3 c33 -2 47 1 47 10 0 7 -21 100 -47
206 l-47 192 -30 0 c-17 0 -36 -4 -42 -8z m56 -91 l-1 -36 -14 26 c-8 15 -22
30 -32 34 -17 6 -17 7 1 21 27 19 46 1 46 -45z m-16 -126 c6 -24 5 -25 -49
-25 -30 0 -55 2 -55 5 0 3 17 38 37 78 l37 72 12 -53 c7 -29 15 -64 18 -77z
m36 41 c0 -26 -6 -18 -14 19 -5 22 -4 26 4 15 5 -8 10 -24 10 -34z m25 -65 c3
-11 7 -38 8 -60 0 -22 4 -38 8 -35 4 2 5 -5 2 -17 -5 -19 -7 -18 -19 11 -8 18
-14 37 -14 42 0 5 -10 19 -22 30 -13 11 -18 17 -11 14 6 -4 14 3 18 14 8 25
22 26 30 1z"/>
<path d="M1764 1014 c-17 -8 -48 -33 -69 -54 -36 -37 -38 -41 -21 -53 16 -12
17 -19 5 -93 -15 -98 -9 -128 30 -143 52 -22 131 6 131 46 0 11 -7 13 -28 8
-43 -9 -56 13 -48 82 12 100 13 103 57 103 28 0 41 5 49 19 15 30 14 31 -35
31 l-46 0 7 35 c7 40 9 39 -32 19z m7 -82 c-6 -2 -9 -7 -7 -10 2 -4 -2 -13 -9
-19 -11 -10 -17 -10 -30 3 -14 15 -14 18 6 35 18 15 25 17 37 7 9 -8 10 -14 3
-16z m-38 -123 c-3 -32 -2 -66 2 -76 14 -31 14 -42 0 -37 -7 3 -16 13 -20 22
-8 22 6 177 15 162 4 -7 5 -39 3 -71z"/>
<path d="M1526 948 c-2 -7 -9 -59 -16 -115 -6 -56 -15 -115 -20 -132 l-9 -31
44 0 c42 0 44 2 50 33 9 53 35 236 35 247 0 15 -80 12 -84 -2z"/>
<path d="M925 618 c-14 -46 -26 -120 -21 -126 11 -10 24 17 31 66 4 24 9 51
12 58 3 8 0 14 -6 14 -7 0 -13 -6 -16 -12z"/>
<path d="M959 560 c-20 -91 -1 -88 22 3 12 47 13 67 5 67 -6 0 -18 -32 -27
-70z"/>
<path d="M813 558 c-32 -61 -36 -95 -6 -50 19 28 53 30 53 2 0 -11 5 -20 10
-20 6 0 10 12 10 28 0 50 -12 102 -24 102 -6 0 -26 -28 -43 -62z m47 12 c0
-11 -7 -20 -15 -20 -13 0 -14 4 -5 20 6 11 13 20 15 20 3 0 5 -9 5 -20z"/>
<path d="M1730 563 c-7 -32 -14 -61 -17 -65 -2 -5 2 -8 10 -8 9 0 18 20 26 57
13 68 14 73 2 73 -5 0 -15 -26 -21 -57z"/>
<path d="M1780 610 c0 -5 7 -10 16 -10 10 0 14 -6 10 -17 -3 -10 -8 -35 -12
-55 -10 -61 13 -45 26 17 9 44 15 55 31 55 10 0 19 5 19 10 0 6 -20 10 -45 10
-25 0 -45 -4 -45 -10z"/>
<path d="M1051 545 c9 -50 4 -75 -17 -75 -8 0 -14 -4 -14 -10 0 -5 9 -10 20
-10 14 0 29 18 52 63 43 81 41 77 29 77 -6 0 -19 -17 -30 -37 l-20 -38 -1 38
c0 24 -5 37 -14 37 -11 0 -12 -9 -5 -45z"/>
<path d="M1146 568 c-20 -28 -20 -52 -1 -68 21 -18 48 -8 63 22 26 55 -29 94
-62 46z m48 -6 c3 -5 2 -18 -1 -30 -7 -27 -43 -30 -43 -4 0 29 32 54 44 34z"/>
<path d="M1239 555 c-1 -19 -2 -41 -3 -47 -1 -8 12 -13 33 -13 33 1 36 4 47
48 9 37 9 47 0 47 -7 0 -17 -17 -22 -37 -5 -23 -15 -38 -24 -38 -16 0 -16 4
-6 48 5 20 3 27 -9 27 -10 0 -15 -11 -16 -35z"/>
<path d="M1394 565 c-27 -42 0 -88 42 -70 18 8 17 9 -4 13 -32 5 -28 55 6 60
30 5 28 22 -3 22 -15 0 -31 -9 -41 -25z"/>
<path d="M1482 577 c-31 -40 -16 -86 27 -85 26 1 30 5 38 48 l10 47 -33 1
c-18 1 -36 -4 -42 -11z m48 -25 c0 -19 -18 -42 -32 -42 -10 0 -11 44 -1 53 13
14 33 7 33 -11z"/>
<path d="M1577 556 c-3 -17 -8 -39 -12 -48 -5 -13 -2 -18 9 -18 10 0 16 8 16
21 0 26 18 59 32 59 7 0 8 -14 4 -40 -7 -42 10 -58 19 -17 14 66 10 77 -29 75
-30 -1 -35 -5 -39 -32z"/>
</g>
</svg>
