<?xml version="1.0" encoding="UTF-8"?>
<svg xmlns="http://www.w3.org/2000/svg" xmlns:xlink="http://www.w3.org/1999/xlink" width="287.85pt" height="182.34pt" viewBox="0 0 287.85 182.34" version="1.1">
<defs>
<clipPath id="clip1">
  <path d="M 258 117 L 287.851563 117 L 287.851563 147 L 258 147 Z M 258 117 "/>
</clipPath>
<clipPath id="clip2">
  <path d="M 19 160 L 39 160 L 39 182.339844 L 19 182.339844 Z M 19 160 "/>
</clipPath>
<clipPath id="clip3">
  <path d="M 41 160 L 54 160 L 54 182.339844 L 41 182.339844 Z M 41 160 "/>
</clipPath>
<clipPath id="clip4">
  <path d="M 57 160 L 70 160 L 70 182.339844 L 57 182.339844 Z M 57 160 "/>
</clipPath>
<clipPath id="clip5">
  <path d="M 118 160 L 131 160 L 131 182.339844 L 118 182.339844 Z M 118 160 "/>
</clipPath>
<clipPath id="clip6">
  <path d="M 152 160 L 167 160 L 167 182.339844 L 152 182.339844 Z M 152 160 "/>
</clipPath>
<clipPath id="clip7">
  <path d="M 168 160 L 188 160 L 188 182.339844 L 168 182.339844 Z M 168 160 "/>
</clipPath>
<clipPath id="clip8">
  <path d="M 199 160 L 216 160 L 216 182.339844 L 199 182.339844 Z M 199 160 "/>
</clipPath>
<clipPath id="clip9">
  <path d="M 252 160 L 270 160 L 270 182.339844 L 252 182.339844 Z M 252 160 "/>
</clipPath>
</defs>
<g id="surface1">
<path style=" stroke:none;fill-rule:nonzero;fill:rgb(13.699341%,12.199402%,12.5%);fill-opacity:1;" d="M 165.867188 143.804688 L 155.453125 143.804688 L 155.453125 132.746094 L 163.339844 132.746094 L 163.339844 136.046875 L 165.871094 136.046875 L 165.871094 127.058594 L 163.339844 127.058594 L 163.339844 130.296875 L 155.453125 130.296875 L 155.453125 119.773438 L 165.464844 119.773438 L 165.464844 123.441406 L 167.960938 123.441406 L 167.960938 116.082031 L 165.429688 116.082031 L 165.429688 117.289063 L 147.199219 117.289063 L 147.199219 119.386719 L 150.53125 119.386719 L 150.53125 144.132813 L 147.199219 144.132813 L 147.199219 146.230469 L 168.40625 146.230469 L 168.40625 140.003906 L 165.867188 140.003906 "/>
<g clip-path="url(#clip1)" clip-rule="nonzero">
<path style=" stroke:none;fill-rule:nonzero;fill:rgb(13.699341%,12.199402%,12.5%);fill-opacity:1;" d="M 278.429688 117.289063 L 278.429688 119.394531 L 281.804688 119.394531 L 281.804688 137.921875 L 266.378906 117.390625 L 266.300781 117.289063 L 258.613281 117.289063 L 258.613281 119.394531 L 261.808594 119.394531 L 262.878906 120.859375 L 262.878906 144.132813 L 259.511719 144.132813 L 259.511719 146.230469 L 268.972656 146.230469 L 268.972656 144.132813 L 265.589844 144.132813 L 265.589844 124.453125 L 282.261719 146.703125 L 284.53125 146.703125 L 284.53125 119.394531 L 287.855469 119.394531 L 287.855469 117.289063 "/>
</g>
<path style=" stroke:none;fill-rule:nonzero;fill:rgb(13.699341%,12.199402%,12.5%);fill-opacity:1;" d="M 239.933594 144.046875 C 234.367188 144.046875 230.484375 138.996094 230.484375 131.765625 C 230.484375 124.554688 234.386719 119.519531 239.96875 119.519531 C 245.429688 119.519531 249.242188 124.554688 249.242188 131.765625 C 249.242188 138.996094 245.414063 144.046875 239.933594 144.046875 M 239.933594 116.765625 C 231.746094 116.765625 225.085938 123.511719 225.085938 131.800781 C 225.085938 140.066406 231.746094 146.789063 239.933594 146.789063 C 248.042969 146.789063 254.640625 140.050781 254.640625 131.765625 C 254.640625 123.492188 248.042969 116.765625 239.933594 116.765625 "/>
<path style=" stroke:none;fill-rule:nonzero;fill:rgb(13.699341%,12.199402%,12.5%);fill-opacity:1;" d="M 123 138.203125 L 112.902344 117.289063 L 104.636719 117.289063 L 104.636719 119.386719 L 108 119.386719 L 108 144.132813 L 104.636719 144.132813 L 104.636719 146.230469 L 114.101563 146.230469 L 114.101563 144.132813 L 110.726563 144.132813 L 110.726563 123.808594 L 121.894531 146.988281 L 132.519531 124.3125 L 132.519531 144.132813 L 129.203125 144.132813 L 129.203125 146.230469 L 140.773438 146.230469 L 140.773438 144.132813 L 137.433594 144.132813 L 137.433594 119.386719 L 140.773438 119.386719 L 140.773438 117.289063 L 132.917969 117.289063 "/>
<path style=" stroke:none;fill-rule:nonzero;fill:rgb(13.699341%,12.199402%,12.5%);fill-opacity:1;" d="M 193.878906 143.804688 L 183.980469 143.804688 L 183.980469 119.386719 L 187.304688 119.386719 L 187.304688 117.289063 L 175.730469 117.289063 L 175.730469 119.386719 L 179.066406 119.386719 L 179.066406 144.132813 L 175.730469 144.132813 L 175.730469 146.230469 L 196.425781 146.230469 L 196.425781 140.003906 L 193.878906 140.003906 "/>
<path style=" stroke:none;fill-rule:nonzero;fill:rgb(13.699341%,12.199402%,12.5%);fill-opacity:1;" d="M 219.464844 143.804688 L 209.554688 143.804688 L 209.554688 119.386719 L 212.882813 119.386719 L 212.882813 117.289063 L 201.308594 117.289063 L 201.308594 119.386719 L 204.632813 119.386719 L 204.632813 144.132813 L 201.308594 144.132813 L 201.308594 146.230469 L 221.992188 146.230469 L 221.992188 140.003906 L 219.464844 140.003906 "/>
<path style=" stroke:none;fill-rule:nonzero;fill:rgb(13.699341%,12.199402%,12.5%);fill-opacity:1;" d="M 78.035156 119.386719 L 81.875 119.386719 L 75.398438 129.757813 L 68.425781 119.386719 L 71.925781 119.386719 L 71.925781 117.289063 L 59.953125 117.289063 L 59.953125 119.386719 L 62.621094 119.386719 L 71.714844 132.960938 L 71.714844 144.132813 L 68.390625 144.132813 L 68.390625 146.230469 L 79.960938 146.230469 L 79.960938 144.132813 L 76.578125 144.132813 L 76.578125 132.691406 L 84.996094 119.386719 L 87.40625 119.386719 L 87.40625 117.289063 L 78.035156 117.289063 "/>
<path style=" stroke:none;fill-rule:nonzero;fill:rgb(13.699341%,12.199402%,12.5%);fill-opacity:1;" d="M 11.695313 130.003906 L 8.238281 130.003906 L 8.238281 119.773438 L 11.941406 119.773438 C 13.90625 119.773438 17.199219 120.425781 17.199219 124.773438 C 17.199219 128.386719 14.4375 130.003906 11.695313 130.003906 M 8.238281 132.441406 L 12.125 132.441406 C 16.125 132.441406 18.710938 134.761719 18.710938 138.355469 C 18.710938 142.378906 15.160156 143.804688 12.125 143.804688 L 8.238281 143.804688 Z M 16.730469 130.960938 C 19.597656 130.214844 22.320313 128.0625 22.320313 124.605469 C 22.320313 120.160156 18.929688 117.289063 13.679688 117.289063 L 0 117.289063 L 0 119.386719 L 3.332031 119.386719 L 3.332031 144.132813 L 0 144.132813 L 0 146.230469 L 14.457031 146.230469 C 20.011719 146.230469 23.746094 143.152344 23.746094 138.574219 C 23.746094 133.972656 20.304688 131.675781 16.730469 130.960938 "/>
<path style=" stroke:none;fill-rule:nonzero;fill:rgb(13.699341%,12.199402%,12.5%);fill-opacity:1;" d="M 48.160156 119.398438 L 51.542969 119.398438 L 51.542969 137.921875 L 36.027344 117.289063 L 28.351563 117.289063 L 28.351563 119.398438 L 31.535156 119.398438 L 32.609375 120.859375 L 32.609375 144.132813 L 29.230469 144.132813 L 29.230469 146.230469 L 38.703125 146.230469 L 38.703125 144.132813 L 35.332031 144.132813 L 35.332031 124.453125 L 51.929688 146.605469 L 52.003906 146.703125 L 54.269531 146.703125 L 54.269531 119.398438 L 57.59375 119.398438 L 57.59375 117.289063 L 48.160156 117.289063 "/>
<g clip-path="url(#clip2)" clip-rule="nonzero">
<path style=" stroke:none;fill-rule:nonzero;fill:rgb(13.699341%,12.199402%,12.5%);fill-opacity:1;" d="M 29.253906 163.835938 L 25.972656 174.191406 L 32.582031 174.191406 Z M 35.964844 182.140625 L 33.539063 176.769531 L 25.011719 176.769531 L 22.683594 181.933594 L 19.84375 181.933594 L 27.921875 160.347656 L 30.730469 160.347656 L 38.679688 181.523438 "/>
</g>
<g clip-path="url(#clip3)" clip-rule="nonzero">
<path style=" stroke:none;fill-rule:nonzero;fill:rgb(13.699341%,12.199402%,12.5%);fill-opacity:1;" d="M 46.9375 182.183594 C 44.695313 182.183594 42.699219 181.617188 41.167969 180.773438 L 41.589844 177.789063 C 42.992188 178.75 44.933594 179.628906 47 179.628906 C 49.152344 179.628906 50.679688 178.433594 50.679688 176.355469 C 50.679688 174.394531 49.847656 173.578125 46.726563 172.105469 C 42.839844 170.265625 41.382813 168.949219 41.382813 165.859375 C 41.382813 162.402344 43.917969 160.191406 47.65625 160.191406 C 49.664063 160.191406 51.152344 160.691406 52.351563 161.398438 L 51.90625 164.320313 C 50.769531 163.425781 49.214844 162.742188 47.5625 162.742188 C 45.207031 162.742188 44.160156 164.042969 44.160156 165.636719 C 44.160156 167.28125 44.933594 168.070313 48.074219 169.566406 C 52.082031 171.460938 53.457031 172.894531 53.457031 176.132813 C 53.457031 179.839844 50.792969 182.183594 46.9375 182.183594 "/>
</g>
<g clip-path="url(#clip4)" clip-rule="nonzero">
<path style=" stroke:none;fill-rule:nonzero;fill:rgb(13.699341%,12.199402%,12.5%);fill-opacity:1;" d="M 63.476563 182.183594 C 61.234375 182.183594 59.226563 181.617188 57.707031 180.773438 L 58.121094 177.789063 C 59.53125 178.75 61.46875 179.628906 63.539063 179.628906 C 65.691406 179.628906 67.207031 178.433594 67.207031 176.355469 C 67.207031 174.394531 66.371094 173.578125 63.261719 172.105469 C 59.378906 170.265625 57.914063 168.949219 57.914063 165.859375 C 57.914063 162.402344 60.457031 160.191406 64.191406 160.191406 C 66.195313 160.191406 67.699219 160.691406 68.878906 161.398438 L 68.4375 164.320313 C 67.300781 163.425781 65.75 162.742188 64.101563 162.742188 C 61.746094 162.742188 60.691406 164.042969 60.691406 165.636719 C 60.691406 167.28125 61.46875 168.070313 64.617188 169.566406 C 68.613281 171.460938 69.992188 172.894531 69.992188 176.132813 C 69.992188 179.839844 67.328125 182.183594 63.476563 182.183594 "/>
</g>
<path style=" stroke:none;fill-rule:nonzero;fill:rgb(13.699341%,12.199402%,12.5%);fill-opacity:1;" d="M 75.40625 181.933594 L 75.40625 160.441406 L 86.535156 160.441406 L 86.535156 163.109375 L 78.214844 163.109375 L 78.214844 169.34375 L 84.679688 169.34375 L 85.097656 172.027344 L 78.214844 172.027344 L 78.214844 179.25 L 86.832031 179.25 L 86.832031 181.933594 "/>
<path style=" stroke:none;fill-rule:nonzero;fill:rgb(13.699341%,12.199402%,12.5%);fill-opacity:1;" d="M 99.804688 163.109375 L 99.804688 181.933594 L 96.996094 181.933594 L 96.996094 163.109375 L 90.425781 163.109375 L 90.425781 160.441406 L 106.148438 160.441406 L 106.566406 163.109375 "/>
<g clip-path="url(#clip5)" clip-rule="nonzero">
<path style=" stroke:none;fill-rule:nonzero;fill:rgb(13.699341%,12.199402%,12.5%);fill-opacity:1;" d="M 124.292969 182.183594 C 122.050781 182.183594 120.046875 181.617188 118.523438 180.773438 L 118.945313 177.789063 C 120.347656 178.75 122.285156 179.628906 124.355469 179.628906 C 126.507813 179.628906 128.03125 178.433594 128.03125 176.355469 C 128.03125 174.394531 127.195313 173.578125 124.089844 172.105469 C 120.195313 170.265625 118.730469 168.949219 118.730469 165.859375 C 118.730469 162.402344 121.273438 160.191406 125.011719 160.191406 C 127.019531 160.191406 128.519531 160.691406 129.710938 161.398438 L 129.253906 164.320313 C 128.117188 163.425781 126.570313 162.742188 124.917969 162.742188 C 122.5625 162.742188 121.507813 164.042969 121.507813 165.636719 C 121.507813 167.28125 122.285156 168.070313 125.429688 169.566406 C 129.433594 171.460938 130.8125 172.894531 130.8125 176.132813 C 130.8125 179.839844 128.15625 182.183594 124.292969 182.183594 "/>
</g>
<path style=" stroke:none;fill-rule:nonzero;fill:rgb(13.699341%,12.199402%,12.5%);fill-opacity:1;" d="M 136.230469 181.933594 L 136.230469 160.441406 L 147.355469 160.441406 L 147.355469 163.109375 L 139.039063 163.109375 L 139.039063 169.34375 L 145.507813 169.34375 L 145.925781 172.027344 L 139.039063 172.027344 L 139.039063 179.25 L 147.660156 179.25 L 147.660156 181.933594 "/>
<g clip-path="url(#clip6)" clip-rule="nonzero">
<path style=" stroke:none;fill-rule:nonzero;fill:rgb(13.699341%,12.199402%,12.5%);fill-opacity:1;" d="M 158.246094 163.015625 L 155.558594 163.015625 L 155.558594 170.398438 L 157.941406 170.398438 C 160.671875 170.398438 162.394531 169.121094 162.394531 166.6875 C 162.394531 164.359375 160.988281 163.015625 158.246094 163.015625 M 166.832031 181.496094 L 163.992188 182.140625 L 157.679688 172.855469 L 155.558594 172.855469 L 155.558594 181.933594 L 152.742188 181.933594 L 152.742188 160.441406 L 158.367188 160.441406 C 162.585938 160.441406 165.203125 162.609375 165.203125 166.53125 C 165.203125 169.765625 163.386719 171.699219 160.695313 172.488281 "/>
</g>
<g clip-path="url(#clip7)" clip-rule="nonzero">
<path style=" stroke:none;fill-rule:nonzero;fill:rgb(13.699341%,12.199402%,12.5%);fill-opacity:1;" d="M 179.46875 182.011719 L 176.964844 182.011719 L 168.996094 160.832031 L 171.820313 160.214844 L 178.242188 178.105469 L 184.558594 160.441406 L 187.519531 160.441406 "/>
</g>
<path style=" stroke:none;fill-rule:nonzero;fill:rgb(13.699341%,12.199402%,12.5%);fill-opacity:1;" d="M 191.828125 181.933594 L 194.644531 181.933594 L 194.644531 160.441406 L 191.828125 160.441406 Z M 191.828125 181.933594 "/>
<g clip-path="url(#clip8)" clip-rule="nonzero">
<path style=" stroke:none;fill-rule:nonzero;fill:rgb(13.699341%,12.199402%,12.5%);fill-opacity:1;" d="M 209.277344 182.339844 C 203.484375 182.339844 199.746094 177.855469 199.746094 171.199219 C 199.746094 164.558594 203.546875 160.03125 209.34375 160.03125 C 211.789063 160.03125 213.609375 160.691406 215.207031 161.796875 L 214.785156 164.792969 C 213.289063 163.609375 211.53125 162.714844 209.308594 162.714844 C 205.125 162.714844 202.636719 166.003906 202.636719 171.183594 C 202.636719 176.355469 205.15625 179.632813 209.308594 179.632813 C 211.53125 179.632813 213.46875 178.722656 215.113281 177.472656 L 215.527344 180.246094 C 213.949219 181.472656 211.640625 182.339844 209.277344 182.339844 "/>
</g>
<path style=" stroke:none;fill-rule:nonzero;fill:rgb(13.699341%,12.199402%,12.5%);fill-opacity:1;" d="M 221.5625 181.933594 L 224.378906 181.933594 L 224.378906 160.441406 L 221.5625 160.441406 Z M 221.5625 181.933594 "/>
<path style=" stroke:none;fill-rule:nonzero;fill:rgb(13.699341%,12.199402%,12.5%);fill-opacity:1;" d="M 245.003906 181.933594 L 233.671875 165.203125 L 233.671875 181.933594 L 231.070313 181.933594 L 231.070313 160.441406 L 233.582031 160.441406 L 244.523438 176.539063 L 244.523438 160.441406 L 247.128906 160.441406 L 247.128906 181.933594 "/>
<g clip-path="url(#clip9)" clip-rule="nonzero">
<path style=" stroke:none;fill-rule:nonzero;fill:rgb(13.699341%,12.199402%,12.5%);fill-opacity:1;" d="M 262.089844 182.339844 C 255.539063 182.339844 252.046875 177.855469 252.046875 171.199219 C 252.046875 164.558594 255.683594 160.03125 261.851563 160.03125 C 264.601563 160.03125 266.511719 160.742188 268.125 161.859375 L 267.683594 164.847656 C 266.164063 163.609375 264.238281 162.714844 261.8125 162.714844 C 257.300781 162.714844 254.945313 166.003906 254.945313 171.183594 C 254.945313 176.355469 257.363281 179.632813 262.089844 179.632813 C 263.882813 179.632813 265.078125 179.25 266.28125 178.566406 L 266.28125 172.855469 L 261.523438 172.855469 L 261.132813 170.1875 L 269.058594 170.1875 L 269.058594 180.246094 C 267.292969 181.433594 264.804688 182.339844 262.089844 182.339844 "/>
</g>
<path style=" stroke:none;fill-rule:nonzero;fill:rgb(13.699341%,12.199402%,12.5%);fill-opacity:1;" d="M 154.976563 22.035156 C 144.050781 27.785156 134.328125 35.269531 126.289063 43.121094 C 134.113281 50.71875 143.242188 57.980469 154.976563 64.199219 L 209.523438 43.121094 "/>
<path style=" stroke:none;fill-rule:nonzero;fill:rgb(13.699341%,12.199402%,12.5%);fill-opacity:1;" d="M 96.4375 0 C 100.53125 11.847656 108.550781 25.839844 120.25 38.445313 C 123.335938 35.921875 137.351563 24.804688 149.667969 20.570313 "/>
<path style=" stroke:none;fill-rule:nonzero;fill:rgb(13.699341%,12.199402%,12.5%);fill-opacity:1;" d="M 120.742188 47.261719 C 108.769531 60.007813 100.589844 74.238281 96.4375 86.242188 L 148.816406 66.011719 C 144.648438 64.113281 130.273438 57.132813 120.742188 47.261719 "/>
</g>
</svg>
