<svg xmlns="http://www.w3.org/2000/svg" viewBox="0 0 400 400"><path d="M0 200.002v200.003l200.25-.253 200.25-.252.252-199.75L401.005 0H0v200.002m.49.498c0 110 .117 154.852.26 99.67.143-55.181.143-145.181 0-200C.607 45.352.49 90.5.49 200.5m80.073-92.251c3.255 10.492 14.731 31.939 25.55 47.751 8.237 12.038 24.388 32 25.891 32 .481 0 4.389-2.524 8.685-5.61 11.025-7.917 24.135-15.47 40.946-23.59 7.973-3.851 14.354-7.143 14.181-7.316-.174-.173-6.841-2.867-14.816-5.988-28.675-11.219-96.548-37.738-98.818-38.609-2.088-.801-2.248-.666-1.619 1.362m112.605 53.078C175.323 172.194 144 196.793 144 199.939c0 2.784 32.643 27.989 49.569 38.274l11.047 6.713 57.338-22.443c31.537-12.343 57.466-22.57 57.622-22.726.156-.155-13.748-5.757-30.897-12.449-17.148-6.691-42.787-16.698-56.974-22.237-14.187-5.539-26.337-10.063-27-10.054-.663.01-5.855 2.849-11.537 6.31m-70.64 60.923c-10.433 12.433-25.748 35.046-31.913 47.121-4.831 9.462-10.964 23.634-10.434 24.112.254.23 106.758-41.073 114.319-44.334 1.644-.709-.448-2.032-11.738-7.428-15.327-7.324-34.036-18.12-43.515-25.11-3.439-2.536-6.672-4.611-7.185-4.611-.513 0-4.803 4.613-9.534 10.25" fill-rule="evenodd"/></svg>