<?xml version="1.0" standalone="no"?>
<!DOCTYPE svg PUBLIC "-//W3C//DTD SVG 20010904//EN"
 "http://www.w3.org/TR/2001/REC-SVG-20010904/DTD/svg10.dtd">
<svg version="1.0" xmlns="http://www.w3.org/2000/svg"
 width="300.000000pt" height="300.000000pt" viewBox="0 0 300.000000 300.000000"
 preserveAspectRatio="xMidYMid meet">
<metadata>
Created by potrace 1.10, written by Peter Selinger 2001-2011
</metadata>
<g transform="translate(0.000000,300.000000) scale(0.050000,-0.050000)"
fill="#000000" stroke="none">
<path d="M1235 4538 c-19 -11 -35 -13 -35 -6 0 26 -103 -80 -131 -133 -34 -66
-10 -178 71 -340 33 -65 60 -132 60 -148 0 -17 7 -31 16 -31 8 0 32 -29 53
-65 21 -36 74 -119 117 -185 44 -66 80 -131 80 -145 0 -14 7 -25 16 -25 8 0
67 -66 131 -146 64 -81 122 -147 127 -147 18 -2 160 -150 160 -168 0 -9 -52
-66 -115 -126 -63 -60 -142 -146 -175 -190 -33 -44 -76 -85 -95 -90 -19 -5
-35 -23 -35 -39 0 -31 -209 -375 -239 -394 -10 -6 -31 -46 -47 -90 -17 -44
-53 -134 -82 -200 -69 -163 -69 -267 3 -334 143 -133 166 -131 670 62 119 45
233 82 254 82 21 0 51 18 67 40 15 22 33 35 39 28 6 -6 28 -2 48 8 20 11 150
62 287 115 138 52 315 129 395 171 79 42 176 82 215 89 38 8 70 20 70 28 0 9
32 13 70 10 39 -3 70 2 70 11 0 10 52 36 115 60 63 24 142 55 175 69 33 14
231 92 440 173 209 81 385 153 390 161 6 7 37 20 70 28 33 8 71 23 85 34 14
11 25 14 25 7 0 -29 168 76 241 151 75 78 89 108 80 177 -7 53 -141 173 -247
222 -57 26 -107 55 -111 63 -3 8 -21 15 -40 15 -73 0 -543 204 -545 237 -1 21
-5 24 -11 8 -6 -14 -19 -25 -30 -25 -11 0 -15 7 -10 16 6 9 -14 15 -43 15 -30
-1 -64 8 -76 19 -12 12 -115 56 -230 99 -114 43 -211 86 -215 95 -3 9 -15 11
-26 4 -10 -6 -51 3 -89 22 -39 18 -103 38 -144 44 -41 6 -121 38 -179 70 -58
32 -105 52 -105 42 0 -9 -8 -5 -16 8 -9 14 -33 28 -55 32 -21 5 -57 15 -79 24
-22 9 -143 56 -270 105 -126 48 -239 95 -250 103 -32 24 -193 66 -205 54 -6
-6 -21 1 -33 16 -23 28 -434 195 -497 201 -19 2 -40 10 -48 17 -20 20 -92 16
-132 -8z m411 -305 c123 -48 463 -179 754 -292 292 -113 533 -208 536 -211 3
-3 -100 -56 -229 -118 -246 -119 -561 -306 -648 -385 -72 -66 -74 -65 -222
111 -192 227 -359 479 -507 769 -163 316 -163 325 -19 262 61 -27 212 -88 335
-136z m1949 -754 c283 -111 556 -218 605 -239 50 -20 189 -74 310 -120 333
-125 309 -112 250 -136 -27 -11 -185 -72 -350 -135 -327 -124 -800 -308 -1130
-439 l-210 -84 -180 111 c-258 160 -730 526 -730 567 0 20 340 308 467 396
168 116 422 277 438 279 8 0 247 -90 530 -200z m-1533 -708 c100 -84 401 -262
645 -382 129 -63 232 -117 229 -120 -3 -3 -136 -55 -296 -115 -159 -61 -420
-161 -580 -224 -159 -62 -368 -144 -463 -181 -96 -38 -224 -90 -285 -117 -145
-65 -145 -55 18 261 149 290 319 549 508 772 148 175 145 173 224 106z"/>
</g>
</svg>
