<?xml version="1.0" standalone="no"?>
<!DOCTYPE svg PUBLIC "-//W3C//DTD SVG 20010904//EN"
 "http://www.w3.org/TR/2001/REC-SVG-20010904/DTD/svg10.dtd">
<svg version="1.0" xmlns="http://www.w3.org/2000/svg"
 width="300.000000pt" height="300.000000pt" viewBox="0 0 300.000000 300.000000"
 preserveAspectRatio="xMidYMid meet">
<metadata>
Created by potrace 1.10, written by Peter Selinger 2001-2011
</metadata>
<g transform="translate(0.000000,300.000000) scale(0.100000,-0.100000)"
fill="#000000" stroke="none">
<path d="M586 2211 c-12 -13 -15 -27 -10 -47 12 -48 109 -235 168 -323 31 -46
56 -89 56 -94 0 -6 3 -7 6 -4 4 4 19 -13 35 -36 42 -63 126 -147 147 -147 10
0 38 13 63 28 70 45 149 92 155 92 3 0 -31 -35 -75 -78 -50 -48 -81 -86 -81
-99 0 -22 33 -59 124 -140 33 -29 57 -55 55 -58 -5 -4 -17 3 -136 83 -34 23
-75 45 -92 48 -27 6 -36 0 -87 -54 -84 -89 -215 -282 -277 -407 -67 -136 -72
-156 -48 -186 17 -22 20 -22 67 -9 45 13 110 37 159 61 11 5 30 11 42 13 11 3
50 18 85 34 34 16 92 40 128 52 36 12 70 26 75 30 6 4 18 6 28 5 9 -2 15 1 11
6 -3 5 1 9 8 9 19 0 234 87 267 108 14 9 30 23 34 30 6 8 18 11 31 8 14 -3 63
10 127 35 57 22 138 53 179 69 41 16 122 47 180 70 58 23 121 48 140 55 19 7
49 19 65 26 17 7 32 13 35 13 57 11 170 77 170 100 0 20 -42 53 -85 66 -22 7
-53 18 -70 25 -16 7 -52 21 -80 31 -27 10 -61 24 -74 31 -14 6 -28 10 -33 7
-4 -3 -8 -1 -8 4 0 4 -25 16 -55 26 -30 9 -57 21 -60 26 -4 6 -19 10 -35 10
-16 0 -31 4 -35 9 -3 5 -22 15 -43 21 -20 7 -56 20 -78 30 -23 11 -70 29 -105
40 -35 12 -68 26 -74 31 -5 5 -26 9 -48 9 -25 0 -49 8 -71 25 -18 13 -63 36
-102 50 -38 14 -91 35 -119 46 -64 27 -75 32 -160 64 -136 51 -180 69 -192 78
-6 4 -24 10 -39 13 -16 3 -33 9 -39 14 -11 9 -188 70 -203 70 -5 0 -17 -8 -26
-19z m268 -106 c77 -29 200 -77 271 -105 72 -28 177 -69 235 -91 58 -23 106
-42 108 -44 2 -1 -50 -29 -115 -60 -122 -60 -271 -148 -322 -190 -16 -14 -33
-25 -37 -25 -15 0 -140 154 -208 254 -59 89 -168 294 -181 343 l-6 22 56 -25
c32 -13 121 -49 199 -79z m879 -341 c106 -42 220 -87 255 -100 34 -13 90 -35
125 -48 34 -13 105 -41 157 -61 150 -57 140 -51 105 -64 -124 -47 -328 -126
-365 -141 -25 -9 -81 -32 -125 -50 -44 -17 -96 -38 -115 -45 -19 -8 -80 -31
-135 -53 l-99 -39 -61 36 c-33 20 -76 47 -96 61 -20 14 -58 40 -85 59 -40 28
-131 103 -203 167 -12 11 -12 15 0 30 30 37 180 155 279 221 155 102 154 102
163 102 5 1 95 -33 200 -75z m-718 -365 c21 -34 402 -249 441 -249 22 0 16
-18 -8 -25 -13 -4 -74 -27 -135 -51 -266 -104 -344 -134 -448 -174 -60 -24
-145 -58 -188 -76 -94 -40 -93 -44 -10 124 65 132 159 275 252 384 64 76 83
89 96 67z"/>
</g>
</svg>
