<svg xmlns="http://www.w3.org/2000/svg" viewBox="0 0 1400 922"><path fill="#c2d908" stroke="#c2d908" d="M636.288 160.595c-6.841 3.31-6.467 2.802-36.281 49.405a4669.31 4669.31 0 0 1-13.531 21 4113.29 4113.29 0 0 0-14.781 23c-8.086 12.684-12.278 19.2-27.343 42.5-22.081 34.149-25.127 39.051-24.696 39.75.254.412 9.323.743 20.153.736l19.691-.015 5.605-8.735c7.851-12.236 17.56-27.534 31.881-50.236 6.766-10.725 13.752-21.75 15.526-24.5 8.887-13.781 15.485-24.112 20.22-31.66 14.78-23.559 14.999-23.87 15.994-22.597.54.692 10.329 16.332 21.754 34.757 11.424 18.425 21.615 34.719 22.646 36.21 1.031 1.49 1.874 2.952 1.874 3.25 0 .297-20.287.54-45.082.54h-45.081l2.27 3.75c12.196 20.146 18.066 28.102 20.697 28.051 1.483-.03 22.271.003 46.197.073l43.5.126 9.371 15.5 9.37 15.5h19.879c12.348 0 19.879-.372 19.879-.982 0-1.212-6.344-11.631-14.142-23.228-3.222-4.793-5.858-9.143-5.858-9.668 0-.526-.357-1.105-.793-1.289-.436-.183-1.881-2.133-3.211-4.333-1.33-2.2-6.074-9.625-10.542-16.5-11.087-17.062-23.73-36.694-38.959-60.5-7.037-11-15.588-24.275-19.002-29.5a3314.937 3314.937 0 0 1-10.782-16.613c-9.996-15.548-22.786-20.391-36.423-13.792m-326.543-.937c-1.66.464-1.742 5.314-1.5 88.666l.255 88.176 17.25.274 17.25.273V192h60.011c58.637 0 60.112.047 64.422 2.074 22.187 10.428 21.959 40.983-.382 51.32-4.412 2.042-6.115 2.115-55.801 2.391-28.187.156-51.229.606-51.204 1 .025.393 2.02 2.29 4.433 4.215 5.321 4.246 38.418 32.806 40.521 34.967.825.848 3.626 3.248 6.225 5.334 2.599 2.086 5.299 4.338 6 5.006 1.353 1.288 25.399 22.155 37.471 32.517l7.195 6.176h24.638c13.958 0 24.493-.385 24.304-.889-.183-.489-2.358-2.569-4.833-4.622s-6.75-5.647-9.5-7.985c-2.75-2.339-14.675-12.296-26.5-22.127-11.825-9.83-22.298-18.592-23.273-19.471-1.639-1.477-.922-1.645 9.5-2.221 17.734-.981 29.149-4.946 40.408-14.038 32.469-26.22 26.933-80.231-10.137-98.897-15.059-7.582-9.02-7.121-96.498-7.365-43.175-.12-79.29.002-80.255.273m680.005.031c-1.649.431-1.75 5.161-1.75 81.569 0 91.499-.456 86.095 7.8 92.412l3.7 2.83 81.2.278 81.199.278 1.14-2.13c.627-1.171 5.182-8.271 10.121-15.778l8.98-13.648-79.32-.5-79.32-.5-.257-71.945c-.2-56.032-.531-72.12-1.5-72.735-1.292-.821-28.92-.934-31.993-.131m266.75.316c-88.101 7.906-110.817 126.817-31.879 166.878 18.526 9.402 18.375 9.385 85.068 9.852l58.189.407 2.447-3.821c1.346-2.102 5.874-9.131 10.061-15.621 4.188-6.49 7.614-11.982 7.614-12.204 0-.222-30.037-.545-66.75-.717-66.587-.313-66.767-.32-73.584-2.613-16.722-5.624-30.238-18.758-36.645-35.611l-.971-2.555h145.618l9.736-14.954c5.355-8.225 9.817-15.313 9.916-15.75.099-.438-37.088-1.021-82.637-1.296l-82.818-.5 4.013-8c5.962-11.889 15.804-21.47 27.622-26.89 9.649-4.425 11.877-4.576 68.341-4.627 40.78-.037 54.225-.345 55.34-1.266 2.622-2.165 19.932-29.725 19.307-30.737-.703-1.136-115.292-1.114-127.988.025M74.44 162.441C45.203 170 21.917 191.677 11.968 220.594c-3.257 9.465-2.921 46.252.514 56.352 8.803 25.882 30.82 47.19 57.303 55.457 13.972 4.362 22.166 4.777 85.215 4.321 61.155-.443 58.086-.245 73.5-4.756 20.822-6.095 42.357-25.478 52.58-47.325 10.426-22.282 9.964-53.94-1.105-75.707-10.404-20.456-29.02-36.893-49.953-44.102-13.984-4.817-14.331-4.837-82.334-4.785-63.993.049-64.216.056-73.248 2.392m757.06-1.962c-.55.176-4.375 1.093-8.5 2.037-26.268 6.011-49.832 26.72-60.288 52.984-19.721 49.537 7.189 102.747 59.788 118.22l9 2.648 60.703.384 60.702.385 6.798-10.691c3.738-5.88 8.259-12.875 10.047-15.545 1.788-2.669 3.25-5.089 3.25-5.377 0-.288-28.462-.533-63.25-.544-36.576-.011-66.154-.439-70.136-1.015-15.1-2.183-27.001-9.35-37.837-22.788-19.418-24.08-10.702-65.231 17.292-81.638 12.848-7.53 12.936-7.539 75.215-7.539h55.569l7.431-11.25C966.272 167.144 970 161.213 970 160.52c0-.55-136.788-.591-138.5-.041M86.972 193.877C75.08 197.683 56 211.743 56 216.7c0 .715-.389 1.3-.863 1.3-2.765 0-9.096 20.604-9.122 29.685-.028 9.581 5.165 27.331 8.868 30.315.341.275 1.29 1.798 2.109 3.384 2.29 4.434 12.107 12.781 19.685 16.738C88.991 304.55 88.389 304.5 153 304.5c67.591 0 66.027.19 80.673-9.779 39.384-26.806 30.444-85.256-15.391-100.635-8.904-2.987-122.067-3.168-131.31-.209M153 427.054c-9.166 1.085-19.061 2.838-22 3.896-1.375.496-5.875 1.895-10 3.109-33.497 9.86-59.786 28.722-86.328 61.941-12.828 16.055-18.029 39.413-12.454 55.93 1.873 5.549 3.387 7.751 9.75 14.171 11.84 11.947 26.848 18.592 63.21 27.986 31.237 8.07 97.205 11.45 145.754 7.467 43.825-3.595 78.872-7.243 100.568-10.468 3.85-.573 14.2-1.957 23-3.078 8.8-1.12 18.792-2.559 22.204-3.197 6.812-1.273 6.27-.717 16.849-17.311 2.104-3.3 8.231-12.655 13.616-20.789 9.975-15.068 10.552-17.003 4.566-15.301-1.229.35-8.985 1.279-17.235 2.066-40.591 3.87-47.293 4.533-51 5.047-4.017.557-28.192 2.673-51.5 4.507-6.875.541-16.326 1.426-21.001 1.967-4.676.541-13.901 1.239-20.5 1.551-6.6.312-13.574.811-15.499 1.109-16.878 2.613-98.18 3.701-115 1.539-23.929-3.076-32.243-4.742-47.177-9.45l-9.678-3.052 4.99-7.394c12.99-19.251 32.958-34.902 53.865-42.22 3.575-1.252 7.4-2.648 8.5-3.105 10.392-4.308 44.605-4.601 59.985-.513 18.12 4.816 35.766 14.744 49.3 27.74l5.286 5.074 15.214-1.163a8966.23 8966.23 0 0 1 30.965-2.303c8.663-.627 15.75-1.501 15.75-1.944 0-2.594-8.469-14.982-17.34-25.366-28.109-32.9-67.054-53.487-110.66-58.496-9.019-1.036-27.04-1.011-36 .05m406.5 82.47c-41.515 6.05-74.266 37.736-81.633 78.976-8.744 48.947 16.476 95.759 60.633 112.546 13.333 5.069 19.98 6.039 45.564 6.649l24.563.585 5.346-8.39a2439.953 2439.953 0 0 1 12.765-19.728c4.08-6.236 7.244-11.513 7.032-11.726-.213-.213-15.211-.556-33.329-.764-27.145-.31-33.821-.666-37.941-2.022-21.948-7.221-36.347-24.698-39.554-48.004-8.32-60.474 53.72-91.482 100.46-50.212 1.598 1.411 3.006 2.566 3.13 2.566.669 0 27.464-31.275 27.464-32.056 0-2.024-18.016-15.171-26.5-19.338-19.122-9.391-43.519-12.65-68-9.082m144.385 46.428c-36.204 10.169-57.501 43.86-53.653 84.879 2.038 21.731 15.45 44.513 31.768 53.966 2.475 1.434 4.725 2.858 5 3.165 6.896 7.703 61.64 13.916 66.414 7.538 1.789-2.389 12.407-18.81 18.272-28.257l4.187-6.743-29.187-.563c-19.447-.376-30.521-.99-33.186-1.841-5.461-1.743-12.952-6.631-15.169-9.899-2.449-3.608-5.255-9.402-5.297-10.938-.027-.968 11.1-1.298 50.716-1.5l50.75-.259.289-13c.358-16.127-1.155-23.852-7.641-39-1.413-3.3-2.851-6.225-3.195-6.5-.344-.275-1.804-2.525-3.243-5-1.44-2.475-4.776-6.592-7.414-9.15-7.591-7.359-14.727-11.461-29.296-16.838-6.055-2.234-32.233-2.273-40.115-.06m188.615-.075c-10.983 3.965-18.763 10.42-24.393 20.238-1.699 2.962-3.119 4.935-3.156 4.385-.037-.55-.018-5.763.042-11.585.079-7.59-.258-10.886-1.191-11.651-.843-.691-8.537-1.014-21.802-.916l-20.5.152-.257 73.437c-.15 43.199.118 73.669.651 74 .5.31 10.403.433 22.007.274l21.099-.288v-33.752c0-27.05.304-34.934 1.532-39.711 4.846-18.859 17.354-29.752 35.935-31.293l8.033-.667.269-22.25.269-22.25-6.769.036c-3.923.021-8.871.795-11.769 1.841m115.5-.293c-8.526 2.627-17.851 8.7-23.802 15.5l-3.698 4.227-.5-9.405-.5-9.406h-42l-.256 73.75c-.171 48.973.081 73.758.75 73.773.553.013 9.556.024 20.006.024 10.45 0 19.643-.011 20.429-.024 1.213-.019 1.478-7.011 1.75-46.273l.321-46.25 2.651-5c9.399-17.728 34.021-18.576 43.349-1.494l3 5.494.312 46.75.313 46.75H1073l-.004-50.75c-.005-64.677-.924-70.934-12.325-83.886-11.409-12.962-35.158-19.175-52.671-13.78m145.235.489c-22.107 5.939-38.018 20.307-48.647 43.927-7.259 16.131-7.223 47.978.07 61.952.731 1.401 1.332 2.861 1.336 3.244.016 1.875 7.588 13.279 12.076 18.19 16.325 17.862 35.572 24.51 71.189 24.588l11.76.026 11.937-18.181c6.566-10 11.71-18.55 11.432-19-.278-.451-12.517-.838-27.197-.861-27.94-.045-33.16-.639-40.691-4.631-6.979-3.699-13.5-12.383-13.5-17.976 0-1.117 8.658-1.351 49.878-1.351 38.696 0 50.104-.28 50.888-1.25 1.225-1.516.747-24.289-.646-30.75-1.545-7.166-4.234-16.411-5.09-17.5-.432-.55-1.12-2.125-1.53-3.5-2.789-9.37-17.544-25.097-29.411-31.35-14.512-7.647-37.348-10.011-53.854-5.577m188.265-.188c-9.926 3.599-18.213 10.479-23.729 19.7-1.781 2.978-3.531 5.415-3.889 5.415-.358 0-.689-5.288-.735-11.75-.047-6.462-.098-12.087-.116-12.5-.017-.413-9.481-.75-21.031-.75h-21v148h41.765l.515-32.75c.565-35.868 1.18-40.592 6.753-51.865 5.797-11.727 17.112-19.031 31.309-20.208l8.158-.677.269-22.25.269-22.25-6.769.036c-3.942.021-8.857.793-11.769 1.849m37.69 1.141c-6.803 4.147-7.911 14.507-2.076 19.417 11.065 9.31 26.976-2.702 19.766-14.922-3.811-6.46-11.333-8.371-17.69-4.495m2.252 2.739c-4.321 3.001-5.419 8.406-2.484 12.226l1.914 2.491-.177-6.491-.177-6.491 4.678-.302c5.179-.335 8.216 2.396 5.844 5.254-.802.966-.774 2.037.104 3.964 1.468 3.223 2.818 1.697 2.841-3.211.027-5.909-7.941-10.635-12.543-7.44M1385 565c-1.282.828-1.246.972.25.985.963.008 1.75-.435 1.75-.985 0-1.22-.113-1.22-2 0m-1.149 7.454-1.607 3.546h3.211c3.729 0 4.822-.746 3.451-2.357-.536-.628-1.531-1.951-2.211-2.939-1.128-1.639-1.377-1.486-2.844 1.75M713.5 589.853c-9.337 3.052-18.007 13.602-20.87 25.397l-.668 2.75h30.519c34.702 0 32.035.862 28.378-9.167-4.661-12.782-14.688-19.881-27.859-19.724-4.125.05-8.4.385-9.5.744m449-.162c-6.912 1.449-16.027 11.841-19.14 21.823l-2.023 6.486h60.919l-.653-4.083c-1.452-9.079-8.658-18.829-16.846-22.793-4.213-2.039-15.802-2.785-22.257-1.433m-783.73 11.872c-.539.539-7.316 1.875-25.77 5.081-7.985 1.387-12.129 2.004-28.75 4.281-3.712.508-13.5 1.851-21.75 2.985-8.25 1.133-19.725 2.521-25.5 3.083-5.775.563-11.625 1.219-13 1.46-2.459.43-15.935 1.375-51.5 3.613-38.184 2.402-80.336-.547-115.725-8.098-27.252-5.815-30.473-6.208-40.504-4.949-28.802 3.617-42.018 25.637-33.928 56.534 7.613 29.078 49.802 69.292 87.157 83.077 22.452 8.286 39.399 11.365 62.5 11.356 14.787-.006 32.568-2.144 41.483-4.987 1.659-.529 6.167-1.963 10.017-3.186 3.85-1.223 8.125-2.803 9.5-3.512 1.375-.709 3.065-1.291 3.755-1.295 1.47-.007 21.37-10.28 25.745-13.29 19.465-13.394 37.52-30.929 47.074-45.716 1.599-2.475 3.204-4.725 3.567-5 1.456-1.105 1.345-4.498-.141-4.272-1.55.235-9.113 1.554-19.426 3.388-5.524.982-19.341 2.41-47.877 4.948-9.791.871-12.608 1.509-16.527 3.743-34.685 19.769-72.673 20.822-109.989 3.047-12.066-5.748-31.241-22.038-37.449-31.815l-1.767-2.785 5.767 1.362c5.33 1.258 29.158 5.12 37.268 6.041 51.637 5.863 88.827 6.426 124 1.875 1.925-.249 8-.906 13.5-1.462 54.362-5.486 90.5-12.32 90.5-17.114 0-.404 3.651-6.296 8.112-13.095A8483.644 8483.644 0 0 0 370.807 619c1.97-3.025 5.069-7.754 6.887-10.509 1.818-2.754 3.306-5.567 3.306-6.25 0-1.285-1.244-1.663-2.23-.678" fill-rule="evenodd"/><path fill="#fbfbfb" stroke="#fbfbfb" d="M638.462 160.043c-7.447 2.866-10.202 6.37-32.976 41.957-11.44 17.875-23.132 36.1-25.983 40.5C559.314 273.661 520 335.117 520 335.515c0 .267 8.943.485 19.874.485h19.874l7.813-12.25A25926.98 25926.98 0 0 1 579.532 305c4.019-6.284 20.438-32.199 52.43-82.75 8.44-13.338 15.623-24.25 15.962-24.25.339 0 2.607 3.262 5.041 7.25s9.655 15.575 16.046 25.75C686.364 258.628 695 272.711 695 273.381c0 .329-20.203.716-44.895.859l-44.896.26 9.757 15 9.758 15 46.349.5 46.35.5 8.783 14.445c4.831 7.944 9.156 14.817 9.61 15.271.455.455 9.732.705 20.616.556l19.789-.272-7.895-12c-4.342-6.6-12.755-19.65-18.695-29-5.941-9.35-19.956-31.175-31.145-48.5s-24.079-37.35-28.645-44.5c-24.562-38.467-25.258-39.316-34.455-42.084-6.258-1.884-10.841-1.714-16.924.627m-554.962.634c-36.179 8.042-59.71 27.499-70.652 58.42-4.33 12.236-4.353 45.504-.041 57.691 8.353 23.604 27.324 43.631 50.012 52.795 15.041 6.075 11.928 5.844 83.181 6.176l65.5.306 9.682-2.458c66.752-16.943 89.924-98.81 41.734-147.451-12.833-12.953-29.966-21.849-48.35-25.105-5.755-1.019-126.611-1.365-131.066-.374M309 248v88h34V190.926l60.25.287 60.25.287 5 2.661c17.729 9.434 21.264 31.864 7.192 45.64-8.103 7.933-5.793 7.637-64.055 8.199l-51.863.5 12.363 10.641a42115.221 42115.221 0 0 1 70.275 60.609L461.2 336h49.875l-33.477-27.75c-18.412-15.262-33.504-28.087-33.538-28.5-.033-.413 4.818-.75 10.78-.75 23.518 0 41.175-8.773 52.879-26.272 22.814-34.11 5.226-80.64-34.304-90.75-7.383-1.888-11.297-1.978-86.075-1.978H309v88m519-86.478c-49.703 10.199-80.961 59.396-68.561 107.911 8.277 32.386 32.481 56.073 65.971 64.562 7.484 1.897 11.145 2.005 68 1.999l60.09-.007 1.627-2.743c.894-1.509 5.252-8.369 9.683-15.244l8.057-12.5-68.684-.5-68.683-.5-6.974-2.79c-46.63-18.651-50.58-82.364-6.452-104.081 12.976-6.386 15.211-6.585 74.926-6.671l53.5-.076 7.5-11.614c4.125-6.388 8.538-13.336 9.807-15.441l2.306-3.827-67.806.094c-52.299.072-69.294.399-74.307 1.428m160.024 77.728c.013 43.954.429 80.997.933 83.173 1.106 4.766 3.637 8.335 8.033 11.327l3.306 2.25h161.679l2.667-4.25c1.467-2.337 5.54-8.647 9.052-14.02 3.511-5.374 6.64-10.437 6.952-11.25.498-1.299-9.117-1.48-78.539-1.48H1023V160h-35l.024 79.25m263.476-78.573c-16.678 3.707-24.978 6.948-35.911 14.02-34.893 22.572-48.712 68.204-32.535 107.433 8.741 21.199 27.625 39.523 49.469 48.005 14.658 5.692 17.701 5.907 79.544 5.623l56.384-.258 9.681-15 9.682-15-67.657-.524c-73.711-.571-70.22-.303-81.786-6.284-12.128-6.272-24.362-20.524-27.848-32.442l-.658-2.25 72.818-.016 72.817-.016 4.944-7.734a4814.155 4814.155 0 0 1 9.75-15.178c2.643-4.094 4.806-7.797 4.806-8.228 0-.432-36.98-.799-82.177-.816-45.197-.018-82.393-.248-82.657-.512-.264-.264 1.239-3.972 3.34-8.24 6.564-13.336 18.525-23.774 33.709-29.415 6.265-2.328 6.461-2.336 62.285-2.663l56-.329 5.75-9.176c3.162-5.048 7.56-11.989 9.774-15.427l4.025-6.25-65.775.116c-36.176.064-66.674.316-67.774.561M93.129 192.126c-21.559 3.582-39.93 20.656-45.586 42.369-7.239 27.794 9.431 58.075 37.267 67.693l6.69 2.312h61c60.963 0 61.004-.001 67.164-2.272 9.755-3.597 15.344-7.128 22.456-14.188 32.014-31.784 15.682-86.137-28.708-95.541-7.945-1.683-110.483-2.001-120.283-.373M163 426.607c-16.234.936-42.448 6.631-51 11.08-1.375.715-3.086 1.303-3.802 1.307-1.421.007-14.616 6.428-22.042 10.727-18.642 10.793-40.81 31.398-51.858 48.203-2.017 3.067-3.924 5.801-4.24 6.076-3.938 3.433-10.071 24.661-10.05 34.785.02 9.945 5.514 20.874 14.621 29.085C40.146 572.844 60.32 584 63.799 584c.769 0 2.817.637 4.55 1.416 1.733.778 6.751 2.401 11.151 3.605 4.4 1.205 9.125 2.564 10.5 3.022 5.695 1.895 9.243 2.181 10.11.814 1.196-1.888 1.109-8.857-.11-8.857-.611 0-1-4.667-1-12 0-6.6.398-12 .883-12 1.104 0 2.097-4.889 1.375-6.77-.443-1.154-.686-1.165-1.397-.064-.705 1.092-1.037 1.061-1.83-.166-.795-1.231-.148-1.622 3.598-2.181 6.732-1.004 6.587-1.864-.225-1.334-4.931.384-5.409.292-2.904-.559 1.65-.56 5.475-.777 8.5-.481 6.003.586 5.039-1.016-1.114-1.852A305.46 305.46 0 0 1 99 545.556c-1.925-.316-2.937-.309-2.25.018 1.733.822 1.568 2.426-.25 2.426-.825 0-1.5-.87-1.5-1.933 0-2.032-.289-2.165-8.895-4.114-2.967-.672-6.567-1.834-8-2.581-1.433-.748-3.167-1.362-3.855-1.366-2.803-.014.103-5.146 9.914-17.506 12.663-15.953 32.894-29.795 51.836-35.465 4.125-1.234 8.757-2.631 10.292-3.103 1.536-.471 8.286-1.399 15-2.06 33.158-3.267 64.705 7.93 89.817 31.879l4.608 4.395 15.892-1.541c8.74-.847 22.119-1.848 29.73-2.223 9.549-.471 13.986-1.066 14.314-1.921 1.182-3.079-15.078-24.422-28.479-37.383-32.123-31.069-80.072-49.014-124.174-46.471m388.5 84.802c-36.693 9.579-60.712 33.101-71.627 70.146-3.179 10.789-3.468 39.84-.506 50.945 8.041 30.156 24.835 51.266 51.133 64.276 16.042 7.936 25.501 9.781 55.184 10.76l22.184.732 7.716-11.884c4.243-6.536 9.898-15.108 12.566-19.047 2.667-3.94 4.85-7.616 4.85-8.169 0-.647-12.065-1.154-33.75-1.42-33.19-.407-33.862-.456-40.502-2.95-41.156-15.455-50.79-74.03-17.045-103.636 21.886-19.202 53.701-17.648 79.219 3.87 2.72 2.292 5.401 3.886 5.959 3.541 1.822-1.125 26.119-29.412 26.119-30.407 0-3.78-21.399-18.116-34.747-23.278-15.813-6.115-49.86-7.889-66.753-3.479M418 532.659c-6.138.595-32.162 3.348-42 4.442-5.225.582-16.475 1.707-25 2.501-8.525.794-22.475 2.142-31 2.996-8.525.854-23.15 2.127-32.5 2.829-9.35.702-17.225 1.401-17.5 1.553-.275.152 2.2.883 5.5 1.624l6 1.347-7-.332c-3.85-.182-5.915-.13-4.588.116 1.874.347 2.097.649 1 1.354-.91.585-.215.678 1.952.262 3.171-.609 3.3-.527 2.25 1.435-1.523 2.847-1.422 3.214.886 3.214 1.1 0 2 .45 2 1s-.675 1-1.5 1c-2.463 0-2.218 33.666.25 34.311 1.129.295.819.498-.875.573-5.9.261-8.875 1.347-8.875 3.241 0 1.031.45 1.875 1 1.875s1-.675 1-1.5.45-1.5 1-1.5 1 .612 1 1.361c0 1.441 18.925 1.143 20-.315.275-.373 7.25-1.205 15.5-1.849 8.25-.643 17.475-1.626 20.5-2.184 3.025-.557 9.325-1.423 14-1.923 4.675-.5 10.525-1.193 13-1.538 2.475-.346 7.65-1.055 11.5-1.575 19.367-2.618 26.56-3.709 26.879-4.075.193-.221 6.095-9.177 13.115-19.902 7.021-10.725 14.497-22.087 16.614-25.25 4.261-6.365 4.608-5.936-4.108-5.091M259.5 548l-7 .647 6.5.161c3.575.089 7.175-.275 8-.808.825-.533 1.05-.897.5-.808-.55.089-4.15.452-8 .808m17.25-.338c.688.278 1.813.278 2.5 0 .688-.277.125-.504-1.25-.504s-1.937.227-1.25.504m-163.75.721c0 .211.9.619 2 .907 1.1.287 2 .115 2-.384 0-.498-.9-.906-2-.906s-2 .173-2 .383m8.75 1.323c1.237.238 3.263.238 4.5 0 1.237-.239.225-.434-2.25-.434s-3.487.195-2.25.434m112 0c1.238.238 3.262.238 4.5 0 1.238-.239.225-.434-2.25-.434s-3.488.195-2.25.434m12.25-.313c0 .216.698.661 1.552.989.89.341 1.291.173.941-.393-.587-.951-2.493-1.406-2.493-.596m-142.75 2.305c-1.933.725-1.476 2.302.667 2.302 1.054 0 2.143.563 2.421 1.25.277.688.54.774.583.191.13-1.741-2.328-4.246-3.671-3.743m162.563-.015c.721.289 1.584.253 1.916-.079.332-.332-.258-.568-1.312-.525-1.165.048-1.402.285-.604.604m443.496 3.802c-30.81 5.589-52.83 29.322-58.466 63.015-1.179 7.049-.408 27.087 1.244 32.341C664.481 690.251 689.053 707 734.478 707h17.328l3.446-5.25c1.896-2.888 7.129-10.824 11.629-17.636 4.499-6.812 8.027-12.539 7.839-12.728-.189-.188-12.915-.484-28.281-.658-26.453-.299-28.273-.441-34.209-2.663-10.05-3.763-19.23-13.747-19.23-20.915v-2.132l50.75-.259 50.75-.259.298-10c.984-32.971-14.714-62.287-39.298-73.386-2.75-1.241-5.803-2.688-6.784-3.215-5.952-3.197-27.736-4.531-39.407-2.414m186.451.05c-11.484 2.829-23.831 12.574-28.162 22.226-2.97 6.62-3.598 5.178-3.598-8.261V557h-42v147h42v-31.39c0-24.194.356-33.265 1.553-39.574 3.839-20.239 15.558-31.402 36.074-34.364l8.873-1.281V554.5l-4.5-.189c-2.475-.105-7.083.446-10.24 1.224m114.386.145c-8.322 1.97-17.021 7.164-24.187 14.442-3.183 3.233-6.051 5.878-6.373 5.878-.322 0-.586-4.275-.586-9.5V557h-41v147h41v-41.553c0-45.146.621-51.719 5.64-59.669 8.997-14.253 35.265-13.251 42.183 1.609 3.6 7.73 4.177 15.809 4.177 58.445V704h41.092l-.348-56.75-.348-56.75-2.471-6c-3.727-9.052-5.305-11.56-10.575-16.804-11.451-11.396-30.626-16.176-48.204-12.016M1164 554.648c-6.823 1.025-14.446 2.586-15.887 3.254-17.244 7.994-27.612 15.992-35.009 27.007-15.898 23.673-18.189 56.279-5.769 82.091 1.191 2.475 2.391 4.725 2.668 5 .276.275 1.794 2.403 3.372 4.73 8.968 13.221 26.386 24.41 43.858 28.173 14.852 3.2 42.94 3.105 45.311-.153 3.368-4.629 21.374-32.275 21.414-32.879.023-.347-12.671-.852-28.208-1.124-38.033-.665-45.693-3.473-52.152-19.119-2.955-7.16-6.923-6.628 49.402-6.628h51l-.06-12.25c-.032-6.737-.449-14.275-.925-16.75-1.488-7.739-3.031-13.382-4.55-16.651-.806-1.733-1.465-3.574-1.465-4.091 0-2.313-9.989-17.227-14.505-21.657-5.518-5.412-14.494-11.597-19.654-13.543-1.838-.693-4.241-1.659-5.341-2.148-5.833-2.588-25.338-4.488-33.5-3.262m181.5.831c-11.887 2.617-20.955 9.684-28.029 21.848l-3.971 6.827-.278-13.577-.278-13.577H1271v147h41.806l.436-34.75c.464-36.988.456-36.919 5.962-49.25 5.882-13.173 20.6-21.906 37.046-21.983L1360 598v-44l-4.25.079c-2.338.044-6.95.674-10.25 1.4m31.9 3.921c-10.947 10.947 4.707 26.67 16.638 16.71 5.055-4.221 5.153-12.763.196-17.192-4.951-4.424-12.134-4.218-16.834.482m2.055 2.055c-4.461 4.461-2.9 11.626 3.078 14.123 5.899 2.465 11.667-1.538 11.667-8.096 0-7.791-9.215-11.558-14.745-6.027M103.385 572c0 6.875.16 9.688.355 6.25.196-3.437.196-9.062 0-12.5-.195-3.437-.355-.625-.355 6.25m1279.318-10.302c-1.508.392-1.75 1.368-1.5 6.055.3 5.65 2.797 9.068 2.797 3.83 0-3.317 2.321-3.368 3.818-.083 1.889 4.146 3.106 2.852 2.867-3.049-.279-6.88-1.972-8.312-7.982-6.753m1.756 3.369c-.363.586-.419 1.306-.126 1.6.717.716 2.667-.546 2.667-1.726 0-1.278-1.726-1.193-2.541.126M84.813 588.683c.721.289 1.584.253 1.916-.079.332-.332-.258-.568-1.312-.525-1.165.048-1.402.285-.604.604m629.187.624c-11.042 3.869-19.557 13.965-21.471 25.458l-.71 4.264 30.841-.264 30.84-.265-.323-2.5c-1.305-10.101-8.42-20.769-16.567-24.838-5.553-2.773-17.251-3.733-22.61-1.855m448.885.073c-9.215 3.293-15.671 10.16-19.704 20.959-3.529 9.448-6.097 8.661 28.26 8.661 16.743 0 30.683-.392 30.979-.871.904-1.462-2.247-11.895-4.827-15.982-7.247-11.48-22.555-17.11-34.708-12.767m-903.072 3.303c.721.289 1.584.253 1.916-.079.332-.332-.258-.568-1.312-.525-1.165.048-1.402.285-.604.604m21 0c.721.289 1.584.253 1.916-.079.332-.332-.258-.568-1.312-.525-1.165.048-1.402.285-.604.604m-171 1c.721.289 1.584.253 1.916-.079.332-.332-.258-.568-1.312-.525-1.165.048-1.402.285-.604.604M287 594c.825.533 1.95.969 2.5.969s.325-.436-.5-.969c-.825-.533-1.95-.969-2.5-.969s-.325.436.5.969m-183.75.689c.963.252 2.537.252 3.5 0 .963-.251.175-.457-1.75-.457s-2.713.206-1.75.457m159.303.226a1.116 1.116 0 0 0 .362 1.532c.521.322 1.21.159 1.532-.362a1.116 1.116 0 0 0-.362-1.532 1.116 1.116 0 0 0-1.532.362M113.5 596c.34.55 1.068 1 1.618 1s.722-.45.382-1c-.34-.55-1.068-1-1.618-1s-.722.45-.382 1m159.25-.338c.688.278 1.813.278 2.5 0 .688-.277.125-.504-1.25-.504s-1.937.227-1.25.504m8 0c.688.278 1.813.278 2.5 0 .688-.277.125-.504-1.25-.504s-1.937.227-1.25.504m-21.937 3.021c.721.289 1.584.253 1.916-.079.332-.332-.258-.568-1.312-.525-1.165.048-1.402.285-.604.604m-22 2c.721.289 1.584.253 1.916-.079.332-.332-.258-.568-1.312-.525-1.165.048-1.402.285-.604.604m4 0c.721.289 1.584.253 1.916-.079.332-.332-.258-.568-1.312-.525-1.165.048-1.402.285-.604.604m134.687 2.533c-9.69 2.064-27.213 5.02-46.5 7.846-7.425 1.088-15.975 2.404-19 2.925-3.025.521-8.65 1.215-12.5 1.544-3.85.329-9.025 1.022-11.5 1.54-2.475.518-13.19 1.607-23.812 2.42-10.621.813-20.02 1.875-20.887 2.36-1.044.585.073.801 3.312.643 2.688-.131 3.762-.051 2.387.177l-2.5.416.297 16.456c.239 13.274.566 16.457 1.692 16.457.909 0 1.544-1.482 1.819-4.25.233-2.337.371-.311.308 4.502-.107 8.094.034 8.76 1.884 8.85 3.805.185-2.715 1.704-7 1.63l-4-.068 3.75-.392c5.715-.598 4.467-1.76-2.002-1.865-3.719-.06-4.866.151-3.248.597l2.5.691-2.5.465c-6.392 1.191 7.245 1.917 16.028.854a3661.87 3661.87 0 0 1 21.472-2.512c19.12-2.174 40.478-5.339 64.296-9.527 8.294-1.459 6.798.049 19.815-19.975 14.268-21.95 20.621-32.101 20.256-32.368-.202-.147-2.167.116-4.367.584m-324.249 7.329c-10.448 2.814-20.12 9.162-25.182 16.531-8.372 12.185-7.107 36.538 2.75 52.924C53.54 721.097 98.901 751.039 147 758.011c18.663 2.705 48.273 1.702 60.5-2.048 1.65-.507 7.192-2.097 12.316-3.535 5.123-1.438 10.523-3.245 12-4.015 1.476-.77 3.167-1.403 3.757-1.407 1.509-.009 12.626-5.468 20.927-10.277 20.04-11.61 41.031-31.439 53.984-50.994 2.101-3.171 3.638-5.93 3.418-6.131-.221-.201-4.002.263-8.402 1.031-14.373 2.509-43.756 5.902-60 6.927-10.277.649-11.396.933-17.023 4.317-3.312 1.991-9.387 4.905-13.5 6.474-4.112 1.569-8.242 3.246-9.177 3.727-3.488 1.794-24.963 4.92-33.8 4.92-34.541 0-70.692-17.378-89.527-43.037-4.145-5.647-4.269-6.38-.933-5.542 1.397.35 4.885.295 7.75-.124l5.21-.761-4.5-.618c-4.478-.615-4.482-.618-.75-.768L93 656l.11-15.75c.06-8.663.232-17.212.383-19 .15-1.788-.124-3.25-.61-3.25-2.448 0-.443-1.928 2.367-2.277 2.331-.289 1.821-.448-1.8-.563-2.777-.088-5.522-.632-6.098-1.208-3.925-3.925-26.328-6.039-36.101-3.407m37.562 3.138c.721.289 1.584.253 1.916-.079.332-.332-.258-.568-1.312-.525-1.165.048-1.402.285-.604.604m-11 1c.721.289 1.584.253 1.916-.079.332-.332-.258-.568-1.312-.525-1.165.048-1.402.285-.604.604m32.937 3.979c.688.278 1.813.278 2.5 0 .688-.277.125-.504-1.25-.504s-1.937.227-1.25.504M90 621c0 .55.45 1 1 1s1-.45 1-1-.45-1-1-1-1 .45-1 1m6 2c0 .55.45 1 1 1s1-.45 1-1-.45-1-1-1-1 .45-1 1m133.25-.284c1.512.229 3.988.229 5.5 0s.275-.416-2.75-.416-4.262.187-2.75.416m-23.437.967c.721.289 1.584.253 1.916-.079.332-.332-.258-.568-1.312-.525-1.165.048-1.402.285-.604.604M239.272 636c0 2.475.195 3.487.434 2.25.238-1.237.238-3.263 0-4.5-.239-1.237-.434-.225-.434 2.25M96 658.059c0 .582.45.781 1 .441s1-.816 1-1.059-.45-.441-1-.441-1 .477-1 1.059m-8 1.805c0 .625 1.294 1.136 2.875 1.136s4.394.255 6.25.567c2.648.444 3.013.334 1.697-.51-2.573-1.65-10.822-2.559-10.822-1.193m26.75 4.798c.688.278 1.813.278 2.5 0 .688-.277.125-.504-1.25-.504s-1.937.227-1.25.504m107.063 4.021c.721.289 1.584.253 1.916-.079.332-.332-.258-.568-1.312-.525-1.165.048-1.402.285-.604.604m6.937.023c1.238.238 3.262.238 4.5 0 1.238-.239.225-.434-2.25-.434s-3.488.195-2.25.434" fill-rule="evenodd"/><path fill="#059ad7" stroke="#059ad7" d="M642 158.88c-10.248 3.354-11.491 4.673-26.522 28.12a18870.04 18870.04 0 0 1-22.823 35.5c-6.03 9.35-14.42 22.4-18.644 29-26.171 40.886-42.773 66.708-45.97 71.5-2.018 3.025-4.69 7.188-5.937 9.25l-2.267 3.75 19.831-.009 19.832-.008 3.653-5.742c11.52-18.103 68.427-107.881 75.713-119.445 4.749-7.538 8.859-13.707 9.134-13.709.275-.003 3.65 5.208 7.5 11.578 3.85 6.371 8.725 14.266 10.834 17.546 2.109 3.279 8.885 14.136 15.057 24.126 6.173 9.989 12.037 19.401 13.031 20.913l1.808 2.75h-45.115c-24.813 0-45.115.216-45.115.48s4.328 7.239 9.618 15.5l9.619 15.02 46.131.004 46.132.005 9.352 15.495L736.204 336h39.821l-2.67-4.25c-1.469-2.337-7.912-12.35-14.318-22.25-14.372-22.209-54.328-84.355-74.74-116.247-16.303-25.472-19.163-29.124-25.235-32.222-4.426-2.257-13.313-3.378-17.062-2.151m-563 3.032c-31.819 6.811-56.82 29.235-66.899 60.003-3.107 9.486-3.122 42.603-.023 52.17 10.399 32.109 37.907 55.68 71.061 60.891 5.173.813 25.791 1.057 69.361.821 60.704-.329 62.167-.383 70-2.582 60.23-16.914 85.014-86.063 49.001-136.715-11.271-15.852-28.467-27.497-50.001-33.861-10.314-3.049-128.831-3.653-142.5-.727m230 86.059V336h34V191h58.318c66.583 0 65.432-.12 73.763 7.673 14.707 13.756 12.24 35.955-5.081 45.725l-5.5 3.102-52.135.5-52.136.5 25.534 22c14.044 12.1 36.83 31.781 50.636 43.735l25.101 21.736 24.5-.019c23.277-.018 24.398-.104 22.466-1.735-1.119-.944-16.363-13.642-33.876-28.217l-31.842-26.5 13.38-.588c20.663-.908 31.509-5.3 43.953-17.798 31.68-31.818 18.993-83.656-24.081-98.39-6.477-2.216-6.784-2.225-86.75-2.503l-80.25-.278v88.028m520.633-86.418c-79.05 15.708-99.336 116.513-32.26 160.301 20.566 13.425 26.245 14.23 98.085 13.907l57.959-.261 9.276-14.5c5.102-7.975 9.283-14.837 9.291-15.25.009-.413-29.814-.75-66.274-.75-73.599 0-71.963.129-84.934-6.687-38.17-20.058-39.791-77.04-2.809-98.715 14.29-8.375 10.554-7.948 74.902-8.556l57.368-.542 6.826-10.5c3.755-5.775 8.183-12.637 9.84-15.25l3.014-4.75-66.708.094c-52.026.073-68.221.394-73.576 1.459m159.6 81.197.267 82.75 2.334 3.273c5.44 7.627.473 7.228 89.876 7.218l79.79-.008 9.5-14.582c5.225-8.02 9.65-14.991 9.833-15.491.199-.542-31.688-.91-78.75-.91H1023V160h-34.034l.267 82.75m260.814-81.612c-30.859 5.116-58.81 29.031-69.12 59.14-14.195 41.453 5.339 87.185 45.573 106.697 17.898 8.68 15.09 8.38 82.114 8.777l59.113.35 9.637-14.891c5.3-8.19 9.636-15.188 9.636-15.551 0-.363-29.38-.66-65.29-.66-72.255 0-70.536.134-83.804-6.547-9.661-4.866-19.183-14.514-24.278-24.6-2.125-4.206-3.697-8.147-3.493-8.758.266-.798 20.786-1.179 72.794-1.353l72.425-.242 9.712-15 9.712-15-82.389-.256c-71.595-.222-82.389-.448-82.389-1.721 0-9.431 15.725-27.862 29.477-34.551 12.147-5.907 12.926-5.972 71.653-5.972h53.71l9.58-14.927c5.269-8.21 9.58-15.185 9.58-15.5 0-.95-128.072-.41-133.953.565M88.191 193.025c-14.574 3.818-29.509 15.71-36.066 28.718-14.408 28.584-3.272 63.049 24.934 77.166 12.382 6.198 12.369 6.197 78.032 5.879 66.508-.322 63.411 0 76.577-7.979 43.306-26.246 32.538-92.645-16.914-104.305-10.638-2.508-116.667-2.072-126.563.521M152.5 428.076c-24.982 2.529-53.455 12.946-73.928 27.048-15.112 10.41-34.676 29.041-42.109 40.103l-2.504 3.727 2.056 6.366c3.388 10.485 12.619 19.967 26.196 26.905 9.661 4.936 9.739 4.919 15.293-3.475 9.87-14.917 26.95-29.956 43.29-38.119 7.416-3.705 18.225-7.631 21.01-7.631.988 0 2.223-.411 2.746-.912 1.418-1.362 17.636-3.09 28.45-3.031 29.423.16 55.325 10.611 77.744 31.367 3.284 3.04 6.185 5.314 6.447 5.052.261-.262 10.338-1.142 22.392-1.955 27.506-1.857 35.354-2.61 35.868-3.443.96-1.552-13.752-21.292-23.272-31.228-36.564-38.157-86.175-56.191-139.679-50.774m407.5 81.88c-1.925.458-6.076 1.351-9.224 1.984-3.148.634-6.973 1.803-8.5 2.6-1.527.796-3.321 1.45-3.986 1.454-2.708.014-17.946 8.899-25.123 14.648-16.559 13.267-27.893 31.527-33.738 54.358-3.883 15.167-2.244 44.383 3.178 56.651.766 1.733 1.393 3.571 1.393 4.085 0 2.297 7.246 15.483 11.853 21.569 10.258 13.553 19.142 21.164 33.186 28.433C546.08 704.558 556.36 706.5 586 706.5h22.5l5-7.571c8.88-13.446 19-29.377 19-29.91 0-.285-15.525-.75-34.5-1.031l-34.5-.513-6.5-2.834c-6.027-2.629-12.786-7.16-19.107-12.81-4.08-3.648-9.846-13.349-13.209-22.223-4.134-10.911-4.583-31.005-.928-41.496 14.262-40.93 58.054-53.519 93.043-26.748 10.16 7.773 9.46 7.641 13.847 2.62a904.508 904.508 0 0 1 8.408-9.447c2.505-2.77 6.767-7.677 9.472-10.904l4.917-5.868-2.585-2.132c-9.525-7.859-11.996-9.683-17.358-12.814-7.907-4.618-19.329-9.26-28-11.379-7.811-1.91-39.388-2.94-45.5-1.484m147.608 46.039c-9.559 1.719-21.337 7.453-30.021 14.616-34.948 28.827-36.402 86.862-2.936 117.233 15.059 13.666 30.601 18.54 59.349 18.612l17.5.044 11.242-17c6.184-9.35 11.246-17.337 11.25-17.75.005-.413-10.905-.759-24.242-.77-35.057-.028-41.102-1.279-50.212-10.389-4.504-4.504-8.603-13.926-6.83-15.699.554-.554 21.136-.821 51.023-.66l50.094.268.592-3.706c.91-5.691-1.281-27.515-3.493-34.794-7.592-24.986-22.223-40.628-45.424-48.566-5.772-1.975-29.829-2.888-37.892-1.439m187.892-.273c-11.002 2.698-22.434 12.388-28.391 24.065-3.461 6.784-4.109 5.32-4.109-9.287V557h-41v147h40.819l.45-33.75c.483-36.298.931-39.915 6.306-50.843 5.902-12.002 20.318-21.362 32.991-21.421 7.864-.036 7.434 1.242 7.434-22.103V555l-6.25.116c-3.437.064-7.15.337-8.25.606m114.198.374c-7.782 1.831-15.042 6.203-22.521 13.562-4.104 4.038-7.623 7.342-7.82 7.342-.196 0-.357-4.5-.357-10v-10h-41v147h40.907l.296-46.25.297-46.25 2.824-5.753c6.981-14.221 27.919-18.327 39.861-7.816 8.414 7.407 8.815 10.222 8.815 61.89V704h41.107l-.378-56.25c-.414-61.541-.129-58.465-6.513-70.497-9.087-17.126-33.352-26.374-55.518-21.157m146.87-.038c-39.765 9.973-61.96 45.907-55.581 89.987 1.957 13.529 10.24 29.401 20.688 39.647 15.374 15.074 34.141 21.308 64.153 21.308h14.827l8.043-12.25c4.424-6.737 9.691-14.837 11.704-18l3.659-5.75-24.78-.02c-27.368-.022-34.602-.711-41.488-3.947-8.202-3.856-15.22-12.63-16.022-20.033l-.271-2.5 51.25-.259 51.25-.259v-10.381c0-9.842-2.361-25.178-4.904-31.854-8.703-22.846-21.698-36.199-42.596-43.766-6.852-2.481-32.736-3.728-39.932-1.923m188.432-.327c-11.195 2.052-22.581 12.175-30.009 26.68-1.406 2.744-1.519 2.118-1.991-11l-.5-13.911h-41l-.256 73.25-.257 73.25h41.84l.404-35.75.404-35.75 2.67-6.961c6.319-16.477 20.65-27.491 35.849-27.553 8.339-.034 7.846 1.355 7.846-22.103V555l-6.25.136c-3.437.075-7.375.343-8.75.595m35.256 1.298c-2.955 1.188-6.249 6.707-6.249 10.471 0 13.523 20.936 15.28 23.433 1.967 1.708-9.105-7.999-16.131-17.184-12.438m.717 2.663c-3.501 2.396-3.94 3.28-3.958 7.969-.035 9.484 12.158 12.706 16.477 4.354 4.468-8.64-4.706-17.67-12.519-12.323m.027 7.808c0 4.222.348 5.5 1.5 5.5.825 0 1.5-.825 1.5-1.833 0-3.142 1.297-3.329 3.7-.533 2.644 3.077 4.141 2.508 2.556-.972-.588-1.29-.703-2.939-.255-3.663 1.573-2.546-.101-3.999-4.608-3.999H1381v5.5m3-2.5c0 1.506.522 2.046 1.75 1.81.963-.186 1.75-1 1.75-1.81s-.787-1.624-1.75-1.81c-1.228-.236-1.75.304-1.75 1.81m-668.049 23.32c-4.401 1.228-11.401 4.968-13.451 7.188-4.625 5.006-5.985 7.147-8.559 13.473-1.618 3.975-2.941 7.855-2.941 8.623 0 1.165 5.212 1.396 31.545 1.396h31.546l-.683-3.75c-.905-4.979-4.106-13.09-5.854-14.838-.77-.771-2.244-2.473-3.274-3.784-5.36-6.813-19.171-10.864-28.329-8.308m451.049-.394c-12.91 2.777-23.525 13.998-25.617 27.078l-.639 3.996h31.128c35.381 0 32.473.891 29.523-9.04-4.606-15.511-19.718-25.192-34.395-22.034M21.079 644.583c.048 1.165.285 1.402.604.605.289-.722.253-1.585-.079-1.917-.332-.332-.568.258-.525 1.312m0 5c.048 1.165.285 1.402.604.605.289-.722.253-1.585-.079-1.917-.332-.332-.568.258-.525 1.312m37.421 7.639c-4.995 1.772-13.151 7.628-16.107 11.565-1.533 2.042-3.082 3.938-3.442 4.213-.36.275-1.665 3.561-2.901 7.302l-2.247 6.801 2.638 3.988c7.785 11.763 25.234 28.415 42.059 40.137 38.147 26.576 91.543 34.858 139 21.56 3.85-1.079 8.418-2.598 10.151-3.375 1.733-.777 3.792-1.413 4.575-1.413 4.829 0 33.587-17.026 45.795-27.112 13.324-11.009 36.798-38.403 34.702-40.498-.342-.342-3.457-.086-6.922.568-12.58 2.376-28.715 4.271-65.301 7.668-3.988.371-8.076 1.387-9.5 2.362-22.447 15.365-62.681 20.561-92.477 11.943-20.667-5.978-47.484-24.826-58.06-40.808-3.848-5.814-13.387-7.943-21.963-4.901" fill-rule="evenodd"/><path fill="#d63c2b" stroke="#d63c2b" d="M641.994 159.423c-9.599 2.652-11.798 5.054-28.353 30.966-23.874 37.368-40.919 63.885-52.137 81.111-6.09 9.35-15.928 24.65-21.864 34-5.936 9.35-12.776 20.038-15.201 23.75l-4.407 6.75 19.734-.046 19.734-.045 6.955-11.205c3.825-6.162 16.2-25.728 27.5-43.48 11.3-17.752 21.895-34.449 23.545-37.104 14.78-23.78 29.847-47.12 30.419-47.12.386 0 3.54 4.613 7.01 10.25 3.471 5.637 8.455 13.625 11.076 17.75 4.313 6.787 16.449 26.268 26.27 42.171 2.076 3.362 3.58 6.307 3.342 6.546-.239.238-20.545.41-45.125.382l-44.691-.052 1.443 2.227c.794 1.224 4.744 7.401 8.777 13.726 4.034 6.325 7.977 12.263 8.763 13.196 1.304 1.548 5.415 1.7 47.072 1.741 38.75.038 45.795.264 46.644 1.497.55.799 4.825 7.761 9.5 15.471l8.5 14.018 19.701.038 19.702.039-4.953-7.479c-2.724-4.113-8.478-13.001-12.787-19.75a4381.511 4381.511 0 0 0-14.324-22.271c-3.569-5.5-11.097-17.2-16.729-26s-15.048-23.437-20.925-32.527a6801.34 6801.34 0 0 1-23.685-36.988c-15.218-23.952-19.71-28.939-28.219-31.326-6.753-1.895-6.31-1.886-12.287-.236m-555.822 1.653c-35.213 4.256-63.76 28.418-74.206 62.809-2.857 9.408-2.554 42.263.468 50.603 11.882 32.797 36.655 54.262 69.191 59.953 12.703 2.222 119.882 2.298 132.494.094 61.817-10.802 93.229-78.588 61.119-131.895-11.593-19.245-33.187-34.811-55.88-40.278-7.862-1.894-119.255-2.97-133.186-1.286M309 247.955V336h33.5V190.965l59.488.003c66.654.003 65.118-.148 73.491 7.222 15.931 14.024 10.931 40.702-9.075 48.419-4.576 1.765-8.261 1.891-55.154 1.891-27.637 0-50.249.065-50.25.145 0 .08 7.435 6.535 16.523 14.344 9.087 7.81 17.075 14.725 17.75 15.367 1.12 1.065 27.087 23.418 53.811 46.323 5.891 5.048 11.008 9.661 11.372 10.25.442.714 8.813 1.071 25.135 1.071h24.473l-33.861-28.25-33.862-28.25 12.727-.649c24.233-1.236 40.841-9.519 51.981-25.923 22.824-33.61 6.857-77.361-33.049-90.554-5.096-1.684-11.355-1.842-85.25-2.141l-79.75-.322v88.044m528-87.281c-65.824 6.891-101.225 79.711-65.545 134.826 11.955 18.467 30.065 31.582 52.045 37.692 7.79 2.165 9.588 2.232 68.644 2.572l60.645.348 3.138-5.306c1.725-2.918 6.035-9.693 9.577-15.056l6.439-9.75H908.56c-70.52 0-73.026-.187-85.885-6.399-40.187-19.415-43.357-75.838-5.61-99.846 12.837-8.165 13.075-8.202 53.935-8.5 20.075-.147 45.95-.377 57.5-.511l21-.244 9.697-14.5c5.334-7.975 9.721-14.825 9.75-15.222.052-.714-125.18-.813-131.947-.104m152 80.261c0 54.753.344 81.845 1.064 83.75 1.447 3.831 5.762 8.273 9.654 9.938 4.832 2.068 161.811 2.047 162.605-.021.295-.769 4.393-7.292 9.107-14.494 4.713-7.203 8.57-13.321 8.57-13.596 0-.275-35.437-.615-78.75-.756l-78.75-.256-.257-72.75-.256-72.75H989v80.935m264.549-79.791c-37.187 4.767-67.719 33.136-75.104 69.783-8.343 41.404 14.67 83.109 54.555 98.865 14 5.531 14.11 5.539 76.5 5.902l58 .337 9.554-14.765 9.554-14.766-66.054-.521c-64.742-.511-66.183-.565-72.554-2.724-17.896-6.063-33.521-21.503-38.461-38.005l-.674-2.25 73.318-.009 73.317-.009 9-14.127c4.95-7.77 9.15-14.516 9.333-14.991.186-.481-36.246-.864-82.18-.864h-82.513l.868-3.028c3.554-12.392 16.494-27.209 28.992-33.198 12.648-6.061 12.499-6.048 72.25-6.491 30.112-.224 54.75-.737 54.75-1.14 0-.404 3.539-6.141 7.864-12.75 4.325-6.608 8.391-13 9.035-14.204l1.171-2.189-61.785.126c-33.982.07-64.913.528-68.736 1.018M88.275 192.539c-51.051 13.75-58.092 83.686-10.775 107.033 12.278 6.058 16.567 6.429 74.338 6.42 64.647-.009 69.275-.678 84.651-12.238 37.992-28.562 26.536-88.201-19.388-100.936-8.799-2.439-119.911-2.68-128.826-.279m-22.768 273.45c-.35.566.051.734.941.393 1.732-.665 2.049-1.382.611-1.382-.518 0-1.216.445-1.552.989m-11.122 9.887c-12.567 12.099-18.387 19.88-18.375 24.569.025 10.506 11.35 23.767 26.655 31.212 5.184 2.522 9.534 4.418 9.667 4.214l4.141-6.371c4.31-6.631 4.751-10.558 1.568-13.97-1.041-1.117-2.181-3.192-2.533-4.612-.352-1.419-1.623-3.692-2.824-5.049-3.241-3.662-4.684-6.542-4.684-9.347 0-1.422-.865-3.045-2-3.754-1.1-.687-2-1.632-2-2.101 0-.468-.9-1.996-2-3.394-1.1-1.399-2-3.574-2-4.835 0-1.341-.725-2.481-1.75-2.749-1.667-.435-1.667-.463 0-.573.962-.064 1.75-.615 1.75-1.224 0-.683-.96-.868-2.5-.481-1.442.361-2.5.196-2.5-.392 0-.56.397-1.019.881-1.019.485 0 2.083-1.575 3.551-3.5 3.718-4.874 3.077-4.445-5.047 3.376m-.306 6.707c.048 1.165.285 1.402.604.605.289-.722.253-1.585-.079-1.917-.332-.332-.568.258-.525 1.312m530.734 27.1c.721.289 1.584.253 1.916-.079.332-.332-.258-.568-1.312-.525-1.165.048-1.402.285-.604.604m-504.3 5.296c-.333.539-.151 1.83.406 2.869.556 1.039.726 2.173.379 2.521-.347.347-.133.631.476.631 1.899 0 2.275-1.714.669-3.047-.843-.7-1.303-1.876-1.02-2.613.596-1.554-.022-1.799-.91-.361m636.237 40.683c.688.278 1.813.278 2.5 0 .688-.277.125-.504-1.25-.504s-1.937.227-1.25.504m12.063.021c.721.289 1.584.253 1.916-.079.332-.332-.258-.568-1.312-.525-1.165.048-1.402.285-.604.604m288.437.006c.962.252 2.538.252 3.5 0 .962-.251.175-.457-1.75-.457s-2.712.206-1.75.457m10.563-.006c.721.289 1.584.253 1.916-.079.332-.332-.258-.568-1.312-.525-1.165.048-1.402.285-.604.604m148.937-.021c.688.278 1.813.278 2.5 0 .688-.277.125-.504-1.25-.504s-1.937.227-1.25.504m206 7c.688.278 1.813.278 2.5 0 .688-.277.125-.504-1.25-.504s-1.937.227-1.25.504m-730.671 81.921c.048 1.165.285 1.402.604.605.289-.722.253-1.585-.079-1.917-.332-.332-.568.258-.525 1.312m449 2c.048 1.165.285 1.402.604.605.289-.722.253-1.585-.079-1.917-.332-.332-.568.258-.525 1.312M61.261 656.923c-12.137 3.071-23.759 15.666-25.62 27.765-.615 3.997-.374 4.523 5.275 11.5 9.585 11.838 16.626 18.253 20.232 18.435 2.12.106 2.673-.123 1.732-.718-.759-.481-1.027-.881-.595-.89.432-.008.275-.969-.35-2.136-.808-1.511-.816-1.924-.027-1.436 1.587.981 3.443-1.297 5.024-6.167.754-2.323 2.203-5.117 3.219-6.208 1.017-1.092 1.849-2.652 1.849-3.467 0-.816.417-1.741.927-2.056.51-.315 1.47-2.254 2.133-4.309s2.046-4.541 3.073-5.525c1.027-.984 1.867-2.646 1.867-3.693 0-1.048.92-2.549 2.043-3.336 1.124-.787 2.258-2.613 2.52-4.057.645-3.558-.423-3.324-1.713.375-.575 1.65-1.452 3-1.948 3-1.363 0-1.087-1.789.696-4.509 4.508-6.881-9.238-15.376-20.337-12.568M88 673.378c0 .207.787.995 1.75 1.75 1.586 1.243 1.621 1.208.378-.378-1.307-1.666-2.128-2.195-2.128-1.372m621.813 31.305c.721.289 1.584.253 1.916-.079.332-.332-.258-.568-1.312-.525-1.165.048-1.402.285-.604.604M60 715.893c0 .491.739 1.176 1.641 1.523 1.373.527 1.435.38.378-.893-1.44-1.735-2.019-1.916-2.019-.63m8 6.485c0 .207.787.995 1.75 1.75 1.586 1.243 1.621 1.208.378-.378-1.307-1.666-2.128-2.195-2.128-1.372" fill-rule="evenodd"/></svg>