<?xml version="1.0" standalone="no"?>
<!DOCTYPE svg PUBLIC "-//W3C//DTD SVG 20010904//EN"
 "http://www.w3.org/TR/2001/REC-SVG-20010904/DTD/svg10.dtd">
<svg version="1.0" xmlns="http://www.w3.org/2000/svg"
 width="300.000000pt" height="198.000000pt" viewBox="0 0 300.000000 198.000000"
 preserveAspectRatio="xMidYMid meet">
<metadata>
Created by potrace 1.10, written by Peter Selinger 2001-2011
</metadata>
<g transform="translate(0.000000,198.000000) scale(0.100000,-0.100000)"
fill="#000000" stroke="none">
<path d="M146 1626 c-47 -18 -94 -60 -112 -103 -29 -68 -9 -168 43 -215 43
-39 87 -48 243 -48 170 0 198 7 247 63 83 94 56 239 -53 293 -52 25 -307 32
-368 10z m355 -79 c23 -15 38 -37 47 -65 12 -37 12 -46 -5 -79 -33 -67 -58
-78 -196 -81 -140 -4 -185 6 -221 49 -46 54 -30 144 33 182 21 13 54 17 167
17 130 0 144 -2 175 -23z"/>
<path d="M660 1450 l0 -190 38 0 37 0 -3 155 -3 155 135 0 c123 0 138 -2 156
-20 25 -25 25 -51 3 -79 -16 -19 -30 -21 -135 -23 l-116 -3 105 -90 c99 -84
109 -90 160 -95 29 -3 53 -3 53 0 0 3 -32 30 -70 60 l-71 55 40 7 c55 9 79 24
101 61 40 64 14 147 -54 178 -35 16 -67 19 -208 19 l-168 0 0 -190z m279 -64
c-10 -21 -14 -23 -30 -13 -34 21 -31 37 6 37 33 0 34 -1 24 -24z"/>
<path d="M1342 1613 c-36 -51 -222 -344 -222 -349 0 -3 19 -4 41 -2 41 3 42 4
112 113 38 61 80 127 92 148 l22 38 51 -81 c29 -45 52 -83 52 -86 0 -2 -43 -4
-96 -4 l-96 0 20 -32 20 -32 99 3 99 2 19 -35 c18 -33 23 -36 63 -36 32 0 41
3 36 13 -57 92 -229 354 -238 359 -23 16 -55 7 -74 -19z m62 -22 c3 -5 -5 -11
-19 -13 -28 -6 -35 8 -7 15 9 3 18 5 19 6 1 0 4 -3 7 -8z m156 -238 c0 -8 -7
-8 -30 0 -28 11 -42 37 -20 37 5 0 7 8 4 18 -4 9 5 4 20 -13 14 -16 25 -35 26
-42z"/>
<path d="M1760 1628 c-73 -21 -123 -79 -136 -155 -8 -52 9 -104 49 -150 48
-55 78 -63 235 -63 l138 0 17 29 c9 16 17 31 17 33 0 1 -67 3 -149 3 -169 0
-189 7 -225 80 -17 35 -18 42 -5 78 25 70 51 81 205 87 l135 5 20 33 21 32
-144 -1 c-78 0 -159 -5 -178 -11z"/>
<path d="M2122 1453 l3 -188 182 -3 181 -2 21 29 c12 16 21 31 21 33 0 1 -76
1 -170 0 l-170 -4 0 161 0 161 -35 0 -35 0 2 -187z"/>
<path d="M2663 1630 c-50 -11 -103 -58 -125 -108 -37 -84 -9 -179 70 -233 33
-22 46 -24 181 -27 l146 -3 18 29 c9 17 17 32 17 34 0 1 -57 1 -127 -1 -146
-4 -190 6 -227 50 -14 17 -26 34 -26 37 0 4 71 6 157 4 l158 -2 22 35 22 35
-179 0 c-99 0 -180 3 -180 8 1 13 29 45 57 64 23 15 49 18 152 18 131 0 131 0
162 53 9 16 1 17 -128 16 -76 -1 -153 -5 -170 -9z m-73 -165 c10 -12 10 -18 0
-30 -7 -8 -16 -15 -20 -15 -12 0 -20 28 -14 45 4 8 10 15 14 15 4 0 13 -7 20
-15z"/>
<path d="M258 1046 c-93 -33 -175 -103 -205 -174 -49 -117 89 -185 368 -184
120 1 412 30 422 43 15 18 67 99 67 104 0 3 -15 3 -32 0 -82 -14 -375 -36
-484 -36 -67 -1 -147 4 -178 11 -32 6 -59 10 -61 8 -10 -10 17 -30 51 -39 39
-9 317 -13 364 -5 20 4 103 10 230 18 3 0 14 0 25 -1 17 -1 18 -3 4 -16 -8 -9
-26 -18 -40 -20 -69 -14 -225 -34 -309 -40 -91 -6 -248 7 -273 22 -7 4 -21 9
-31 10 -10 2 -36 13 -57 25 -36 20 -39 25 -39 66 l0 44 31 -26 c17 -14 34 -26
37 -26 4 0 20 16 36 36 75 94 241 112 329 34 32 -28 35 -28 103 -21 l69 7 -65
66 c-82 81 -146 108 -253 108 -40 -1 -88 -7 -109 -14z m201 -32 c42 -11 76
-27 95 -45 17 -16 34 -29 39 -29 4 0 7 -7 7 -15 0 -21 -37 -19 -69 4 -101 72
-274 59 -355 -28 -35 -37 -56 -40 -56 -8 0 54 138 136 229 137 25 0 74 -7 110
-16z"/>
<path d="M1166 875 c-55 -19 -87 -45 -113 -91 -50 -88 -38 -190 31 -259 46
-45 98 -65 172 -65 40 0 52 4 63 23 8 12 21 33 30 46 l15 24 -63 -6 c-116 -9
-170 24 -179 111 -5 56 14 103 53 128 36 23 102 20 139 -7 l30 -22 28 34 29
34 -27 22 c-51 41 -139 53 -208 28z m137 -30 c20 -2 44 -22 35 -30 -11 -11
-59 8 -69 27 -9 16 -8 19 2 12 8 -4 22 -9 32 -9z m-83 -4 c0 -5 -13 -11 -29
-14 -78 -16 -123 -134 -86 -223 16 -40 29 -53 69 -74 29 -15 32 -16 76 -19 18
-1 21 -4 11 -10 -7 -5 -27 -5 -43 -1 -33 10 -33 10 -52 10 -8 0 -28 12 -45 26
-83 69 -86 198 -7 272 34 31 106 54 106 33z"/>
<path d="M1484 776 c-39 -18 -71 -58 -84 -107 -30 -110 49 -208 167 -209 38 0
45 4 68 38 l25 37 -76 5 c-60 4 -79 9 -90 24 -8 11 -14 24 -14 29 0 5 47 8
110 5 l110 -3 0 40 c0 49 -26 102 -62 128 -34 25 -113 32 -154 13z m103 -71
c11 -8 23 -24 26 -35 5 -19 1 -20 -64 -20 -76 0 -83 7 -44 45 28 29 51 31 82
10z m57 -1 c3 -9 4 -20 0 -25 -3 -5 -1 -9 5 -9 5 0 9 -9 8 -20 -2 -29 -22 -18
-22 13 -1 14 -4 29 -8 33 -10 10 -9 24 2 24 5 0 12 -7 15 -16z m-180 -22 c-4
-19 0 -34 10 -45 9 -9 12 -18 7 -21 -18 -12 -18 -56 0 -78 24 -27 24 -31 -2
-16 -36 22 -77 138 -49 138 6 0 10 8 10 18 0 20 8 32 21 32 5 0 6 -13 3 -28z"/>
<path d="M1760 628 l0 -158 45 0 45 0 0 75 c0 105 23 145 81 145 16 0 19 7 19
50 0 44 -3 50 -20 50 -27 0 -74 -46 -66 -66 3 -8 -3 -27 -14 -43 -13 -16 -24
-52 -28 -89 -11 -98 -27 -80 -30 36 -3 86 -1 103 12 108 9 4 23 1 31 -6 13
-11 15 -7 15 21 0 34 -1 34 -45 34 l-45 1 0 -158z"/>
<path d="M2010 628 l0 -158 45 0 45 0 0 103 c0 88 3 106 18 120 26 23 58 21
76 -5 12 -17 16 -48 16 -120 l0 -98 46 0 46 0 -4 131 -3 131 -33 29 c-21 18
-43 29 -63 29 -34 0 -85 -23 -92 -42 -3 -7 -6 -2 -6 12 -1 23 -5 25 -46 25
l-45 0 0 -157z m228 106 c20 -14 22 -23 22 -115 0 -64 -4 -98 -10 -94 -5 3
-10 35 -10 71 0 72 -18 119 -50 129 -11 4 -18 11 -15 16 9 14 38 11 63 -7z
m-143 -4 c3 -5 -2 -21 -11 -36 -12 -18 -18 -48 -18 -97 -1 -52 -5 -72 -14 -72
-10 0 -13 24 -13 100 0 55 0 103 0 108 1 11 49 9 56 -3z"/>
<path d="M2442 774 c-49 -25 -75 -69 -80 -135 -8 -106 46 -167 156 -176 56 -4
57 -4 80 31 12 20 22 38 22 41 0 3 -27 5 -61 5 -66 0 -93 10 -110 41 -10 20
-9 21 103 18 l113 -2 -2 42 c-2 49 -27 95 -65 124 -36 27 -114 32 -156 11z
m167 -89 c-3 -2 -16 10 -29 28 l-23 32 29 -27 c15 -15 26 -30 23 -33z m-172
24 c-15 -20 -12 -53 5 -76 6 -7 3 -21 -8 -38 -16 -24 -16 -27 1 -45 10 -11 15
-23 12 -27 -9 -9 -47 36 -47 57 0 9 -5 21 -11 27 -8 8 -6 19 5 41 8 16 12 33
8 36 -4 4 4 16 18 26 32 25 34 25 17 -1z m118 -14 c39 -38 32 -45 -45 -45
l-71 0 16 29 c24 47 63 54 100 16z m75 -29 c0 -34 -35 -48 -37 -16 -1 14 4 20
18 20 10 0 19 -2 19 -4z"/>
<path d="M2724 781 c-2 -2 -4 -73 -4 -158 l0 -153 48 0 47 0 0 84 c0 75 3 87
24 110 13 14 35 26 49 28 22 3 25 8 26 51 1 39 -2 47 -17 47 -28 0 -55 -18
-71 -48 l-15 -27 -1 35 c0 34 -1 35 -41 35 -22 0 -43 -2 -45 -4z m75 -55 c7
-8 22 -12 34 -9 20 4 20 3 6 -9 -34 -28 -57 -84 -56 -134 0 -27 -2 -48 -6 -46
-4 1 -12 2 -18 2 -14 0 -9 192 5 202 16 11 22 10 35 -6z"/>
<path d="M2946 773 c-4 -9 0 -23 9 -32 13 -14 17 -14 32 1 13 14 14 20 3 32
-16 21 -36 20 -44 -1z"/>
<path d="M740 674 c-36 -7 -131 -19 -213 -25 -121 -11 -165 -11 -245 0 -166
23 -173 24 -197 11 -108 -58 9 -246 184 -297 120 -35 265 5 357 98 26 26 46
51 43 53 -8 8 -182 -21 -224 -38 -82 -32 -179 -10 -248 55 -44 43 -61 47 -95
23 -21 -15 -22 -14 -22 18 0 67 17 72 190 50 87 -11 170 -10 365 3 170 11 104
-23 -89 -46 -87 -10 -143 -10 -326 4 -14 1 -27 -2 -30 -7 -17 -32 232 -45 415
-21 l136 18 40 58 c22 33 36 58 32 58 -4 -1 -37 -7 -73 -15z m-558 -167 c50
-49 107 -69 190 -69 50 0 63 1 98 15 30 11 104 26 109 22 9 -10 -24 -36 -78
-62 -46 -23 -69 -28 -131 -28 -87 0 -144 20 -208 72 -34 28 -42 40 -40 64 1
16 5 29 8 29 4 0 27 -19 52 -43z"/>
</g>
</svg>
