<?xml version="1.0" standalone="no"?>
<!DOCTYPE svg PUBLIC "-//W3C//DTD SVG 20010904//EN"
 "http://www.w3.org/TR/2001/REC-SVG-20010904/DTD/svg10.dtd">
<svg version="1.0" xmlns="http://www.w3.org/2000/svg"
 width="200.000000pt" height="200.000000pt" viewBox="0 0 200.000000 200.000000"
 preserveAspectRatio="xMidYMid meet">
<metadata>
Created by potrace 1.10, written by Peter Selinger 2001-2011
</metadata>
<g transform="translate(0.000000,200.000000) scale(0.100000,-0.100000)"
fill="#000000" stroke="none">
<path d="M847 1875 c-154 -29 -301 -99 -412 -196 -309 -269 -334 -705 -57
-1000 100 -107 218 -179 382 -232 56 -19 89 -22 240 -22 149 0 185 3 245 21
293 88 494 285 559 545 20 82 21 233 0 319 -19 82 -81 211 -130 270 -82 98
-231 205 -346 248 -149 55 -338 74 -481 47z m376 -49 c32 -9 78 -25 102 -36
24 -11 47 -20 51 -20 18 0 132 -79 185 -128 176 -163 256 -383 219 -598 -47
-262 -272 -491 -560 -571 -93 -25 -339 -25 -430 1 -261 75 -445 237 -532 467
-29 77 -32 94 -32 204 -1 106 3 130 28 202 45 134 154 278 272 361 61 42 190
100 259 116 39 8 79 18 90 20 44 11 292 -2 348 -18z"/>
<path d="M935 1806 c-11 -8 -16 -23 -13 -41 3 -26 7 -30 33 -30 22 0 31 5 34
20 3 17 1 17 -12 6 -19 -15 -37 -7 -37 16 0 11 7 14 25 11 16 -3 25 -1 25 7 0
18 -36 25 -55 11z"/>
<path d="M1009 1790 c-1 -16 -2 -35 -3 -42 -1 -6 5 -13 12 -15 7 -3 12 4 12
17 0 13 5 20 13 17 6 -2 11 -12 11 -21 -1 -9 4 -16 12 -16 10 0 14 13 14 40 0
40 -13 53 -24 25 -8 -22 -26 -18 -26 5 0 32 -20 23 -21 -10z"/>
<path d="M852 1803 c-16 -3 -22 -9 -18 -20 3 -8 6 -26 6 -39 0 -20 5 -24 29
-24 39 0 49 18 14 22 l-28 4 25 11 c24 11 24 12 3 12 -28 1 -31 21 -3 21 11 0
20 5 20 10 0 10 -7 11 -48 3z"/>
<path d="M1100 1786 c0 -13 -3 -31 -6 -40 -3 -9 -1 -16 5 -16 6 0 11 7 11 15
0 8 5 15 10 15 6 0 10 -6 10 -14 0 -14 18 -32 25 -25 2 2 6 22 10 44 6 36 5
38 -8 23 -18 -23 -23 -23 -30 2 -7 28 -27 25 -27 -4z"/>
<path d="M772 1782 c-13 -4 -22 -11 -20 -17 2 -5 7 -9 11 -7 4 1 13 -11 18
-28 6 -16 14 -30 18 -30 16 0 19 13 9 36 -8 17 -8 27 2 39 14 17 5 19 -38 7z"/>
<path d="M1195 1774 c-20 -20 -16 -53 8 -68 39 -24 79 44 41 71 -23 17 -29 16
-49 -3z m45 -28 c0 -20 -19 -31 -32 -18 -6 6 -7 15 -4 21 10 16 36 13 36 -3z"/>
<path d="M690 1746 c0 -8 5 -18 10 -21 13 -8 13 -35 0 -35 -6 0 -15 11 -20 25
-10 26 -30 34 -30 13 0 -7 9 -24 19 -37 14 -19 24 -22 45 -17 30 7 33 26 10
61 -18 28 -34 33 -34 11z"/>
<path d="M1273 1725 c-19 -40 -18 -41 22 -50 29 -6 29 -6 10 10 -16 13 -18 19
-7 35 15 24 15 40 2 40 -6 0 -18 -16 -27 -35z"/>
<path d="M1340 1701 c-15 -30 -12 -49 11 -61 41 -23 90 35 57 68 -18 18 -56
14 -68 -7z m56 -12 c9 -16 -12 -33 -31 -25 -14 5 -15 9 -5 21 15 18 26 19 36
4z"/>
<path d="M585 1696 c-18 -13 -18 -14 3 -36 12 -13 22 -27 22 -32 0 -17 -20 -7
-36 17 -9 14 -23 25 -32 25 -12 0 -13 -3 -4 -12 20 -20 14 -31 -13 -24 -31 8
-32 -1 -3 -31 21 -23 21 -23 2 -38 -10 -8 -22 -15 -26 -15 -13 0 -9 18 5 23 6
2 9 8 5 12 -4 4 -14 2 -23 -5 -9 -7 -15 -8 -15 -2 0 6 5 12 12 14 7 3 8 10 4
17 -6 9 -13 8 -27 -8 -24 -26 -24 -27 9 -56 29 -26 18 -35 -14 -10 -10 8 -26
14 -34 14 -12 0 -12 -2 3 -13 25 -19 21 -26 -13 -20 -18 4 -30 2 -30 -4 0 -12
53 -52 69 -52 17 0 13 18 -6 29 -15 9 -14 10 9 11 37 0 123 81 106 98 -16 16
-2 28 16 13 18 -15 59 7 51 27 -9 25 6 34 26 16 26 -23 26 2 0 34 -22 25 -39
28 -66 8z"/>
<path d="M955 1683 c-138 -13 -295 -79 -377 -157 -61 -58 -111 -132 -139 -204
-30 -76 -33 -250 -6 -329 56 -160 198 -291 380 -348 112 -36 273 -36 384 0
227 72 382 249 399 458 13 152 -31 278 -137 391 -70 75 -144 123 -240 154 -86
29 -187 42 -264 35z m194 -48 c212 -50 387 -230 410 -419 18 -152 -25 -279
-132 -390 -74 -76 -117 -104 -217 -140 -215 -78 -463 -25 -619 133 -103 104
-151 219 -145 346 6 119 49 218 133 309 74 79 191 145 296 166 67 13 206 11
274 -5z"/>
<path d="M930 1611 c-31 -5 -36 -10 -44 -47 -7 -36 -14 -44 -46 -57 -36 -14
-40 -13 -79 10 l-41 24 -35 -27 c-40 -30 -41 -34 -20 -75 15 -27 14 -31 -7
-60 -21 -27 -27 -30 -72 -28 -48 3 -50 2 -62 -31 -18 -50 -17 -53 21 -79 26
-17 35 -31 35 -51 0 -23 -7 -30 -46 -45 l-45 -17 6 -42 c9 -52 13 -56 59 -58
27 -1 42 -8 53 -24 14 -22 13 -25 -15 -56 -33 -35 -32 -46 11 -86 24 -22 25
-23 65 -7 39 16 42 16 71 -6 19 -14 29 -29 27 -38 -19 -64 -19 -65 29 -85 l46
-19 33 32 c28 27 40 32 72 29 34 -3 41 -8 57 -40 17 -35 22 -38 62 -38 48 0
60 10 70 60 5 30 12 37 43 47 32 10 40 9 70 -12 l35 -24 38 26 c43 28 45 35
24 76 -13 25 -13 31 1 52 14 22 21 24 68 19 l51 -6 15 39 c8 21 16 40 17 43 2
3 -13 16 -32 29 -55 37 -48 87 15 106 45 13 50 22 36 68 -11 39 -14 42 -54 47
-33 4 -45 11 -56 32 -13 24 -12 28 15 54 35 34 35 40 0 82 l-28 32 -44 -15
c-41 -15 -45 -14 -69 4 -14 10 -24 27 -23 37 1 11 3 30 5 43 3 21 -4 27 -44
44 l-47 19 -27 -31 c-23 -27 -32 -31 -67 -29 -38 3 -44 8 -65 46 -13 23 -29
41 -35 41 -7 -1 -28 -4 -47 -8z m63 -63 c16 -33 22 -36 74 -42 54 -6 58 -5 89
25 28 27 35 29 53 19 19 -10 21 -17 16 -54 -6 -41 -5 -43 33 -70 38 -26 43
-27 81 -15 32 10 43 9 56 -1 22 -18 19 -36 -10 -58 -30 -24 -30 -25 -8 -73 15
-34 21 -38 65 -44 42 -6 48 -10 48 -30 0 -19 -10 -28 -44 -43 -39 -18 -44 -23
-49 -63 -4 -33 -2 -46 11 -55 53 -38 54 -41 47 -63 -6 -21 -11 -22 -52 -16
-43 6 -48 4 -76 -26 -31 -35 -31 -33 -3 -100 5 -10 -1 -20 -18 -28 -22 -12
-28 -11 -52 8 -33 26 -41 26 -98 1 -41 -17 -46 -23 -52 -60 -6 -36 -9 -40 -35
-40 -23 0 -31 7 -43 35 -12 29 -20 35 -44 35 -16 0 -43 3 -59 6 -25 5 -35 0
-60 -26 -27 -29 -33 -31 -53 -20 -19 10 -22 18 -17 51 5 35 2 41 -26 61 -18
12 -35 26 -38 31 -4 6 -25 3 -52 -6 -43 -14 -46 -14 -63 4 -16 18 -16 20 2 42
10 12 23 25 28 28 5 4 2 24 -6 45 -14 35 -21 40 -62 48 -31 6 -48 15 -52 28
-7 24 -2 30 39 44 32 11 44 33 46 84 1 18 -9 31 -34 47 -31 20 -33 25 -24 46
10 21 16 23 59 19 41 -4 49 -2 54 15 4 11 17 30 31 43 l25 23 -22 35 -21 35
23 17 c23 17 25 17 61 -6 l38 -24 54 21 c51 19 55 24 61 59 4 25 12 40 24 43
28 7 36 3 55 -35z"/>
<path d="M925 1441 c-24 -26 -27 -35 -22 -72 8 -63 26 -74 58 -38 15 16 24 30
20 31 -20 4 -37 3 -42 -5 -4 -5 -11 -7 -17 -3 -17 10 14 60 46 74 32 13 82 2
82 -18 0 -6 4 -9 9 -6 5 3 9 -5 9 -17 0 -20 -5 -23 -32 -19 l-31 4 25 -18 c14
-10 29 -24 34 -32 21 -35 36 51 17 101 -10 26 -55 47 -101 47 -16 0 -37 -11
-55 -29z"/>
<path d="M1106 1413 c20 -43 7 -91 -40 -153 -25 -33 -46 -65 -46 -70 0 -6 -3
-10 -8 -10 -9 0 -52 -93 -52 -114 0 -37 103 -51 133 -18 26 29 20 32 -20 11
-41 -21 -63 -24 -63 -9 0 5 -6 9 -12 7 -43 -8 20 135 65 149 24 7 97 55 121
80 26 25 19 61 -20 104 -38 41 -73 55 -58 23z m57 -87 c5 -14 -80 -113 -89
-103 -10 10 5 39 16 32 5 -3 11 -1 11 4 1 6 2 17 3 24 1 6 7 11 13 10 6 -1 10
3 10 10 -1 34 4 46 17 41 8 -3 17 -11 19 -18z"/>
<path d="M785 1354 c-92 -99 -92 -125 2 -169 32 -15 66 -34 76 -43 21 -19 22
-10 2 29 -9 17 -21 27 -27 23 -6 -4 -8 -3 -5 3 3 5 -1 29 -9 53 -14 39 -14 49
1 93 9 27 14 52 11 55 -3 2 -26 -17 -51 -44z m23 -101 c6 -20 10 -39 8 -40
-12 -12 -57 12 -62 33 -14 55 37 62 54 7z"/>
<path d="M855 1378 c-11 -33 -12 -118 -2 -132 7 -10 34 -19 65 -23 34 -4 52
-10 52 -19 0 -17 -52 -19 -81 -4 -23 13 -26 -2 -4 -20 8 -7 15 -17 15 -22 0
-5 7 -25 16 -46 l16 -37 18 49 c11 26 27 57 37 68 17 19 15 21 -45 77 -51 47
-62 63 -62 89 0 31 -16 44 -25 20z m35 -93 c12 8 35 -24 24 -35 -17 -17 -54 0
-54 24 0 28 14 44 18 22 2 -9 7 -14 12 -11z m60 -123 c0 -13 -12 -22 -22 -16
-10 6 -1 24 13 24 5 0 9 -4 9 -8z"/>
<path d="M985 1317 c-11 -7 -22 -13 -24 -14 -7 -4 41 -63 51 -63 15 0 37 31
38 52 0 10 -9 22 -19 28 -23 12 -21 12 -46 -3z m43 -39 c-2 -6 -10 -14 -16
-16 -7 -2 -10 2 -6 12 7 18 28 22 22 4z"/>
<path d="M1195 1249 c-4 -5 -8 -36 -9 -69 -1 -32 -8 -65 -14 -73 -10 -12 -9
-16 4 -21 10 -4 14 -2 11 6 -2 7 3 31 11 53 8 22 14 49 14 60 0 13 7 6 18 -19
10 -21 23 -42 30 -46 21 -13 1 -48 -30 -55 -17 -4 -32 -11 -35 -16 -4 -5 -13
-5 -23 0 -13 7 -25 2 -50 -20 -43 -39 -21 -48 44 -20 25 12 52 21 60 21 26 0
74 51 73 78 -1 58 -85 154 -104 121z"/>
<path d="M1138 1219 c-10 -5 -18 -18 -18 -27 0 -13 2 -14 9 -3 13 20 20 -8 10
-36 -5 -12 -5 -25 0 -27 8 -6 31 59 31 88 0 18 -8 20 -32 5z"/>
<path d="M714 1167 c-12 -12 -32 -30 -45 -39 -33 -22 -17 -48 42 -68 24 -8 55
-21 67 -28 34 -20 36 -11 7 39 -13 24 -25 54 -25 66 0 26 -10 53 -19 53 -3 0
-16 -10 -27 -23z m34 -59 c12 -43 5 -47 -29 -19 -24 19 -24 19 -4 39 11 11 21
19 21 18 1 0 7 -18 12 -38z"/>
<path d="M790 1141 c0 -31 47 -124 86 -169 88 -104 -19 -79 -113 26 -42 47
-65 53 -42 10 21 -40 77 -88 134 -114 44 -20 55 -30 55 -49 0 -13 5 -27 10
-30 6 -4 10 13 10 44 0 50 1 51 29 51 l29 0 -18 -36 c-10 -20 -16 -42 -13 -50
8 -20 23 -7 23 21 0 22 3 23 35 18 68 -11 189 40 244 103 25 29 61 90 61 104
0 21 -19 8 -44 -31 -43 -65 -79 -97 -137 -123 -64 -29 -139 -43 -139 -27 0 6
12 11 28 11 25 1 25 2 8 12 -18 10 -14 14 35 35 51 23 53 25 35 39 -11 8 -40
14 -65 14 -32 0 -42 -3 -31 -9 8 -6 18 -7 22 -5 17 11 7 -26 -13 -44 -20 -19
-59 -19 -59 -1 0 5 -6 6 -14 3 -9 -3 -20 4 -27 18 -7 12 -17 28 -23 35 -29 33
-36 43 -36 53 0 5 -5 10 -10 10 -12 0 -30 41 -23 53 3 4 14 -2 25 -15 11 -13
23 -23 26 -23 4 0 23 -15 42 -33 19 -17 39 -32 45 -32 14 0 -105 111 -143 133
-31 18 -32 18 -32 -2z"/>
<path d="M1427 1652 c-25 -27 -21 -51 10 -65 21 -9 27 -9 31 1 2 7 10 19 18
26 19 20 18 33 -5 46 -27 14 -35 13 -54 -8z m50 -19 c4 -10 -37 -26 -45 -18
-3 3 1 12 8 20 14 17 31 16 37 -2z"/>
<path d="M1492 1591 c-17 -15 -29 -30 -26 -34 7 -7 74 44 74 56 0 13 -15 7
-48 -22z"/>
<path d="M1518 1569 c-25 -14 -23 -56 2 -64 11 -3 20 -12 20 -20 0 -7 8 -15
17 -17 10 -2 18 -10 19 -18 0 -8 6 -30 13 -47 16 -40 45 -46 35 -8 -5 21 -3
25 14 25 21 0 39 17 29 27 -4 3 -20 0 -38 -6 -42 -15 -46 -8 -13 22 35 33 24
49 -28 40 -28 -4 -39 -3 -34 5 3 6 -3 13 -14 17 -24 8 -26 23 -4 32 10 4 22
-1 29 -10 17 -24 27 -21 23 6 -3 25 -41 34 -70 16z"/>
<path d="M401 1423 c-8 -15 -13 -15 -37 -5 -17 9 -30 10 -37 3 -6 -6 4 -16 29
-28 l39 -17 -47 -4 c-55 -4 -62 -19 -19 -45 22 -13 28 -22 24 -38 -5 -16 -12
-20 -37 -17 -17 2 -33 -1 -36 -7 -3 -5 10 -11 28 -13 17 -2 32 -8 32 -13 0 -6
-15 -9 -32 -7 -31 3 -33 1 -36 -29 -3 -32 -2 -33 33 -33 42 0 39 -16 -6 -27
-39 -11 -41 -26 -3 -38 42 -14 46 -29 7 -33 -36 -4 -46 -22 -13 -22 23 0 27
-18 5 -26 -31 -12 -13 -24 28 -18 l42 6 -25 -21 c-14 -11 -28 -21 -32 -21 -5
0 -8 -7 -8 -15 0 -11 12 -15 53 -15 45 1 50 2 34 14 -9 7 -16 22 -16 32 4 44
-1 55 -21 49 -14 -5 -20 -2 -20 9 0 9 7 16 15 16 18 0 20 31 4 47 -9 9 -9 20
0 43 9 28 8 33 -9 37 -26 7 -26 23 1 23 14 0 19 5 16 14 -3 7 -1 18 5 24 6 6
11 32 11 57 0 25 5 45 11 45 11 0 46 62 46 80 0 16 -18 11 -29 -7z"/>
<path d="M1664 1349 c-37 -11 -48 -30 -30 -54 10 -14 21 -16 55 -10 25 4 40
12 38 18 -3 7 -11 10 -18 8 -41 -11 -59 -12 -59 -2 0 6 14 14 30 18 17 4 30
12 31 18 1 13 -11 15 -47 4z"/>
<path d="M1655 1260 c-17 -7 -16 -9 10 -10 l30 0 -25 -20 c-14 -10 -22 -21
-20 -24 9 -8 90 6 90 16 0 5 -9 6 -20 3 -26 -8 -25 2 3 26 l22 18 -35 0 c-19
0 -44 -4 -55 -9z"/>
<path d="M1655 1180 c-4 -6 10 -10 35 -10 49 0 45 -15 -6 -24 -19 -4 -34 -12
-32 -18 6 -16 81 -39 92 -28 6 6 4 11 -5 14 -43 14 -44 15 -21 21 15 5 22 15
22 31 0 21 -5 24 -39 24 -22 0 -43 -4 -46 -10z"/>
<path d="M1646 1068 c-8 -32 -7 -38 3 -38 5 0 13 9 16 20 4 11 10 18 15 15 5
-3 7 -12 3 -20 -3 -8 0 -15 5 -15 6 0 13 8 15 18 3 12 5 11 6 -6 1 -27 24 -25
29 2 5 24 -6 32 -49 40 -32 6 -37 4 -43 -16z"/>
<path d="M1630 1011 c0 -5 7 -11 15 -15 19 -7 20 -28 1 -24 -8 2 -16 -1 -18
-7 -5 -14 64 -25 79 -13 26 21 15 47 -24 57 -46 13 -53 13 -53 2z"/>
<path d="M1604 925 c-13 -32 24 -63 41 -35 3 6 12 10 18 10 7 0 6 -4 -3 -10
-18 -11 -7 -25 15 -17 20 8 19 43 -1 51 -10 4 -25 -1 -35 -10 -21 -19 -27 -6
-7 14 9 9 8 12 -5 12 -10 0 -20 -7 -23 -15z"/>
<path d="M330 911 c-15 -4 -20 -10 -13 -14 6 -4 19 -4 30 -1 15 6 16 4 6 -7
-19 -19 -16 -29 10 -29 16 0 18 -3 8 -9 -7 -5 -12 -14 -10 -20 5 -12 69 35 69
50 0 6 -9 7 -20 4 -11 -4 -20 -2 -20 4 0 6 5 11 10 11 6 0 10 5 10 10 0 11
-42 12 -80 1z"/>
<path d="M1570 875 c0 -5 75 -45 85 -45 16 0 1 22 -25 35 -28 15 -60 20 -60
10z"/>
<path d="M408 826 c-16 -19 -24 -37 -20 -40 13 -8 92 6 92 16 0 6 -9 12 -20
15 -15 4 -19 11 -15 24 10 29 -7 22 -37 -15z"/>
<path d="M1550 836 c0 -9 11 -22 25 -28 14 -6 24 -16 22 -22 -6 -17 -37 -19
-63 -5 -35 19 -38 7 -8 -39 27 -41 50 -48 39 -11 -5 15 -3 19 8 17 16 -3 67
49 67 69 0 6 -8 9 -19 6 -10 -3 -31 3 -45 12 -24 16 -26 16 -26 1z"/>
<path d="M453 769 c-18 -12 -33 -25 -33 -30 0 -14 26 -10 40 6 7 8 16 15 21
15 5 0 9 -7 9 -15 0 -20 19 -19 26 0 6 14 -11 45 -25 45 -3 0 -21 -10 -38 -21z"/>
<path d="M527 681 c-6 -24 15 -44 40 -39 12 2 18 12 18 28 0 33 -49 42 -58 11z"/>
<path d="M1414 685 c-9 -23 3 -45 24 -45 29 0 48 26 32 45 -7 8 -21 15 -32 15
-10 0 -21 -7 -24 -15z"/>
<path d="M643 615 c-17 -35 -10 -64 8 -32 15 27 32 21 25 -9 -9 -36 13 -27 36
15 20 34 17 54 -4 33 -18 -18 -28 -15 -28 8 0 31 -19 24 -37 -15z"/>
<path d="M1291 631 c-11 -7 -10 -15 8 -45 13 -20 26 -36 30 -36 11 0 51 39 51
50 0 30 -58 51 -89 31z m55 -22 c3 -6 1 -16 -5 -22 -9 -9 -14 -8 -21 3 -5 8
-10 18 -10 23 0 11 28 8 36 -4z"/>
<path d="M740 600 c0 -14 -3 -35 -6 -47 -5 -17 -2 -23 10 -23 9 0 16 7 16 15
0 8 10 19 21 26 21 11 21 10 15 -26 l-7 -36 38 3 c34 3 38 6 41 32 5 37 -4 45
-58 48 -25 2 -50 10 -57 18 -11 13 -12 11 -13 -10z m110 -50 c0 -11 -7 -20
-15 -20 -15 0 -21 21 -8 33 12 13 23 7 23 -13z"/>
<path d="M1229 605 c-4 -25 -1 -76 5 -82 4 -4 12 0 17 10 7 12 17 16 30 12 27
-9 24 7 -9 38 -27 26 -41 33 -43 22z"/>
<path d="M1148 583 c-21 -5 -22 -10 -7 -52 12 -34 25 -38 53 -18 15 11 17 19
9 43 -10 29 -23 36 -55 27z"/>
<path d="M896 571 c-2 -3 -7 -23 -11 -44 l-7 -37 36 0 c20 0 36 5 36 10 0 6
-9 10 -20 10 -11 0 -20 5 -20 11 0 6 7 9 15 5 8 -3 15 -1 15 4 0 6 -4 10 -10
10 -5 0 -10 4 -10 10 0 5 7 7 15 4 8 -4 15 -2 15 4 0 11 -48 23 -54 13z"/>
<path d="M970 531 c0 -23 5 -41 10 -41 6 0 10 7 10 16 0 9 6 14 13 12 6 -3 12
-10 12 -16 0 -7 4 -12 9 -12 5 0 10 17 10 37 1 36 -1 38 -31 41 -32 3 -33 2
-33 -37z"/>
<path d="M1065 558 c-6 -22 -12 -68 -8 -68 2 0 12 6 23 13 17 10 22 9 30 -3
18 -30 23 1 4 35 -19 35 -41 46 -49 23z"/>
<path d="M1569 564 c-35 -38 -164 -123 -221 -147 -37 -15 -52 -17 -60 -9 -17
17 -45 15 -52 -3 -3 -8 -1 -15 5 -15 6 0 8 -4 5 -9 -4 -5 -30 -12 -59 -16 -59
-8 -70 -13 -62 -26 4 -5 14 -5 26 2 17 8 23 7 35 -8 17 -23 18 -36 2 -30 -7 2
-12 10 -10 16 1 6 -5 11 -14 11 -10 0 -14 -7 -12 -22 2 -13 10 -23 19 -23 9 0
24 -6 33 -14 13 -11 17 -11 22 3 3 9 12 16 20 16 8 0 14 10 14 25 0 20 -5 25
-25 25 -14 0 -25 5 -25 10 0 6 6 10 13 10 6 0 22 3 34 6 17 5 23 0 34 -30 7
-20 19 -36 26 -36 18 0 16 16 -4 51 -21 35 -14 43 26 34 30 -6 44 -25 19 -25
-20 0 4 -17 34 -24 31 -7 48 10 21 22 -18 7 -30 62 -13 62 5 0 18 -13 30 -30
12 -16 26 -30 31 -30 16 0 10 23 -13 47 l-22 23 35 30 c35 30 59 38 59 20 0
-6 -11 -15 -25 -20 -14 -5 -25 -16 -25 -25 0 -20 44 -40 67 -30 15 7 13 9 -11
14 -16 3 -31 12 -34 20 -3 10 0 12 13 7 11 -4 22 -1 27 6 6 10 11 9 19 -4 5
-10 14 -18 19 -18 18 0 10 24 -15 50 -22 23 -24 29 -11 39 16 14 40 6 31 -10
-4 -5 3 -9 14 -9 12 0 21 7 21 15 0 19 9 19 30 0 20 -18 68 -25 70 -10 1 6 -8
12 -19 15 -11 3 -36 20 -56 38 -20 17 -38 32 -39 32 -1 0 -13 -12 -27 -26z
m33 -19 c0 -5 -5 -11 -11 -13 -6 -2 -11 4 -11 13 0 9 5 15 11 13 6 -2 11 -8
11 -13z m-362 -230 c0 -8 -7 -15 -15 -15 -16 0 -20 12 -8 23 11 12 23 8 23 -8z"/>
<path d="M400 570 c0 -5 5 -10 10 -10 6 0 10 -4 10 -10 0 -5 -9 -10 -19 -10
-28 0 -36 -18 -17 -39 9 -10 16 -22 15 -27 -5 -26 4 -25 36 6 26 25 38 31 46
23 9 -9 5 -18 -15 -36 -14 -13 -26 -29 -26 -36 0 -21 25 -11 45 19 23 34 28
36 45 15 10 -12 9 -16 -4 -21 -18 -7 -22 -34 -5 -34 6 0 19 10 30 23 14 17 18
19 19 6 0 -9 -11 -28 -25 -42 -19 -18 -22 -27 -14 -33 12 -7 42 21 52 49 3 8
10 6 20 -8 8 -11 18 -17 22 -13 15 15 -8 45 -55 71 -42 24 -50 33 -50 58 0 33
-17 40 -22 9 -3 -18 -7 -17 -41 15 -38 35 -57 43 -57 25z m50 -48 c0 -11 -37
-32 -44 -25 -11 11 -6 21 12 26 28 8 32 7 32 -1z"/>
<path d="M1693 419 c-50 -47 -53 -69 -17 -98 29 -23 31 -22 92 27 48 40 51 49
18 61 -13 5 -26 19 -29 30 -7 29 -16 27 -64 -20z m42 -49 c16 -17 16 -20 2
-20 -8 0 -17 -6 -20 -12 -6 -17 -41 3 -45 25 -3 13 7 20 39 26 3 0 14 -8 24
-19z"/>
<path d="M302 424 c-30 -21 -28 -45 7 -78 21 -20 35 -26 50 -21 12 3 21 11 21
16 0 5 5 9 10 9 6 0 3 -11 -6 -25 -15 -23 -13 -45 5 -45 9 0 41 66 41 85 0 20
-12 19 -56 -7 -34 -20 -37 -20 -31 -4 10 25 -1 40 -19 25 -8 -6 -18 -9 -22 -5
-4 4 4 17 18 28 22 18 25 18 36 4 12 -17 34 -22 34 -8 0 14 -35 42 -51 42 -8
0 -25 -7 -37 -16z"/>
<path d="M700 392 c0 -5 11 -14 25 -20 27 -13 35 -52 10 -52 -18 0 -19 12 -3
28 9 9 7 12 -9 12 -29 0 -37 -27 -13 -42 11 -7 20 -18 20 -25 0 -12 49 -11 70
2 16 10 12 33 -7 44 -17 10 -16 10 2 10 32 -1 61 -14 47 -23 -7 -4 -12 -14
-12 -23 0 -11 6 -14 26 -9 24 6 26 5 22 -18 -4 -17 -1 -26 8 -26 7 0 15 18 19
40 6 36 10 40 36 40 16 0 29 -5 29 -11 0 -6 -7 -9 -15 -5 -8 3 -15 1 -15 -5 0
-19 32 -59 47 -59 13 0 13 3 3 15 -10 11 -10 19 -2 27 6 6 8 17 5 26 -4 9 -1
13 7 10 7 -2 15 -24 17 -48 3 -25 10 -48 16 -53 7 -4 0 -5 -15 -1 -18 4 -28 2
-28 -5 0 -6 17 -11 40 -11 33 0 40 4 40 19 0 10 -7 21 -15 25 -17 6 -20 57 -4
73 13 13 -25 22 -81 19 -47 -2 -66 12 -43 30 16 12 16 13 -9 14 -22 0 -28 -5
-28 -20 0 -19 -4 -20 -37 -14 -21 3 -63 15 -93 25 -63 22 -60 21 -60 11z m190
-67 c0 -8 -4 -15 -9 -15 -13 0 -22 16 -14 24 11 11 23 6 23 -9z m-100 1 c0 -2
-7 -9 -15 -16 -12 -10 -15 -10 -15 4 0 9 7 16 15 16 8 0 15 -2 15 -4z"/>
<path d="M582 364 c3 -17 21 -21 26 -6 1 5 -4 12 -13 16 -11 4 -15 1 -13 -10z"/>
<path d="M444 349 c-3 -6 0 -15 7 -20 11 -8 8 -14 -14 -34 -16 -14 -25 -30
-22 -35 11 -18 30 -10 47 20 15 27 20 29 37 18 20 -12 20 -13 -5 -39 l-25 -26
25 -17 c31 -20 46 -20 46 -1 0 8 -5 14 -11 13 -6 -2 -14 3 -16 11 -4 9 0 11
16 6 23 -7 28 4 9 23 -9 9 -9 12 0 12 26 0 39 -24 34 -62 -5 -42 2 -47 31 -21
19 18 20 17 13 -9 -4 -20 -3 -28 7 -28 19 0 81 66 68 74 -5 4 -15 -3 -21 -14
-16 -29 -32 -26 -20 5 13 34 -6 42 -31 13 l-20 -23 5 27 c6 25 2 30 -46 54
-29 15 -65 35 -80 45 -19 14 -29 16 -34 8z"/>
<path d="M1610 352 c0 -4 5 -13 12 -20 17 -17 2 -27 -17 -12 -13 11 -24 9 -63
-11 -26 -13 -49 -25 -51 -26 -3 -2 8 -16 22 -31 30 -31 34 -44 12 -36 -8 4
-15 1 -15 -5 0 -24 -19 -9 -31 24 -13 34 -32 45 -44 25 -3 -6 3 -22 14 -36 22
-28 28 -49 11 -39 -6 4 -17 2 -24 -4 -10 -8 -16 -5 -24 15 -7 14 -12 31 -12
38 0 10 -12 9 -52 -5 -29 -10 -62 -18 -73 -19 -29 0 -45 -19 -45 -51 0 -57 37
-60 175 -14 139 47 209 85 190 103 -3 3 -10 0 -14 -7 -5 -7 -14 -10 -20 -6 -9
5 -9 10 0 21 9 11 7 14 -10 14 -28 0 -27 16 2 24 21 6 49 -16 59 -46 3 -7 10
-8 17 -4 9 6 7 13 -8 27 -21 20 -28 33 -13 27 4 -2 19 -10 34 -18 40 -19 43
-8 11 39 -26 38 -43 51 -43 33z m-224 -164 c7 -24 -25 -53 -41 -36 -7 7 -6 12
3 15 6 3 12 9 12 15 0 6 -7 8 -15 4 -9 -3 -15 0 -15 8 0 22 49 16 56 -6z m-75
-19 c15 -24 10 -34 -20 -36 -22 -2 -32 3 -36 17 -4 11 -4 24 0 30 8 13 45 7
56 -11z"/>
<path d="M682 190 c-21 -25 -29 -41 -22 -45 12 -7 39 22 40 43 0 6 5 12 10 12
12 0 12 2 1 -38 -9 -28 -7 -32 10 -32 16 0 19 7 19 50 0 61 -12 63 -58 10z"/>
<path d="M765 186 c5 -22 3 -42 -4 -50 -9 -11 -8 -15 5 -20 25 -9 36 -7 31 7
-2 6 9 27 26 45 28 29 29 32 10 32 -11 0 -24 -8 -28 -17 -7 -16 -9 -15 -14 6
-4 14 -12 26 -19 29 -10 3 -12 -5 -7 -32z"/>
<path d="M860 188 c0 -17 5 -23 18 -20 10 2 12 -3 7 -20 -4 -13 -9 -31 -11
-40 -4 -14 1 -18 18 -18 22 0 24 4 20 36 -4 31 -2 35 14 32 12 -2 18 -11 17
-25 -1 -11 7 -29 17 -38 17 -15 24 -16 46 -7 21 10 25 18 22 50 -3 35 -5 37
-38 38 -19 1 -42 4 -50 7 -28 10 -80 14 -80 5z m144 -37 c9 -14 -4 -41 -20
-41 -8 0 -14 10 -14 25 0 25 23 35 34 16z"/>
<path d="M1190 183 c0 -13 -3 -14 -12 -5 -13 13 -59 16 -95 6 -18 -5 -21 -10
-13 -25 6 -10 8 -30 4 -44 -6 -24 -5 -25 50 -25 51 0 56 2 56 23 1 20 2 20 11
5 5 -10 20 -18 31 -18 21 0 21 0 -2 25 -20 21 -22 29 -13 44 12 18 8 31 -9 31
-4 0 -8 -8 -8 -17z m-26 -34 c13 -12 -2 -42 -19 -35 -8 3 -17 1 -20 -5 -7 -11
-25 -3 -25 12 0 5 7 9 15 9 8 0 15 5 15 11 0 6 -7 9 -15 5 -9 -3 -15 0 -15 10
0 11 7 13 28 8 15 -4 31 -10 36 -15z"/>
</g>
</svg>
