<svg xmlns="http://www.w3.org/2000/svg" viewBox="0 0 160 100"><path d="M10.288 4.966C2.057 9.985 5.97 23 15.712 23c7.381 0 12.148-9.914 7.516-15.633-3.752-4.631-7.992-5.418-12.94-2.401m24.487-.407C26.156 9.236 29.639 23 39.442 23c9.896 0 13.023-14.179 4.065-18.43-4.027-1.911-5.229-1.912-8.732-.011m24-.041c-5.848 3.261-6.744 11.647-1.698 15.893 6.253 5.262 14.512 2.074 15.597-6.021C73.683 6.873 65.27.898 58.775 4.518m33.613-.538c-1.161.469-3.074 2.077-4.25 3.572-7.351 9.345 5.537 20.927 13.939 12.525 7.456-7.456-.081-19.979-9.689-16.097m22.995.603C106.412 9.009 109.539 23 119.5 23c9.878 0 13.29-13.955 4.52-18.49-3.619-1.871-4.715-1.862-8.637.073m23.392-.024C130.222 9.2 133.758 23 143.5 23c9.878 0 13.29-13.955 4.52-18.49-3.609-1.866-5.737-1.855-9.245.049M10.117 28.631C3.653 33.158 4.453 42.62 11.55 45.585 18.476 48.479 25 44.052 25 36.458c0-7.403-8.847-12.055-14.883-7.827m47.084.853c-5.316 4.473-4.325 12.849 1.902 16.069 4.066 2.103 8.179 1.089 11.475-2.828 7.497-8.91-4.459-20.745-13.377-13.241m34.156-1.492c-7.268 2.932-7.036 14.034.366 17.547 9.84 4.669 18.132-7.838 10.354-15.616-3.014-3.013-6.488-3.639-10.72-1.931m21.566 1.931c-7.582 7.582.538 19.836 10.411 15.711C132.828 41.667 129.811 27 119.5 27c-2.705 0-4.413.759-6.577 2.923m24 0c-7.406 7.406-.238 19.316 9.66 16.05C156.767 42.611 154.231 27 143.5 27c-2.705 0-4.413.759-6.577 2.923M9.656 53.133c-1.014.589-2.435 2.488-3.159 4.219-4.119 9.859 8.061 18.244 15.58 10.725 8.039-8.039-2.496-20.714-12.421-14.944m46.799 1.322c-3.782 3.782-3.483 10.502.622 13.956 6.292 5.295 14.512 2.075 15.61-6.114 1.155-8.609-10.052-14.023-16.232-7.842m80.181.181C130.776 60.497 135.182 71 143.5 71c8.196 0 12.643-10.317 7.048-16.354-3.47-3.744-10.172-3.749-13.912-.01M93.3 91c0 3.025.187 4.263.416 2.75.229-1.513.229-3.987 0-5.5S93.3 87.975 93.3 91m3.495-3.908c-.305.796-.243 3.238.139 5.427l.695 3.981.476-3.673c.54-4.175-.373-8.176-1.31-5.735M9.16 92.75c.158 3.692.166 3.7.563.5.35-2.819.785-3.25 3.277-3.25s2.927.431 3.277 3.25l.403 3.25.16-3.25c.142-2.893.483-3.25 3.097-3.25 2.563 0 2.987.413 3.34 3.25.397 3.2.405 3.192.563-.5L24 89H9l.16 3.75M26 90.943c0 1.684.634 2.057 3.5 2.057 4.409 0 4.595 1.725.25 2.314-2.625.356-2.481.416.75.313 3.749-.119 4-.315 4-3.127 0-2.815-.263-3.019-4.25-3.307-3.723-.27-4.25-.053-4.25 1.75m18.384-.501c-1.534 3.999 4.67 7.904 7.717 4.857.466-.466-.941-.676-3.127-.468-3.691.352-3.974.198-3.974-2.168 0-2.271.462-2.59 4.25-2.931l4.25-.383-4.281-.174c-2.931-.12-4.456.28-4.835 1.267m10.023-.061c-1.332 3.473-.012 5.119 4.107 5.119 3.762 0 3.986-.168 3.986-3 0-2.746-.318-3.026-3.758-3.311-2.634-.218-3.931.139-4.335 1.192m9.753 2.369c.154 3.603.176 3.625.559.562.289-2.317.998-3.305 2.59-3.614 1.807-.351 1.709-.449-.559-.562-2.561-.127-2.739.121-2.59 3.614m6.65-.25c.225 1.925.585 3.5.799 3.5.215 0 .391-1.575.391-3.5s-.36-3.5-.799-3.5c-.44 0-.616 1.575-.391 3.5m2.733-2.569c-.317.512-.049 1.256.595 1.654.698.432.904.292.51-.345-.363-.588-.095-1.297.596-1.576.899-.362.917-.529.065-.585-.655-.043-1.45.34-1.766.852M83 90.941c0 2.415.556 2.658 1.349.591.31-.807.133-1.734-.393-2.059-.526-.325-.956.336-.956 1.468m7 1.172c0 2.891-.215 3.082-3 2.674-1.65-.242-3-.069-3 .386s1.575.827 3.5.827c3.333 0 3.5-.167 3.5-3.5 0-1.925-.225-3.5-.5-3.5s-.5 1.401-.5 3.113m11.252.387c.011 2.2.216 2.982.455 1.738.239-1.244.23-3.044-.02-4s-.446.062-.435 2.262m2.908.19c.155 3.692.173 3.71.563.56.35-2.819.785-3.25 3.277-3.25 2.484 0 2.933.44 3.317 3.25l.444 3.25-.13-3.5c-.123-3.295-.35-3.518-3.881-3.81l-3.75-.311.16 3.811m9.224-2.248c-1.243 3.239.065 5.052 3.874 5.368 4.602.382 4.909 1.918.492 2.467-3.2.397-3.192.405.5.563 3.269.139 3.75-.128 3.751-2.09 0-1.934-.527-2.25-3.75-2.25-5.552 0-5.565-3.965-.013-4.071 5.523-.106 5.89-1.429.397-1.429-3.169 0-4.878.469-5.251 1.442m19.868 2.058c.011 2.2.216 2.982.455 1.738.239-1.244.23-3.044-.02-4s-.446.062-.435 2.262m2.908.19c.155 3.692.173 3.71.563.56.35-2.819.785-3.25 3.277-3.25 2.484 0 2.933.44 3.317 3.25l.444 3.25-.13-3.5c-.123-3.295-.35-3.518-3.881-3.81l-3.75-.311.16 3.811m9.224-2.248c-1.534 3.999 4.67 7.904 7.717 4.857.466-.466-.941-.676-3.127-.468-3.748.357-3.974.225-3.974-2.331 0-2.559.223-2.689 4-2.329 2.2.21 4 .032 4-.395 0-1.467-8.036-.846-8.616.666M27 91c0 .55 1.35 1 3 1s3-.45 3-1-1.35-1-3-1-3 .45-3 1m28 1.5c0 2.19.433 2.5 3.5 2.5s3.5-.31 3.5-2.5-.433-2.5-3.5-2.5-3.5.31-3.5 2.5m25.548.75c.558 1.465.039 1.776-3.191 1.91l-3.857.16 3.377.413c3.961.484 6.187-1.074 4.264-2.983-1.01-1.002-1.127-.903-.593.5" fill-rule="evenodd"/></svg>