<?xml version="1.0" standalone="no"?>
<!DOCTYPE svg PUBLIC "-//W3C//DTD SVG 20010904//EN"
 "http://www.w3.org/TR/2001/REC-SVG-20010904/DTD/svg10.dtd">
<svg version="1.0" xmlns="http://www.w3.org/2000/svg"
 width="200.000000pt" height="200.000000pt" viewBox="0 0 200.000000 200.000000"
 preserveAspectRatio="xMidYMid meet">
<metadata>
Created by potrace 1.10, written by Peter Selinger 2001-2011
</metadata>
<g transform="translate(0.000000,200.000000) scale(0.100000,-0.100000)"
fill="#000000" stroke="none">
<path d="M670 1469 c115 -75 158 -101 469 -290 135 -82 260 -152 278 -155 18
-3 46 -1 62 6 54 22 65 9 27 -32 -47 -51 -74 -56 -160 -27 -137 46 -269 23
-316 -54 -40 -66 -18 -114 78 -170 133 -78 183 -82 272 -21 64 44 53 14 -16
-42 l-45 -37 28 -24 28 -24 -46 5 c-25 3 -129 36 -230 75 -237 89 -305 105
-412 99 -91 -6 -141 -24 -269 -96 -102 -56 -108 -70 -12 -26 76 36 100 39 70
9 -26 -27 -18 -27 26 -2 24 14 56 28 71 31 26 6 27 5 17 -13 -10 -20 -10 -20
32 -1 53 24 86 27 69 6 -10 -12 -6 -12 35 0 26 8 57 14 68 14 20 -1 19 -2 -4
-16 l-25 -15 30 5 c17 3 42 8 57 10 15 3 30 0 33 -5 4 -5 27 -9 53 -9 26 0 76
-11 112 -24 206 -74 216 -77 291 -79 66 -2 80 1 112 23 l37 25 -28 8 c-15 5
-37 12 -49 17 l-23 9 29 50 c27 45 55 121 45 121 -2 0 -27 -14 -55 -32 -70
-42 -137 -48 -202 -18 -47 22 -97 71 -97 94 0 42 87 82 156 72 66 -9 99 -30
122 -78 l20 -43 7 38 c6 31 11 37 32 37 37 0 73 23 126 79 27 28 55 51 63 51
31 0 11 22 -39 46 -39 17 -69 24 -110 23 -47 -1 -64 3 -105 30 -27 17 -57 40
-67 51 -12 13 -21 17 -25 10 -4 -6 -25 6 -53 31 -28 24 -44 33 -40 22 5 -13
-5 -8 -35 15 -23 19 -44 37 -47 42 -3 5 -12 7 -19 4 -7 -3 -34 11 -60 31 -37
28 -44 31 -36 14 l12 -21 -32 18 c-17 11 -50 35 -73 54 -28 24 -39 29 -34 16
7 -18 6 -18 -20 -1 -16 10 -46 32 -68 49 -21 17 -35 25 -31 17 11 -17 -17 -9
-103 30 -35 16 -66 29 -70 29 -3 0 37 -28 89 -61z"/>
<path d="M803 1243 c11 -10 180 -93 184 -90 8 9 -26 64 -44 72 -15 7 -145 24
-140 18z"/>
<path d="M1594 575 c-3 -8 -4 -20 -1 -27 3 -7 6 -3 6 10 1 12 6 22 12 22 5 0
7 -5 3 -12 -4 -7 -3 -8 4 -4 7 4 12 2 12 -5 0 -7 3 -9 6 -6 8 8 -14 37 -28 37
-5 0 -11 -7 -14 -15z"/>
<path d="M1570 560 c0 -7 3 -10 7 -7 3 4 3 10 0 14 -4 3 -7 0 -7 -7z"/>
<path d="M1610 540 c0 -7 3 -10 7 -7 3 4 3 10 0 14 -4 3 -7 0 -7 -7z"/>
</g>
</svg>
